<?xml version="1.0" standalone="no"?>
<svg viewBox="-850 -300 2800 2800" style="width: 487.5px; height: 487.5px; justify-content: center; align-self: center; transform: scale(-1, 1);" xmlns="http://www.w3.org/2000/svg" width="609" height="609"><g transform="rotate(0 799.492919921875 1159.5026597976685)"><g id="pose_sitting_crossed_legs" data-name="pose/sitting/crossed_legs" transform="translate(-186 449)"><path id="_Skin" data-name="âœ‹ Skin" d="M1396.944,758.294c-7.634-2.193-17.171-2.757-25.522-3.158-29.518-1.737-59.616,12.338-88.559,18.681-12.669,3.132-26.085,6.82-39.642,9.568-12.036,1.634-24.48,2.859-36.99,3.639-10.112.3-21.879-.472-25.332,10.16-20.326,3.941-38.318,5.58-57.694,2.23,1.815-6.174,2.849-12.628.972-19.278.947-1.576,2.236-3.707,2.925-5.143h-2.329c-34.009-13.614-70.784-22.911-104.971-37.017-44.622-16.083-110.34-47.157-161.9-68.376a224.045,224.045,0,0,0,3.308-57.5l2.072-1.675c.681-3.715,1.738-8.162,3.655-11.529,2.432-6.454,2.489-15.263,3.455-22.557,2.014-14.267,3.359-35.75-.307-52.689-1.6-22.972-17.086-40.681-33.782-54.887-20.5-20.275-41.027-40.057-61.039-61.114C664.5,294.731,655.743,152.508,482.351,109.284l-.085-.671c-1.366-1.524-1.925-2.733-3.482-.324-5.725-2.194-12.864-2.01-17.658-5.72a68.491,68.491,0,0,1-18.5-27.364c-3.042-20.107-.889-51.1-18.5-63.961C404.559-.476,300.608-8.821,291.643,16.8c-5.562,5.224-8.092,11.86-9.83,19.986-5.792,10.956-9.446,23.1-15.281,34.229-12.4,24.951-20.445,19.421-42.344,25.123-2.378-5.3-9.594-4.231-14.853-3.461C145.648,101.63,68,126.056,40.731,185.92l2.321-.3c-47.068,88.436-16.544,200.9-8.125,294.62,6.809,83.3-.978,167.006-19.484,244.71C-7.272,807.387-8.575,899.6,36.493,974.212c4.581,8.541,10.158,20.611,20.026,15.253,5.408,4.089,11.483,6.913,19.873,9.373,2.313,1.678,4.709,4.5,7.131,5.7.114.163,4.012-2.085,4.217-2.145,7.369,10.517,411.928,45.657,453.911,51.113,36.988,4.46,85.862,15.848,116-10.833,24.909-7.118,50.975-25.647,70.881-44.044,12.08,175.194,18.76,533.99,29.539,536.49,4.717,1.6,11.084,3.514,16.423,5.044.032,12.586.969,26.888-.021,39.261-1.655,13.976-5.848,30.477-7.745,45.168-8.154-.545-10.552,7.634-11.5,13.19-7.039,45.9-6.83,82.9-6.325,133.351,82.77,48.755,179.776,75.568,272.91,107.077,8.92,6.7,28.251-.547,38.551-2.359,35.76-7.041,76.394-27.869,67.367-66.056-6.609-28.753-34.359-45.3-57.718-62.213-25.556-18.516-52.5-37.017-76-59.062-18.855-17.764-32.936-31.544-48.661-51.59-6.975-9.322-14.412-24.639-23.794-31.511,9.912-11.758-10.115-.737-17.7-.058a582.379,582.379,0,0,0-16.606-61.3l6.438.291c21.136-19.739,32.984-114.5,34.456-142.614,10.595-183.268,10.343-394.5-32.158-548.841,32.283,19.881,67.683,36.486,99.789,56.148,20.244,11.86,40.785,28.328,63.478,34.079,1.478,4.246,6.889,5.9,9.842,1.739,4.062.5,9.3-1.184,9.743-3.036,4.154-8.5,10.173-17.65,9.449-26.882,0,0-5.574-12.93-5.574-12.93,12.487,5.077,26.063,15.758,39.393,16.737,26.923,89.907,79.97,39.542,131.015,4.552,30.806-21.527,64.5-45.3,96.923-68.25,27.506-21.882,81.206-42.645,54.882-85.988" transform="translate(281 -30)" fill="#d08b5b"></path><path id="_Top" data-name="ðŸ‘• Top" d="M50.441,883.508C36.172,866.624-.525,799.049.005,725.113c.578-80.55,39.115-170.308,40-252.64,1.336-124.241-15.6-197.952-16.322-207.739C11.346,173.7,26.141,53.561,128.75,23.933A277.131,277.131,0,0,1,216.625,0c2.4.5,3.956,3.021,5.25,5.63l.265.541.545,1.146c12.838,38.8,53.578,60.454,90.31,74.858l2.244.873,2.278.872c60,26.645,159.578,14.221,168.873-63.633,140.6,37.371,178.695,195.577,268.231,291.924,20.983,23.543,43.031,46.093,64.508,69.17,6.774,6.648,12.969,16.633,22.435,18.982,5.676,8.919,9.745,19.012,10.444,29.557-30.4-13.592-64.722-7.136-96.9,3.155-9.391,3-105.97,50.746-162.213,39.4-2.875-.581,2.553,113.169-3.057,114.7-48.66,13.262-197.189,26.464-226.963,18.59-48.347-12.785-108.617,64.723-164.618,142.231C146.368,819.8,98.147,891.61,66.476,891.614,60.516,891.615,55.144,889.073,50.441,883.508ZM815.006,468.657a7.471,7.471,0,0,0,1.133-3.59A153.746,153.746,0,0,0,846.979,448c8.032,5.723,9.726,14.577,8.8,24.473-.367,3.846-.847,7.691-1.337,11.527C844.349,473.514,829.38,469.8,815.006,468.657Z" transform="translate(280.994 67.998)" fill="#e86bbb"></path><path id="_Shoes" data-name="ðŸ‘Ÿ Shoes" d="M275.2,1119.724h0l-1.083-.668a64.912,64.912,0,0,0-11.2-5.495c-4.009-1.543-9-3.144-16.7-5.351l-6.012-1.722-2.482-.725-1.233-.367c-5.275-1.58-8.739-2.766-12.358-4.233l-1.16-.478-3.886-1.312c-34.725-11.762-69.745-24.565-104.085-38.052C80.729,1047.858,46.2,1033.348,12.383,1018.2L8.391,1016.4l-6.116-2.763-.142-2.413c-1.6-27.291-2.291-50.945-2.1-72.315a609.772,609.772,0,0,1,3.546-62.482l.146-1.3,7.963.752a22.035,22.035,0,0,0,1.354,9.424,23.728,23.728,0,0,0,4.874,7.867,22.528,22.528,0,0,0,16.335,7.434,20.043,20.043,0,0,0,6.424-1.06l.444-.156.206-.068.609-.19c3.982-1.281,7.3-3.081,13.659-7.408l4.52-3.1,1.15-.773.832-.549c.419-.273.809-.524,1.192-.766l.558-.35A231.447,231.447,0,0,1,102.712,866.6a203.534,203.534,0,0,1,40.619-11.189c2.212-.406,4.552-.762,7.151-1.088l2.824-.334,2.9-.306,9.009-.882,3.532-.377,1.358,1.906c12.455,17.478,25.276,33.889,38.107,48.778a512.3,512.3,0,0,0,39.9,41.551A382.086,382.086,0,0,0,289.643,978.2a286.5,286.5,0,0,0,42.958,24.752l1.955.891.181.105a90.806,90.806,0,0,1,22.065,18.128,68.9,68.9,0,0,1,13.677,22.69,45.453,45.453,0,0,1,2.537,13.59,37.19,37.19,0,0,1-1.924,12.855,39.448,39.448,0,0,1-6.474,11.779,53.412,53.412,0,0,1-11.111,10.364l-.547.383-.092.062a163.012,163.012,0,0,1-36.364,17.739,153.946,153.946,0,0,1-39.062,8.039l-.969.064ZM410.678,207.653a34.58,34.58,0,0,1-10.1-1.485,36.416,36.416,0,0,1-9.513-4.546l-.483-.326-.212-.145-.729-.655-.609-.559-.6-.558-.588-.562a122.3,122.3,0,0,1-10.395-11.776l-3.745-4.663-1.5-1.844-1.1-1.343-.788-.947a88.888,88.888,0,0,0-6.373-6.959l-.692-.667-4.726-4.5,6.159-2.166c11.958-4.205,23.345-13.024,32.932-25.5a113.372,113.372,0,0,0,12.175-19.94,127.754,127.754,0,0,0,8.386-22.855l.3-1.143.062-.175c1.45-4.083,2.046-8.336,2.2-15.692l.072-5.415.034-1.783.033-1.2.039-1.183c.327-8.749,1.322-13.467,3.942-18.7l.341-.665.113-.216.139-.2c.168-.245.185-.283.117-.408l-1.415-2.4,1.678-2.147c.727-.932,1.525-1.85,2.512-2.891l.417-.435.93-.962,1.321-.209c20.631-3.262,41.579-7.294,64.042-12.325,21.658-4.851,44.88-10.669,70.993-17.787l5.117-1.4,2.547-.686,1.72-.457,1.7-.446C585.661,4.508,592,3.111,597.687,2.2A103.571,103.571,0,0,1,614.522.813c.474,0,.953,0,1.423.009l1,.017c1.054.019,1.958.075,3.584.222l1.625.149.748.062.718.053c.833.057,1.529.084,2.125.084a9.878,9.878,0,0,0,3.3-.466L629.2.887,631.68,0l1.8,1.922c6.232,6.674,10.582,12.9,13.3,19.024A36.443,36.443,0,0,1,649.931,32.9a28.908,28.908,0,0,1-1.5,11.7l-.212.6-.05.113c-2.218,5.09-5.914,9.9-11.632,15.132-5.38,4.924-12.565,10.278-23.3,17.359L610.2,79.784,608.009,81.2l-.338.218c-3.925,2.539-9.858,6.377-11.945,7.761l-1.152.767c-4.811,3.217-8.33,5.762-11.076,8.009l-.467.385-6.69,4.651-13.766,9.583L552.362,119.7l-7.027,4.9c-27.247,19.026-52.8,36.969-78.114,54.854l-1.286.872-1.013.7-1.454,1.016-2.051,1.454-6.815,4.878-1.362.965-1.344.943-1.359.943-1.375.942-1.352.913a112.975,112.975,0,0,1-18.583,10.495,48.179,48.179,0,0,1-16.348,4.012C412.144,207.631,411.4,207.653,410.678,207.653Z" transform="translate(1034.988 726.346)" fill="#fff"></path><path id="_Ink" data-name="ðŸ– Ink" d="M1040.4,1856a25.487,25.487,0,0,1-11.224-2.351c-13.154-2.532-26.4-6.919-39.209-11.161-5.62-1.861-11.432-3.786-17.114-5.51-37.388-12.373-74.64-25.918-110.724-40.258-36.5-14.5-72.763-30.205-107.792-46.668a7.567,7.567,0,0,1-4.086-6.732c.136-3.921.065-10.872-.025-19.673v-.034c-.217-21.273-.545-53.422,1.63-80.55,1.2-14.915,3.036-26.665,5.467-34.921a38.368,38.368,0,0,1,4.755-10.892c1.905-2.731,4.068-4.251,6.429-4.52a264.919,264.919,0,0,0,4.918-38.807c.688-12,.765-24.822.236-39.2a206.346,206.346,0,0,0-23.388-6.253c-2.173-.684-4.663-1.214-7.3-1.774a76.515,76.515,0,0,1-9.937-2.575c-3.536-1.277-6.062-2.874-7.722-4.883a4.473,4.473,0,0,1-2.273-1.745,4.811,4.811,0,0,1-.67-3.21c4.044-37.908,7.295-77.555,9.662-117.838,1.935-32.249,3.287-65.568,4.017-99.031.7-32.225.851-65.565.44-99.095-.394-32.146-1.315-65.477-2.736-99.068-1.355-32.023-3.209-65.314-5.51-98.95a227.71,227.71,0,0,1-29.8,22.037,168.821,168.821,0,0,1-16.312,8.818,141.775,141.775,0,0,1-17.229,6.779c-5.865,5.877-13.729,10.132-24.041,13.007-9.056,2.525-18.619,3.612-27.6,4.411-2.845.176-5.813.265-8.822.265-14.727,0-29.553-2.123-43.891-4.176-4.952-.709-10.073-1.443-15.117-2.078a283.176,283.176,0,0,0-35.669-2.12c-11.923,0-24.8.63-39.352,1.926-13.519,1.2-27.365,2.886-39.28,4.368l-12.988,1.62c-18.329,2.01-34.96,3.491-50.843,4.526-18.283,1.192-35.147,1.772-51.555,1.772-15.864,0-31.284-.57-45.831-1.694-15.662-1.21-30.9-3.106-45.278-5.636a387.119,387.119,0,0,1-44.2-10.41,331.342,331.342,0,0,1-42.6-16.014c-.627.056-1.275.084-1.926.084a32.509,32.509,0,0,1-12.368-2.792A66.561,66.561,0,0,1,111.165,998a115.254,115.254,0,0,1-20.112-18.288,4.9,4.9,0,0,1-2.6.769c-2.774,0-5.482-2.408-7.873-4.533-.7-.627-1.371-1.219-2.025-1.74a86.1,86.1,0,0,1-9.2-3.334,50.086,50.086,0,0,1-8.791-4.812,13.608,13.608,0,0,1-4.224.707c-9.717,0-15.814-11.79-20.265-20.4-.546-1.056-1.11-2.147-1.647-3.145a253.4,253.4,0,0,1-16.391-33.437A244.184,244.184,0,0,1,7.376,876.341a260.591,260.591,0,0,1-5.739-33.476A306.792,306.792,0,0,1,0,809.325c.048-10.76.591-21.762,1.66-33.632.954-10.581,2.308-21.622,4.141-33.755,3.407-22.548,8.014-45.648,12.47-67.987v-.005C23.449,648.015,28.8,621.2,32.453,594.482c1.969-14.39,3.3-27.561,4.056-40.263a381.237,381.237,0,0,0,.371-40.677c.355-9.951.311-20.147-.133-31.17-.4-9.822-1.1-20.073-2.163-31.34-1.968-20.933-4.884-42.286-7.7-62.936v-.009c-2.569-18.808-5.225-38.255-7.154-57.319a531.824,531.824,0,0,1-3.052-56.909,307.612,307.612,0,0,1,5.146-56.132,247.476,247.476,0,0,1,6.927-27.66A232.271,232.271,0,0,1,39.257,162.74C41.73,151.482,47.2,140.466,55.526,130c7.488-9.419,17.269-18.394,29.07-26.675a215,215,0,0,1,35.72-20.04,239.691,239.691,0,0,1,36.218-12.836c3.272-.54,8.647-1.975,14.87-3.636,13.878-3.7,32.882-8.777,46.274-8.777a28.638,28.638,0,0,1,10.217,1.518,8.987,8.987,0,0,1,5.572,5.232,9.725,9.725,0,0,1,5.6-3.5,28.342,28.342,0,0,1,6.764-.638c6.066-1.474,11.489-6.12,16.578-14.2,4.442-7.053,8.057-15.813,11.246-23.541C278.728,10.615,283.109,0,289,0a6.067,6.067,0,0,1,2.982.864c6.308,5.487,1.039,14.39-3.61,22.246-2.05,3.463-3.986,6.734-4.788,9.452l-1.152,2.264a103.232,103.232,0,0,1-8.985,15,42.323,42.323,0,0,1-12.864,11.7,11.391,11.391,0,0,1-5.835,2.948,51.99,51.99,0,0,1-7.367.977h-.008c-4.482.381-8.716.742-10.333,3.032-.779,1.1-.913,2.571-.41,4.488a48.543,48.543,0,0,0,5.843,12.294,71.882,71.882,0,0,0,9.238,11.281,131.483,131.483,0,0,0,25.511,19.405,245.927,245.927,0,0,0,29.643,15c8.831,3.794,18.076,7.28,27.478,10.363a144.58,144.58,0,0,0,25.493,6.891,159.1,159.1,0,0,0,27.743,2.459,136.162,136.162,0,0,0,30.37-3.282A96.641,96.641,0,0,0,445.181,136.9a68.88,68.88,0,0,0,21.031-18.665A67.508,67.508,0,0,0,477.97,90.426c-6.867-1.257-13.705-5.4-19.776-11.971a62.517,62.517,0,0,1-7.727-10.447,72.336,72.336,0,0,1-5.733-12.07,60.755,60.755,0,0,1-3.973-22.53,37.125,37.125,0,0,1,1.676-10.169,25.7,25.7,0,0,1,4.518-8.461,95.228,95.228,0,0,0,5.238,29.745,58.779,58.779,0,0,0,16.667,24.87l.873.8A31.828,31.828,0,0,0,474,73.608a9.1,9.1,0,0,0,4.825,1.665,5.745,5.745,0,0,0,.887-.069,5.7,5.7,0,0,1,4.755-2.541,8.622,8.622,0,0,1,7.554,5.587,221.944,221.944,0,0,1,36.657,9.565,209.689,209.689,0,0,1,32.263,14.7,224.5,224.5,0,0,1,28.5,19.118,269.259,269.259,0,0,1,25.378,22.81c7.7,7.824,15.186,16.256,22.887,25.778,6.864,8.487,13.743,17.654,21.031,28.023,13.546,19.276,26.5,39.923,39.031,59.89l0,.005c12.8,20.394,26.03,41.483,39.988,61.283,7.519,10.665,14.633,20.1,21.747,28.85,7.991,9.825,15.779,18.537,23.809,26.635,15.331,16.143,31.458,32.009,47.055,47.352,4.512,4.438,9.177,9.028,13.815,13.616a111.99,111.99,0,0,1,14.373,13.591,96.459,96.459,0,0,1,11.373,15.8,80.623,80.623,0,0,1,10.882,37.295,144.116,144.116,0,0,1,.92,22.6c-.225,6.881-.871,14.28-1.973,22.62l-.139,1.363q-.133,1.344-.264,2.757c-.808,8.577-1.643,17.445-5.657,24.935a22.778,22.778,0,0,0-.482,2.534c-.329,2.164-.669,4.4-2.408,5.819a227.117,227.117,0,0,1-2.859,51.893l7.586,3.386c47.854,21.318,87.94,38.334,126.153,53.552,45.822,18.248,87.962,33.481,128.827,46.568a8.286,8.286,0,0,1,1.47-.142,3.91,3.91,0,0,1,3.89,2.314,7.333,7.333,0,0,1,.177,4.6,10.436,10.436,0,0,1-2.307,4.457,31.848,31.848,0,0,1-.062,14.011,104.862,104.862,0,0,0,14.851,1.016,144.5,144.5,0,0,0,16.584-1.015c4.956-.57,10.331-1.394,16.432-2.52,2.05-4.514,5.672-7.468,11.075-9.029,4.713-1.362,10.169-1.487,14.983-1.6h.035c.809-.019,1.573-.036,2.336-.059,13.011-.816,25.8-2.094,38-3.8,20.682-4.621,41.456-10.307,61.546-15.805,10.091-2.762,20.526-5.618,30.821-8.3a116.563,116.563,0,0,1,31.578-4.266,127.631,127.631,0,0,1,31.885,4.081,89.123,89.123,0,0,1,9.486,12.6,47.637,47.637,0,0,1,7.048,17.086,38.558,38.558,0,0,1-.425,16.084c-1.788,7.471-5.757,14.722-11.8,21.552a76.727,76.727,0,0,1-9.622,9.082,94.532,94.532,0,0,1-11.29,7.706c-40.439,28.669-83.562,59.2-127.083,89.639l-3.086,2.2c-2.21,1.582-4.522,3.248-6.563,4.717-13.474,9.7-27.406,19.736-40.936,27.289a122.282,122.282,0,0,1-19.955,9.167,70.62,70.62,0,0,1-9.628,2.585,50.334,50.334,0,0,1-9.309.918,37.552,37.552,0,0,1-14.137-2.65,39.532,39.532,0,0,1-12.889-8.648,65.617,65.617,0,0,1-11.378-15.689,132.269,132.269,0,0,1-9.606-23.773c-6.083-.714-11.746-3.732-17.223-6.65-2.687-1.432-5.465-2.912-8.253-4.1,2,9.282-3,18.656-7.414,26.926-.591,1.108-1.2,2.254-1.783,3.377a9.73,9.73,0,0,1-5.064,5.317,17.125,17.125,0,0,1-7.344,1.5h-.2a8.945,8.945,0,0,1-6.333,2.435,11.231,11.231,0,0,1-5.231-1.3,9.315,9.315,0,0,1-3.819-3.613,116.987,116.987,0,0,1-23.811-10.1c-7.58-4.137-15-8.923-22.181-13.551-5.423-3.5-11.031-7.113-16.656-10.414-16.99-10.32-34.758-19.909-51.94-29.182l-.047-.025c-12.215-6.593-24.847-13.41-37.1-20.435,5.963,24.694,11.223,50.421,15.635,76.467,4.207,24.838,7.78,50.78,10.62,77.1,2.686,24.9,4.808,51.006,6.306,77.585,1.4,24.879,2.309,51.092,2.7,77.911.677,46.982-.184,98.068-2.632,156.179-2.181,51.789-5.334,103.162-8.646,155.617l-.093,1.867a125.919,125.919,0,0,1-2.405,19.952,61.835,61.835,0,0,1-5.592,15.879,60.609,60.609,0,0,1-9.978,13.69,118.7,118.7,0,0,1-15.564,13.387,402.551,402.551,0,0,1,11.226,40.31c.478,1.443,1.747,1.613,2.973,1.777,1.5.2,2.924.391,2.946,2.765a29.775,29.775,0,0,1,6.554-.687,28.544,28.544,0,0,1,8.581,1.209c2.865.921,4.861,2.276,5.931,4.027,1.306,2.137,1.164,4.792-.424,7.889a136.839,136.839,0,0,1,15.21,15.205c4.695,5.4,9.189,11.156,13.535,16.72l.018.024c5.332,6.828,10.846,13.887,16.789,20.376a261.816,261.816,0,0,0,21.9,23.12c7.276,6.846,15.187,13.632,24.184,20.746,16.7,13.2,34.573,25.465,51.862,37.323l.889.61a168.263,168.263,0,0,1,27.984,17.7,111.173,111.173,0,0,1,19.737,19.791,70.956,70.956,0,0,1,11.175,20.822,49.647,49.647,0,0,1,2.3,20.8,46.849,46.849,0,0,1-5.8,17.851,61.318,61.318,0,0,1-13.5,16.2,97.075,97.075,0,0,1-21.436,13.768,160.794,160.794,0,0,1-29.6,10.565l-.951.223c-2.732.657-5.531,1.477-8.494,2.345C1054.978,1853.818,1047.534,1856,1040.4,1856Zm-272.72-254.067a615.493,615.493,0,0,0-3.679,67.617c-.078,20.157.612,42.331,2.107,67.788,35.578,16.1,71.929,31.473,108.043,45.7,36.358,14.324,73.445,27.867,110.233,40.252a187.374,187.374,0,0,0,20.981,6.867c10.629,3.024,21.619,6.151,30.84,11.841a149.5,149.5,0,0,0,38.8-7.832,159.061,159.061,0,0,0,35.659-17.366c6.515-4.522,11.368-9.725,14.423-15.467a33.194,33.194,0,0,0,3.881-17.11c-.359-9.2-4.272-19.029-11.318-28.412a86.192,86.192,0,0,0-24.947-22.061,269.123,269.123,0,0,1-24.468-12.635c-7.812-4.544-15.716-9.64-23.493-15.146a398.281,398.281,0,0,1-43.878-36.353c-25.305-24.057-50.212-53.2-74.027-86.619-2.107.226-4.261.432-6.162.614-5.444.521-11.074,1.06-16.638,2.081a200.132,200.132,0,0,0-40.508,11.226,227.611,227.611,0,0,0-37.58,19.01c-2.147,1.339-4.262,2.8-6.307,4.206-5.3,3.652-10.776,7.427-17.176,9.365a24.211,24.211,0,0,1-18.8-.859,27.588,27.588,0,0,1-8.565-6.288A27.265,27.265,0,0,1,767.685,1601.932ZM781.132,1517c-.606,5.765.974,12.994,2.8,21.364l0,.014c1.172,5.364,2.5,11.443,3.411,17.923a107.484,107.484,0,0,1,1.024,20.906c-.319,2.409-.774,4.9-1.213,7.31v.007c-1.073,5.881-2.182,11.963-1.552,17.807.543,4.072,1.642,7.111,3.265,9.033a7.328,7.328,0,0,0,5.859,2.637c3.144,0,7.135-1.476,12.2-4.514,4.463-2.674,9.122-6.153,13.629-9.517,6.167-4.6,11.99-8.948,16.051-10.213a201.2,201.2,0,0,1,30.34-13.518A213.685,213.685,0,0,1,899,1567.762c-.069-3.679-1.34-6.153-2.687-8.772a20.776,20.776,0,0,1-2.741-8.109c-.572-6.678-.759-13.334-.939-19.772v-.04c-.1-3.505-.2-7.13-.362-10.767-9.448,4.3-22.439,6.476-38.613,6.476a264.547,264.547,0,0,1-38.618-3.209C804.077,1521.929,792.669,1519.718,781.132,1517Zm152.416,64a11.756,11.756,0,0,1-1.548.859c1.178,1.427,2.325,2.922,3.435,4.368A66.824,66.824,0,0,0,944,1596l-1.985-3.083A120.387,120.387,0,0,0,933.548,1581ZM54.977,484h0a38.86,38.86,0,0,1-7.91,15.874c.951,7.715,1.655,15.656,2.092,23.6.417,7.562.605,15.383.561,23.244-.083,14.484-.929,29.38-2.586,45.539-3.074,29.974-8.5,59.525-13.757,88.1l0,.009-.005.028c-4.064,22.114-8.266,44.98-11.189,67.258-1.572,11.98-2.669,22.9-3.352,33.38-.766,11.741-1,22.653-.712,33.358A290.781,290.781,0,0,0,20.9,847.84a257.591,257.591,0,0,0,7.141,33.654A254.28,254.28,0,0,0,40.4,915.467a278.73,278.73,0,0,0,18.425,34.406A15.432,15.432,0,0,1,62.173,952c.47-.313,1-.681,1.665-1.156,6.352-11.241,13.211-22.5,20.97-34.433,6.911-10.625,14.382-21.537,22.84-33.36,15.715-21.967,32.534-43.81,48.8-64.935,22.26-28.911,45.279-58.807,65.795-89.44,3.369-6.579,7.416-13.047,11.7-19.894,7.9-12.628,16.071-25.683,20.058-39.951-12.463-4.922-24.357-10.275-35.351-15.91A328.818,328.818,0,0,1,188.1,635.174a304.96,304.96,0,0,1-50.3-41.436c-13.842-14.058-27.174-29.977-41.957-50.1C82.376,525.3,68.828,504.964,54.977,484ZM1374.969,731.164a117.53,117.53,0,0,0-23.215,2.562c-7.474,1.5-14.714,3.454-22.726,5.663-25.061,6.855-47.4,12.5-68.287,17.265-24.478,5.58-47.088,9.987-69.122,13.471a37.756,37.756,0,0,0-2.652,3.007,4.231,4.231,0,0,1-.239,4.764,33.362,33.362,0,0,0-3.37,11.426,105.608,105.608,0,0,0-.587,12.125v.018c-.069,6.869-.141,13.971-2.479,20.551a131.243,131.243,0,0,1-7.79,22.052,122.468,122.468,0,0,1-12.14,20.993,93.048,93.048,0,0,1-16.248,17.483A66.927,66.927,0,0,1,1126,894.069a143.106,143.106,0,0,1,12.629,14.413c4.377,5.471,8.9,11.128,14.2,15.86a32.623,32.623,0,0,0,8.862,4.331,30.6,30.6,0,0,0,8.977,1.325c7.039,0,14.714-2.265,23.463-6.926,7.653-4.076,14.885-9.267,21.88-14.287,3.145-2.257,6.112-4.387,8.969-6.3,36.473-25.769,74.291-52.258,115.617-80.98,5.637-4.672,13.5-9.741,21.823-15.107l.007,0c8.724-5.625,17.742-11.438,25.4-17.53,8.716-6.93,14.166-13.082,16.661-18.807a25,25,0,0,0,1.408-10.806,32.621,32.621,0,0,0-2.795-10.332c-2.534-5.714-6.644-11.575-12.565-17.916a14.456,14.456,0,0,1-4.979.757c-1.506,0-3.063-.146-4.569-.287h-.005c-1.358-.127-2.761-.259-4.129-.284-.618-.013-1.252-.02-1.885-.02ZM1125.65,768c-3.98,8.119-7.646,16.52-11.207,25.682-3.181,8.185-6.2,16.792-9.24,26.314-5.781,18.128-10.787,37.111-15.2,53.86,5.268,1.449,10.391,3.361,15.345,5.211l.007,0c4.384,1.636,8.918,3.329,13.507,4.681a10.467,10.467,0,0,0,2.294.249c3.149,0,6.749-1.331,10.7-3.955a65,65,0,0,0,10.825-9.451,158.66,158.66,0,0,0,16.261-20.893,114.034,114.034,0,0,0,9-18.513,107.224,107.224,0,0,0,5.4-19.852,134.764,134.764,0,0,0,1.056-13.583v-.008c.19-4.359.386-8.867,1.011-13.206a44.245,44.245,0,0,1,3.594-12.66,199.812,199.812,0,0,1-20.518,1.185c-12.45,0-23.19-1.656-32.832-5.065ZM517.834,678a3.016,3.016,0,0,0-2.972,2.14L510.9,692.066l-1.442,4.348,0,.006c-7.11,21.448-14.463,43.626-22.048,65.314-8.509,24.328-16.415,45.444-24.171,64.553a2.47,2.47,0,0,0,.152,2.421,3.419,3.419,0,0,0,5.813-.77c7.739-19.079,15.63-40.158,24.124-64.441,7.57-21.642,14.91-43.775,22.009-65.179l.011-.033c1.7-5.124,3.625-10.931,5.481-16.507a2.652,2.652,0,0,0-.3-2.5A3.331,3.331,0,0,0,517.835,678Zm243.318,39.865a2.3,2.3,0,0,1,1.753.882c1.315,1.5,2.183,4.95,2.579,10.25a143.689,143.689,0,0,1,.035,16.524c-.521,11.548-1.84,23.007-2.165,25.444a129.563,129.563,0,0,1-2.455,14.218c-.892,4.227-1.814,8.6-2.318,12.9a46.139,46.139,0,0,0,.1,12.919c9.2-9.9,14.777-22.482,19.02-33.481,4.468-11.613,8.734-23.518,12.859-35.03,1.849-5.16,3.761-10.495,5.665-15.731a5.012,5.012,0,0,1,1.909-2.427,4.819,4.819,0,0,1,6.252.882,4.627,4.627,0,0,1,.865,4c-.4,19.35-.71,38.3-1.019,57.617l-.23,14.4c-.006.409-.041.927-.082,1.528v.01c-.16,2.363-.379,5.6.783,6.843a1.56,1.56,0,0,0,1.185.5,3.493,3.493,0,0,0,1.439-.38,82.9,82.9,0,0,0,15.261-23.7,145.972,145.972,0,0,0,9.184-29.411,205.966,205.966,0,0,0,3.935-31.085,203.74,203.74,0,0,0-.484-28.724c-3.672.089-7.318.133-10.838.133-11.8,0-23.185-.5-33.836-1.492a279.328,279.328,0,0,1-33.331-5.066,222.262,222.262,0,0,1-32.2-9.523A189.58,189.58,0,0,1,694.56,666c-3.322,15.767-9.833,30.81-16.13,45.357-4.019,9.286-8.174,18.884-11.43,28.528,15.334-3.38,27.25-17.379,36.884-30.626l.274-.417c.445-.686.889-1.4,1.359-2.149a46.726,46.726,0,0,1,5.5-7.625c2.416-2.5,4.88-3.721,7.534-3.721a10.969,10.969,0,0,1,4.711,1.176c4.881,2.836,7.443,8.276,7.833,16.632.339,7.264-1.006,15.682-2.192,23.109a112.943,112.943,0,0,0-1.7,14.018c-1.293,13.654-4.809,26.943-8.209,39.794-1.557,5.885-3.166,11.969-4.548,18.028,8.547-5.842,12.486-15.936,16.294-25.7,1.261-3.232,2.453-6.286,3.808-9.206l21.247-50.98C757.9,719.33,759.706,717.864,761.152,717.863ZM1127.829,763c-.207.658-.458,1.349-.66,1.9l.063.013c.115.023.245.05.367.083C1127.7,764.233,1127.776,763.6,1127.829,763ZM604,548.719c.162,4.366.336,8.813.505,13.113l0,.123v.016c.864,21.985,1.758,44.718,1.309,67a316.58,316.58,0,0,1,33.753,4.486,232.015,232.015,0,0,1,26.5,6.645c15.757,4.976,28.282,10.907,40.395,16.642l.008,0c6.978,3.3,13.568,6.425,20.767,9.4a192.261,192.261,0,0,0,23.5,8.073,206.253,206.253,0,0,0,29.442,5.648,318.453,318.453,0,0,0,38.6,2.127h.017c5.64,0,11.589-.115,17.683-.342,3.922-2.628,7.554-8.567,10.8-17.653a180.433,180.433,0,0,0,7.222-29.4c3.727-21.713,5.007-44.155,4.319-54.247.5-11.274-3.643-20.585-12.308-27.675a53.013,53.013,0,0,0-13.46-7.793,86.894,86.894,0,0,0-15.529-4.619,6.641,6.641,0,0,1-3.484.932,11.392,11.392,0,0,1-6.8-2.621,10.434,10.434,0,0,1-3.924-5.747,5.029,5.029,0,0,1,.535-3.635,7.424,7.424,0,0,1,3.668-2.929,133.409,133.409,0,0,0,41.391-20.859,128.207,128.207,0,0,0-15.065-2.6A134.921,134.921,0,0,0,818.966,502a157.438,157.438,0,0,0-24.844,2.044,224.689,224.689,0,0,0-24.5,5.392c-16.248,4.464-32.636,10.524-48.485,16.385l-.328.121c-15.879,5.872-32.3,11.943-48.816,16.461a227.237,227.237,0,0,1-24.791,5.425,160.886,160.886,0,0,1-25.219,2.058A137.884,137.884,0,0,1,604,548.719ZM222.619,68a272.181,272.181,0,0,0-44.853,8.313,281.693,281.693,0,0,0-43.02,15.621,145.409,145.409,0,0,0-18.225,6.587,133.4,133.4,0,0,0-16.256,8.533,129.739,129.739,0,0,0-26.96,22.2,146.254,146.254,0,0,0-20.149,27.885A184.981,184.981,0,0,0,39.106,189.3c-7.047,21.22-11.3,45.3-12.646,71.564-.606,11.846-.612,24.159-.018,36.6C27,309.135,28.088,321,29.679,332.732a458.539,458.539,0,0,0,6.688,51.484A395.27,395.27,0,0,0,49.21,434.2a345.1,345.1,0,0,0,19.665,47.56A312.47,312.47,0,0,0,96.033,525.97a331.641,331.641,0,0,0,28.007,36.961A286.941,286.941,0,0,0,154.6,592.946a268.735,268.735,0,0,0,32.863,23.69,273.677,273.677,0,0,0,34.907,17.988,301.427,301.427,0,0,0,36.693,12.908,354.148,354.148,0,0,0,38.224,8.45c12.526,2.07,25.815,3.622,39.5,4.614,12.814.929,26.445,1.4,40.516,1.4,13.877,0,28.17-.434,43.694-1.328,13.818-.8,28.29-1.937,44.243-3.492,29.618-2.887,59.768-6.773,88.925-10.532l.531-.068,8.167-1.052c2.867-2,6.566-2.416,10.482-2.861,4.483-.509,9.117-1.035,12.376-4.144a5.933,5.933,0,0,1-1.682-.887,16.962,16.962,0,0,0,5.8-10.43l1.249.124c.755-16.1.672-32.271.591-47.906v-.017c-.05-9.744-.1-19.819.05-29.773-28.841-7.911-59.285-13.971-88.726-19.833l-.011,0c-28.778-5.729-58.536-11.653-87.031-19.334a9.8,9.8,0,0,1-5.79,1.807c-3.633,0-7.332-1.687-10.909-3.319-1.335-.609-2.6-1.184-3.837-1.666-16.238-6.908-33.149-13.7-50.264-20.175l-4.224-1.592c-12.328-4.621-23.093-8.8-32.912-12.77l-4.084-1.663c-1.1-.45-2.483-1.108-4.082-1.869-5.453-2.594-12.92-6.147-18.832-6.147a8.77,8.77,0,0,0-5.922,1.907l.55,1.185c2.937,6.41,12.207,27.811,8.176,34.092a3.844,3.844,0,0,1-3.47,1.739,11.261,11.261,0,0,1-3.858-.838,17.424,17.424,0,0,1-4.686-5.728,66.167,66.167,0,0,1-4.254-9.392c-2.72-7.2-5.272-16.112-7.74-24.73l0-.006c-2.706-9.45-5.5-19.217-8.452-26.4a39.358,39.358,0,0,0-4.614-8.712c-1.7-2.24-3.374-3.366-5.113-3.442-5.281,14.14-8.192,27.016-8.9,39.363a4.524,4.524,0,0,1-1.416,2.8,4.131,4.131,0,0,1-2.775,1.208,3.225,3.225,0,0,1-2.5-1.233,26.531,26.531,0,0,1-4.913-10.276,29.016,29.016,0,0,1-.349-10.5c.952-7.059,3.991-14.359,6.93-21.418,3.48-8.359,7.079-17,7.323-25.422a87.725,87.725,0,0,0-.287-13.613,120.908,120.908,0,0,0-2.083-13.377c-1.853-8.852-4.544-17.733-7.147-26.321l0-.009c-2.282-7.529-4.64-15.312-6.413-23.014l-.357-1.742c-.577-2.771-1.193-5.575-1.845-8.542-1.593-7.248-3.24-14.742-4.357-22.019-1.268-8.259-1.63-14.928-1.106-20.388l3.386,12.757c3.087,11.594,6.727,25.057,10.871,38.118,2.107,6.684,4.622,13.539,7.054,20.169l0,.006c4.551,12.408,9.257,25.237,11.786,38.11a94.622,94.622,0,0,1,1.924,19.446,71.422,71.422,0,0,1-2.909,19.723,16.973,16.973,0,0,1,9.409,3.166,26.1,26.1,0,0,1,6.841,7.6c3.874,6.148,6.49,13.919,9.02,21.433a107,107,0,0,0,5.539,14.339,8.933,8.933,0,0,1,4.6-2.908,25.172,25.172,0,0,1,7.265-.9,88.832,88.832,0,0,1,18.55,2.525c6.458,1.446,14.068,3.559,22.618,6.28,15.73,5.007,31.817,11.13,44.743,16.05,8.443,3.214,15.111,5.752,19.108,6.995l3.754-4.26c10.386-11.78,20.538-23.21,30.553-33.557,11.026-11.392,20.433-19.984,29.6-27.04,10.537-8.107,20.6-14.009,30.768-18.043a93.931,93.931,0,0,1,16.481-4.872,91.35,91.35,0,0,1,17.565-1.693c22.256,0,46.618,7.839,74.479,23.966a341,341,0,0,1-9.128-36.866c-2.251-11.7-4.084-23.993-5.6-37.577-2.82-25.216-4.087-51.011-5.311-75.957l-.02-.407c-.2-4.1-.409-8.334-.621-12.487.293-3.192-.077-8.08-.468-13.255a139.972,139.972,0,0,1-.6-18.133c.4-6.415,1.87-10.386,4.487-12.139a16.594,16.594,0,0,1,4.253,1.251v5.391a168.222,168.222,0,0,0,.826,18.287c.789,7.172,2.162,11.682,4.079,13.4l2.009,20.677c2.511,25.661,5.321,53.006,9.593,80.384,2.223,14.242,4.64,27.238,7.392,39.73,3.055,13.871,6.422,26.689,10.294,39.189,9.358,5.233,18.875,11,28.286,17.127,8.933,5.82,18.065,12.163,27.142,18.854,16.6,12.236,33.392,25.86,51.336,41.652l3.767-1.375,3.808-1.4.162-.06c27.757-10.191,59.218-21.741,89.344-21.741a103.646,103.646,0,0,1,19.585,1.8A86.682,86.682,0,0,1,858,497.919a55.556,55.556,0,0,0-3.355-15.388,73.764,73.764,0,0,0-7.089-14.168c-7-1.737-12.182-7.617-17.193-13.3-1.789-2.031-3.478-3.948-5.242-5.679-7.459-8.015-15.114-16.1-22.516-23.919l-.058-.061-.01-.01c-13.889-14.67-28.251-29.838-41.924-45.18-7.231-7.781-14.285-16.116-21.566-25.482-6.489-8.347-13.01-17.327-19.936-27.452-12.865-18.807-25.216-38.831-37.16-58.2l-.011-.017c-11.811-19.148-24.023-38.949-36.755-57.612-6.853-10.046-13.3-18.965-19.716-27.268-7.2-9.32-14.171-17.631-21.312-25.408a294.5,294.5,0,0,0-23.437-22.92,240.377,240.377,0,0,0-26.089-19.806,212.449,212.449,0,0,0-62.249-27.762,79.964,79.964,0,0,1-12.235,34.632,80.235,80.235,0,0,1-24.389,23.727,110.566,110.566,0,0,1-32.523,13.638,150.417,150.417,0,0,1-36.637,4.365,166.842,166.842,0,0,1-32.941-3.279,145.176,145.176,0,0,1-30.148-9.451l-2.278-.873c-10.7-4.13-19.973-8.166-28.355-12.34a190.324,190.324,0,0,1-27-16.077,133.056,133.056,0,0,1-12-9.749,106.063,106.063,0,0,1-10.464-11.053,88.591,88.591,0,0,1-8.535-12.481,80.061,80.061,0,0,1-6.208-14.032l-.544-1.147C226.829,71.467,225.22,68.539,222.619,68ZM852.974,516h0a154.162,154.162,0,0,1-30.841,17.067A7.281,7.281,0,0,1,821,536.656a84.314,84.314,0,0,1,21.324,4.167,52.166,52.166,0,0,1,9.713,4.515,41.2,41.2,0,0,1,8.4,6.66c.47-3.686.963-7.612,1.337-11.527a34.9,34.9,0,0,0-1.038-13.8A20.179,20.179,0,0,0,852.974,516ZM417,505a3.544,3.544,0,0,1,.47,1.139c2.5.266,5.036.556,7.53.861ZM41,438h0c.421,2.806.837,5.749,1.27,9l.4,3,.061-.262a4.66,4.66,0,0,1,1.1-2l.173-.175C42.96,444.4,41.951,441.179,41,438ZM493,83c.1.864.166,1.829.2,2.949,1.113,0,2.435.007,3.8.05A20.529,20.529,0,0,1,493,83ZM46.71,833h0a1.538,1.538,0,0,1-1.682-1.514c-.222-1.757.882-5.067,3.283-9.838,2.213-4.4,5.539-10.063,9.884-16.835,9.89-15.415,22.547-32.736,31.424-44.553,11.486-15.29,23.655-30.678,33.389-42.219,10.258-12.163,17.027-19.149,19.06-19.671a8.554,8.554,0,0,1,2.21-.372c.835,0,1.373.256,1.6.761,1.52,3.4-10.9,17.291-19.12,26.485l0,0-.01.012a89.145,89.145,0,0,0-6.518,7.662C97.53,759.717,76.56,788.2,55.292,817.468l-6.334,8.726c-.566.823-3.362,4.987-2.78,6.093a.559.559,0,0,0,.543.273,1.9,1.9,0,0,0,.467-.069.274.274,0,0,1,.07-.01.223.223,0,0,1,.215.165.253.253,0,0,1-.1.289A3.876,3.876,0,0,1,46.71,833Zm.522-70h0c-.316-.234-.307-.867.027-1.88,2.15-6.527,17.833-28.76,35.7-50.617,9.326-11.406,17.972-21.144,25-28.162a100.386,100.386,0,0,1,10.024-8.979c2.972-2.231,5.242-3.362,6.747-3.362a1.943,1.943,0,0,1,1.566.665c.753.9.895,2.722.422,5.425-11.642,13.777-24.375,26.98-36.69,39.749l0,0c-14.5,15.032-29.485,30.575-42.8,47.156Zm178.25-165a5.7,5.7,0,0,1-3.937-1.623,38.9,38.9,0,0,1-6.77-10.678,36.07,36.07,0,0,1-2.67-11.285c-.522-7.122.92-14.918,4.287-23.172A104.026,104.026,0,0,1,229.057,529.3a166.25,166.25,0,0,1,15.693-18.261.124.124,0,0,1,.094-.042.167.167,0,0,1,.142.088.119.119,0,0,1-.008.129,132.527,132.527,0,0,0-12.058,17.772,85.563,85.563,0,0,0-8.18,19.67c-3.98,15.054-1.994,28.728,5.9,40.645a5.981,5.981,0,0,1,.773,3.044,5.545,5.545,0,0,1-.783,2.675A6.123,6.123,0,0,1,225.482,598Zm-97.326-79a7.581,7.581,0,0,1-6.249-3.247,25.185,25.185,0,0,1-2.636-7.795,23.1,23.1,0,0,1,.089-7.57c.816-4.66,2.976-9.382,6.6-14.437A92.264,92.264,0,0,1,138.218,472.5c4.638-4.31,9.6-8.421,14.408-12.4l.006-.005c6.815-5.64,13.253-10.968,17.462-15.85a86.315,86.315,0,0,1,7.588-6.881c6.125-5.132,12.457-10.439,14.243-18.375l.112-.528a.531.531,0,0,1,.532-.466.434.434,0,0,1,.318.126.451.451,0,0,1,.112.34c-.3,7.01-4.878,12.2-9.308,17.224l-.042.047c-.5.57-1.023,1.16-1.523,1.738-7.3,8.436-14.34,16.567-21.519,24.855-2.033,2.447-4.181,4.842-6.456,7.379l-.018.02c-5.447,6.073-11.08,12.353-14.935,19.282a38.317,38.317,0,0,0-4.206,10.935,30.892,30.892,0,0,0-.078,12.249,6.61,6.61,0,0,1-1.824,4.847A6.948,6.948,0,0,1,128.156,519Zm578.819-90a2.036,2.036,0,0,1-1.881-1.459,1.958,1.958,0,0,1,.837-2.254c8.407-5.934,16.82-12.115,24.956-18.092l.246-.181A2.494,2.494,0,0,1,731.4,407c.326,0,.522.086.582.257.494,1.4-8.14,8.33-15.078,13.893-4.3,3.45-8.017,6.43-8.546,7.282A2.116,2.116,0,0,1,706.975,429Zm-69.318-51a.711.711,0,0,1-.622-.486.507.507,0,0,1,.162-.6l1.6-1.268c1.438-1.143,2.888-2.306,4.289-3.431,10.806-8.673,21.98-17.641,34.943-22.95a3.43,3.43,0,0,1,1.3-.269,3.232,3.232,0,0,1,2.288.992,4.749,4.749,0,0,1,1.255,2.292,3.551,3.551,0,0,1-1.783,4.195c-4.646,2.273-9.44,4.361-14.077,6.38-9.828,4.28-19.989,8.705-29.058,15.041A.522.522,0,0,1,637.657,378ZM133.989,322c-4.072,0-13.579-6.215-20.521-10.754-3.854-2.52-6.9-4.51-8.05-4.84-5.945-3.687-13.123-6.435-20.722-9.344-9.145-3.5-18.6-7.122-25.838-12.547a32.793,32.793,0,0,1-8.937-9.729,28.145,28.145,0,0,1-2.7-6.3A32.745,32.745,0,0,1,46,261c1.771,8.343,7.084,14.962,16.245,20.236,7.932,4.566,17.485,7.418,25.913,9.934l.779.233,5.309,2.023A189.061,189.061,0,0,1,116.5,303.2a68.882,68.882,0,0,1,19.1,14.572c.523,1.693.537,2.891.043,3.561A1.922,1.922,0,0,1,133.989,322Z" transform="translate(275)"></path></g><g transform="translate(225 0)"><g><g id="head_Medium_Bangs_3" data-name="head/Medium Bangs 3"><path id="_Skin" data-name="âœ‹ Skin" d="M229.6.587c56.781,0,127.9,64.771,148.71,92.333,17.5,23.173,15.024,142.554,15.024,213.371,0,14.811-6.7,42.842-9.126,57.01C375.3,415.216,336.5,458.755,259.7,458.755c-62.532,0-110.655-19.807-157.19-70.465-10.617-11.557-62.465,29.817-73.069,14.917-27.7,0-50.856-258.778,3.523-336.4S172.82.587,229.6.587Z" transform="translate(26.975 38.391)" fill="#d08b5b"></path><path id="_Ink" data-name="ðŸ– Ink" d="M134.9,539.708a11.525,11.525,0,0,1-6.328-1.894,8.35,8.35,0,0,1-3.711-5.219c-.49-2.315-1.036-4.633-1.62-6.89-1.088-4.228-2.342-8.433-3.727-12.5l-.533-1.54c-.562-1.605-1.113-3.239-1.646-4.818l-.006-.018c-.6-1.771-1.215-3.6-1.848-5.394l-.12-.389c-.049-.168-.1-.347-.15-.532l-2.03,4.431-6.17,13.37a5.686,5.686,0,0,1-2.189,2.541,5.6,5.6,0,0,1-2.917.785,7.688,7.688,0,0,1-4.852-1.836,6.585,6.585,0,0,1-2.445-4.654l-.008-.206c-.035-1.3-.079-2.351-.139-3.3a107.2,107.2,0,0,0-4.09-23.88l-.808,1c-7.268,8.986-13.628,15.474-20.013,20.419a66.185,66.185,0,0,1-11.923,7.44,53.093,53.093,0,0,1-13.6,4.4,6.353,6.353,0,0,1-1.105.1,7.376,7.376,0,0,1-6.319-3.7,5.159,5.159,0,0,1,.4-5.522c1.391-2.045,2.726-4.138,3.97-6.22-1.092-.511-2.125-1.043-3.07-1.58a61.2,61.2,0,0,1-18.53-16.68,65.257,65.257,0,0,1-6.818-11.228A78.867,78.867,0,0,1,7.95,463.965a115.381,115.381,0,0,1-4.084-25.91c-1.062-19.559.892-38.778,5.65-55.58a140.424,140.424,0,0,1,8.54-22.2c-.221-.588-.436-1.186-.644-1.764l0-.007-.053-.148a293.4,293.4,0,0,1-9.21-31.361,305.355,305.355,0,0,1-8.11-65.53A316.223,316.223,0,0,1,4.7,202.337,299.854,299.854,0,0,1,20.567,145.2,306.07,306.07,0,0,1,48.433,90.316,238.871,238.871,0,0,1,87.917,43.2a159.613,159.613,0,0,1,25.519-18.91,167.471,167.471,0,0,1,28.444-13.5,177.47,177.47,0,0,1,30.481-8.1A186.143,186.143,0,0,1,203.99,0c1.507,0,3.037.018,4.546.055A215.622,215.622,0,0,1,242.6,3.642,230.909,230.909,0,0,1,275.707,12.4a201.882,201.882,0,0,1,31.23,14.14,78,78,0,0,1,10.113,6.78l.8.62h.01c7.648,2.748,15.223,7.681,23.16,15.08,3.188-.255,6.39-.383,9.514-.383A104.715,104.715,0,0,1,382.4,53.455a106.983,106.983,0,0,1,26.566,12.651,91.58,91.58,0,0,1,21.654,19.829,80.46,80.46,0,0,1,14.55,29.653,101.893,101.893,0,0,1,2.657,33.078l-.311,3.85c-.82,9.876-1.951,21.311-5,32.045a67.248,67.248,0,0,1-6.085,14.95,41.543,41.543,0,0,1-9.993,11.944,12.768,12.768,0,0,1-4.06,2.219,246.487,246.487,0,0,1,14.261,28.485A215.652,215.652,0,0,1,446.856,272.3a286.577,286.577,0,0,1,5.85,29.271c1.4,9.57,2.368,19.486,2.869,29.472.482,9.6.548,19.547.2,29.563-.335,9.591-1.063,19.53-2.162,29.542-1.047,9.539-2.464,19.434-4.211,29.41-1.654,9.445-3.656,19.259-5.95,29.168-4.192,18.106-9.384,36.8-15.874,57.163A10.283,10.283,0,0,1,423.7,511a10.64,10.64,0,0,1-6.1,2.082,7.48,7.48,0,0,1-6.061-2.955,60.654,60.654,0,0,0-7.044-7.541,56.348,56.348,0,0,0-8.268-6.194,46.836,46.836,0,0,0-19.348-6.8,82.5,82.5,0,0,0-8.251-.364,76.133,76.133,0,0,1-8.547-.41,26.561,26.561,0,0,1-8.342-2.336,22.851,22.851,0,0,1-8.429-7.07,109.961,109.961,0,0,1-18.965,5.3,108.315,108.315,0,0,1-19.6,1.8c-1.442,0-2.9-.03-4.334-.089a117.476,117.476,0,0,1-18.074-2.144,105.362,105.362,0,0,1-17.684-5.124,87.536,87.536,0,0,1-16.285-8.345,72.381,72.381,0,0,1-13.877-11.808,11.133,11.133,0,0,1-2.569-4.556,9.79,9.79,0,0,1-.133-4.582,35.292,35.292,0,0,1,6.363-1.627,162.364,162.364,0,0,0,32.839,14.929,132.223,132.223,0,0,0,17.522,4.322,121.539,121.539,0,0,0,18.205,1.774c.887.018,1.767.028,2.615.028a77.839,77.839,0,0,0,19.518-2.182,51.831,51.831,0,0,0,9.137-3.266,46.368,46.368,0,0,0,8.515-5.194,56.8,56.8,0,0,0,6.939-6.363A102.311,102.311,0,0,0,370.226,438.7a118.179,118.179,0,0,0,13.941-16.813A133.437,133.437,0,0,0,395.09,402.68a142.215,142.215,0,0,0,7.736-20.755,161.685,161.685,0,0,0,5.825-40.26,323.389,323.389,0,0,0-1.795-40.77l-1.372-14.3c-1.924-20.191-3.846-41.7-4.375-63.12l.158-.008a4.1,4.1,0,0,0,3.845-4.409,3.467,3.467,0,0,0-3.537-3.6c-.1,0-.2,0-.308.01-2.14.139-4.375.206-6.833.206-4.275,0-8.608-.209-12.8-.411s-8.518-.412-12.787-.412c-2.673,0-5.092.08-7.4.246-.1-5.6-.461-12.191-2.408-18.58a3.814,3.814,0,0,0-1.657-2.105,4.879,4.879,0,0,0-2.584-.75,3.294,3.294,0,0,0-3.472,2.856,121.177,121.177,0,0,0-1.259,16.614c-7.424-.1-14.969-.4-22.266-.689H327.8c-8.947-.356-18.2-.724-27.3-.724-3.547,0-6.827.054-10.026.164-2.726-2.908-4.086-7.542-5.286-11.629-.423-1.441-.822-2.8-1.261-4.037-.268-.761-.517-1.454-.76-2.119a113.788,113.788,0,0,1-6.453,20.232l-4.874.016c-12.382.058-27.018.251-41.683,1.245a292.107,292.107,0,0,0-41.195,5.455,9.623,9.623,0,0,1-3.3-6.238c-1.074-8.148-2.295-15.344-3.731-22a178.3,178.3,0,0,0-5.978-21.475l-.708-2q-.088-.248-.184-.527a108.332,108.332,0,0,1-12.758,16.5c-2.584,2.783-5.446,5.629-8.749,8.7-1.438,1.6-2.924,3.208-4.361,4.766l-.008.008c-1.486,1.611-3.023,3.278-4.516,4.937.119.612.218,1.221.3,1.808a89.756,89.756,0,0,1,.333,20.416,97.762,97.762,0,0,1-10.221,35.051l-.176,1.1a58.343,58.343,0,0,1-1.693,7.621,22.48,22.48,0,0,1-3.166,6.671,37.1,37.1,0,0,1,4.614,6.434,36.238,36.238,0,0,1,3.159,7.4,4.572,4.572,0,0,1-.774,4.123,5.523,5.523,0,0,1-4.317,2.251,4.246,4.246,0,0,1-3.267-1.509,38.945,38.945,0,0,0-8.812-7.506.706.706,0,0,1-.569.3.849.849,0,0,1-.416-.118c-3.647-2.024-8.531-3.094-14.124-3.094a43.207,43.207,0,0,0-19.117,4.315,25.928,25.928,0,0,0-7.119,5.44,26.489,26.489,0,0,0-4.679,7.184,34.259,34.259,0,0,0-2.491,17.356,55.528,55.528,0,0,0,4.812,17.688,37.346,37.346,0,0,0,4.8,7.7,25.633,25.633,0,0,0,6.507,5.742,14.542,14.542,0,0,0,7.794,2.423,18.972,18.972,0,0,0,5.046-.774,14.7,14.7,0,0,0,4.254-2.33l.8-.644a23.919,23.919,0,0,1,4.683-3.036,12.348,12.348,0,0,1,5.109-1.22,8.1,8.1,0,0,1,2.412-.377,6.9,6.9,0,0,1,3.992,1.235,7.432,7.432,0,0,1,2.667,3.585l.089.257c.122.363.258.735.4,1.129a14.873,14.873,0,0,1,1.247,6.551,14.655,14.655,0,0,1-4.071,8.771c-.4.436-.821.85-1.239,1.23,18.534,20.065,30.365,46.563,34.216,76.628a173.68,173.68,0,0,1,.05,43,177.862,177.862,0,0,1-10.2,41.539c-.824,2.2-1.73,4.447-2.77,6.88a7.464,7.464,0,0,1-3.231,3.626A9.373,9.373,0,0,1,134.9,539.708ZM66.208,386.081h0a4.5,4.5,0,0,0-3.81,2.161,3.456,3.456,0,0,0,.094,3.587l.095.154c3.6,5.677,5.642,12.119,7.614,18.348.368,1.162.784,2.478,1.195,3.732a3.871,3.871,0,0,0,3.828,2.771,4.317,4.317,0,0,0,3.477-1.657,3.455,3.455,0,0,0,.405-3.245l-.533-1.643c-.243-.757-.49-1.531-.707-2.214-2.179-6.846-4.431-13.924-8.38-20.133a3.8,3.8,0,0,0-3.278-1.863Zm29.6-294.907a3.984,3.984,0,0,0-2.655,1.051c-13.592,12.011-20.363,29.315-26.912,46.049-1.907,4.873-3.878,9.911-5.968,14.66a4.123,4.123,0,0,0,.324,4.027,4.531,4.531,0,0,0,3.638,2.1,3.156,3.156,0,0,0,2.948-2.091c2.085-4.739,4.044-9.81,5.939-14.713,6.157-15.936,12.523-32.412,25.109-43.855l.581-.521a3.383,3.383,0,0,0,1.062-3.872A4.5,4.5,0,0,0,95.811,91.173Zm212.4.027h0a4.246,4.246,0,0,0-2.757,1.062,4.641,4.641,0,0,0-1.5,2.418,3.184,3.184,0,0,0,1.813,3.744l.165.079a36.912,36.912,0,0,1,9.989,6.652,48.693,48.693,0,0,1,7.517,8.984c4.359,6.568,7.587,14.1,10.709,21.381l.305.713a3.117,3.117,0,0,0,2.923,2.1,4.539,4.539,0,0,0,3.628-2.093,4.157,4.157,0,0,0,.359-4.037l-1.144-2.652c-3.031-6.978-6.68-15.007-11.636-21.99-5.31-7.481-11.4-12.7-18.61-15.968a4.28,4.28,0,0,0-1.765-.393Zm24.809-9.466a3.205,3.205,0,0,0-2.331.987,4.324,4.324,0,0,0-1.133,2.3,4.416,4.416,0,0,0,.386,2.731,3.971,3.971,0,0,0,2.294,1.943,48.387,48.387,0,0,1,17.02,10.381,84.5,84.5,0,0,1,12.85,15.429,3.909,3.909,0,0,0,3.31,1.806,4.537,4.537,0,0,0,3.894-2.247,3.377,3.377,0,0,0-.3-3.6,94.047,94.047,0,0,0-14.92-17.678,57.4,57.4,0,0,0-19.72-11.813,4.122,4.122,0,0,0-1.346-.24ZM116.9,330.682a11.216,11.216,0,0,1-2.27-.237c-5.318-1.1-7.576-5-9.967-9.126-.7-1.211-1.427-2.462-2.236-3.641l-.6-.866q-.229-.332-.467-.68l-.033-.049c-2.056-3-4.614-6.73-7.9-7.849a1.223,1.223,0,0,1-.785-1.071.9.9,0,0,1,.525-.9l1.805-.874c3.485-1.663,7.233-3.287,11.371-3.287a17.943,17.943,0,0,1,6.044,1.091,25.751,25.751,0,0,1,8.272,4.9,18.953,18.953,0,0,1,5.489,7.71,11.967,11.967,0,0,1,.667,5.12,12.215,12.215,0,0,1-1.859,5.32,9.23,9.23,0,0,1-3.488,3.32A9.508,9.508,0,0,1,116.9,330.682Z" transform="translate(-2 14)"></path></g></g><g transform="translate(159 186)"><g><path d="M140.63 0.473197L139.193 0.179116C137.503 -0.15929 135.804 -0.0161244 134.311 0.591153C132.847 1.18684 131.572 2.2242 130.68 3.72083C129.495 5.71373 129.337 7.38618 129.887 9.59525C130.311 11.3022 131.242 12.5864 132.46 13.5139C133.744 14.4911 135.37 15.0612 137.06 15.2595C144.854 16.175 152.53 17.8896 159.992 20.3235C163.488 21.4643 166.788 23.0096 170.058 24.6132L172.877 26.002C175.477 27.2735 178.163 28.499 181.557 29.3885C181.824 29.4584 182.087 29.5243 182.349 29.5865C183.29 29.2909 183.45 28.9329 183.649 28.6733L183.73 28.5721C183.972 28.2679 184.271 27.8025 183.988 25.6306C176.583 10.2711 156.267 3.74181 140.63 0.473197ZM43.5878 4.83023L45.4652 4.50163C51.273 3.49719 58.4944 2.53203 62.6028 7.20123C64.7819 9.67723 65.5318 14.2792 62.6028 16.6492C58.7671 19.7539 54.6298 19.6513 50.2182 19.5419C48.7043 19.5044 47.1582 19.466 45.5808 19.5562C40.4928 19.8482 35.6028 20.6902 30.7018 22.0912C19.9498 25.1642 11.1888 30.7742 2.00585 36.9342C0.800849 37.7422 -0.429151 36.2012 0.145849 35.0742C5.44685 24.6912 15.7198 16.1622 26.0098 10.9632C31.5019 8.18823 37.5118 5.88623 43.5878 4.83023ZM29.9632 50.1461C30.7976 39.7899 46.5702 37.4381 48.1392 47.6861C49.5442 56.8661 47.8902 65.2991 43.7552 73.5641C39.8042 81.4601 29.8737 77.7763 29.1227 70.5863C28.3809 63.4843 28.9069 59.2482 29.4428 54.933C29.6341 53.3921 29.8267 51.8412 29.9632 50.1461ZM159.205 41.8262C155.401 40.7152 152.226 42.6812 150.027 45.5612C149.773 45.8932 149.566 46.2222 149.38 46.5482C142.515 52.8562 145.101 65.6452 150.501 72.0492C153.814 75.9762 161.145 74.8452 163.413 70.3852C167.587 62.1722 171.09 45.2992 159.205 41.8262ZM128.748 119.039C136.872 107.66 125.366 96.9569 117.814 92.3669C115.836 90.9469 117.406 86.2431 121.634 86.9701C160.031 93.5671 140.136 159.708 91.112 123.413C85.2754 118.704 92.3434 108.334 98.6342 112.366C98.9532 112.611 99.2876 112.869 99.6364 113.139C106.704 118.603 119.636 128.601 128.748 119.039ZM93.5865 188.926C86.8642 186.184 80.8663 181.61 76.4812 175.766C74.9566 173.735 74.5614 171.589 74.8812 169.627C75.2408 167.421 76.546 165.422 78.326 164.08C80.1115 162.735 82.345 162.072 84.5043 162.41C86.3806 162.704 88.2484 163.731 89.7265 165.862L90.0354 166.288C92.6424 169.815 96.0396 172.708 99.9104 174.574C103.641 176.372 107.814 177.211 112.132 176.723C120.356 175.794 126.024 171.346 132.049 165.306C132.796 164.544 133.543 163.757 134.294 162.958C134.768 162.234 135.426 161.768 136.157 161.524C136.968 161.253 137.886 161.268 138.726 161.562C139.537 161.845 140.262 162.381 140.747 163.094C141.209 163.772 141.471 164.61 141.386 165.574C140.835 171.833 137.562 177.419 132.914 181.805C127.752 186.677 120.909 190.047 114.466 191.229C107.368 192.531 100.136 191.598 93.5865 188.926Z" transform="translate(53.00005 52.00027)" fill-rule="evenodd" stroke="none"></path></g></g><g transform="translate(123 338)"></g><g transform="translate(47 241)"><g><path d="M375.513 33.9959C378.273 31.6829 383.089 31.1349 386.423 31.1279C394.028 32.5829 390.88 44.1729 376.385 36.9629C398.166 128.052 258.709 131.937 282.237 45.3469C268.157 41.9599 253.29 41.6839 240.365 48.1139C251.522 87.8139 214.401 125.982 171.734 116.181C144.179 109.783 125.789 88.4229 134.308 57.0269C128.899 58.7229 118.76 57.3109 115.622 53.0899C104.775 52.1634 93.9913 50.8415 83.2204 49.5212C59.091 46.5633 35.0273 43.6135 10.4674 45.1359C7.12749 45.5983 7.31436 47.952 7.50111 50.304C7.68714 52.6469 7.87304 54.9883 4.57241 55.4569C-3.01759 54.7649 -0.0355915 41.9389 5.39841 39.8539C13.0234 34.3889 78.5984 39.8119 116.105 49.6479C121.083 46.3825 128.583 47.3802 134.493 48.1664C135.445 48.2929 136.355 48.414 137.206 48.5109C144.594 30.0029 168.272 6.93191 192.028 10.8229C213.793 12.0919 232.079 20.6889 239.509 45.2399C250.854 34.9489 271.426 31.6259 284.509 39.4079C291.765 23.0939 304.532 10.8229 321.737 5.28991C343.585 -10.2001 368.707 11.0429 375.513 33.9959ZM358.311 87.4579C346.17 100.003 325.902 103.603 309.749 96.8749C268.273 79.5459 288.574 25.4959 320.561 10.9809C324.557 9.98491 329.894 7.62191 334.761 7.08591C334.928 7.0043 335.168 7.04274 335.465 7.09029C335.954 7.1686 336.598 7.27161 337.32 6.90391C372.591 10.8419 380.623 65.5939 358.311 87.4579ZM164.916 105.906C185.6 114.302 210.916 108.73 224.533 90.6689C249.948 57.3679 225.561 0.903908 166.504 23.0949C138.547 41.8849 124.054 89.8139 164.916 105.906ZM135.953 50.6509C135.915 50.6329 135.877 50.6239 135.838 50.6059C136.054 50.5109 136.27 50.4159 136.485 50.3189C136.415 50.5019 136.339 50.6829 136.271 50.8659C136.165 50.7929 136.072 50.7079 135.953 50.6509Z" transform="translate(13.99969 7.999794)" fill-rule="evenodd" stroke="none"></path></g></g></g></g></svg>