<?xml version="1.0" standalone="no"?>
<svg viewBox="-1300 -200 3350 3350" style="width: 487.5px; height: 487.5px; justify-content: center; align-self: center; transform: scale(-1, 1);" xmlns="http://www.w3.org/2000/svg" width="609" height="609"><rect x="-1300" y="-200" width="100%" height="100%" fill="#f9858b" rx="30"></rect><g transform="rotate(0 347.2816162109375 1494.3038902282715)"><g transform="translate(-276 479)"><path id="_Skin" data-name="âœ‹ Skin" d="M1038.919,1040.628c26.336.592,15.043-245.636-2.543-291.009-2.463-9.2-4.5-21.76-4.087-33.043,21.751,2.179,19.41-12.739,18.287-30.728.369-14.284,1.36-43.755-20.457-32.28-65.406-131.211,5.314-470.39-166.9-502.336-20.751-5.05-42.2-10.276-59.671-24.693-18.487-34.243-27.9-38.616-58.536-40.831-5.672-30.845-16.275-63.8-47.872-75.8-28.929-11.359-62.6-12.265-92.763-6.2-24.967,8.16-27.251,54.663-32.8,77.59-33.627-8.935-75.069-27.727-93.172,14.874-8.768-2.626-16.893-.922-25.8,2-74.678,12.057-147.134,45.909-174.832,116.544-17.11,42.386-4.967,88.527,1.449,132.426,5.984,47.8-9.8,92.086-17.111,138.065-10.891,63.314-12.861,114.1-5.754,161.158-18.787,4.283-20.172,21.405-12.572,39.323,2.232,6.063,4.48,12.455,9.416,15.882,10.04,6.333,23.016-.965,33.927-2.082,2.27,25.283,6.664,50.092,13.936,78.286-2.106,8.44-4.521,17.865-6.69,26.34l-.732-.8c-24.91,104.553-99,206.111-75.97,317.228,1.354,3.7,3.923,2.93,5.9,2.866,11.43,4.355,21.929,1.591,33.456,2.035,27.341.02,53.755,3.528,78.259,6.582,4.479,29.321,19.042,77.322,45.012,88.5.437.15,8.135-1.459,8.778-1.505-69.136,280.9-193.531,540.644-242.943,827.205-.293,3.5,5.386,1.646,7.249,2.072-.255,7.952,4.873,9.864,12.052,12.692-9.252,19.381-17.586,38.738-26.8,58.169-4.271,9.618-11.231,19.118-12.5,29.4-10.2,6.53-17.064,19.294-16.882,31.207-27.5,11.645-20.023,69.163-26.3,97.652-6.343,42.441-36.514,72.079-57.2,106.875-4.216,6.985-8.705,16.138-8.9,24.911C4.028,2415.232-.754,2428.393.095,2450.543c-.046,25.917,7.25,35.785,26.922,36.413,53.433,5.35,115.785,3.171,169.528-2.914,40.2-5.123,75.83-.872,66.841-49.279-1.85-11.719,1.7-27.5-5.218-36.98a181.188,181.188,0,0,1,7.418-84.579c5.594-23.484,15.046-71.993,11.13-103.511-1.811-14.577-31.507-22.6-36.735-23.307,1.663-10.972.931-30.147-4.961-37.773,10.819-1.511,13.539-4.377,15.792-16.418,5.385-19.5,6.1-40.673,19.436-57.1,23.983.309,47.887-5.79,71.857-6.532l1.193-2.759a126.084,126.084,0,0,0,41.732-7.613c2.984,1.414,6.8,2.627,8.479-1.9l8-25.083C494.7,1734.061,597.988,1436.2,698.7,1141.23c5.879-14.342,12.949-29.582,22.143-42.362,3.114,180.479,40.845,360.766,44.085,541.159,4.379,124.1,3.251,246.892,14.9,371.432,3,26.358,6.186,25.48,10.112,23.863,1.573.246,5.276,1.038,6.883,1.376-2.626,26.192-5.648,68.708-16.858,95.5-24.777,3.831-20.34,22.882-14.844,38.672-5.911,5.06-5.071,16.852-3.316,23.378-23.313.025-28.4,19.025-26.792,31.016,2.218,20.052.977,51.258,14.33,68.382,7.864,21.838,20.664,42.449,25.664,65.976,3.143,17.311,1.929,42.527,4.959,59.7-7.624,3.528-4.393,9.061-5.679,19.765-6.6,49,16.631,40.668,57.7,44.041,24.619,5.448,212.042,16.288,203.942-16.311,1.381-13.275-4.78-19.1-7.419-32.174-1.185-3.469-24.535-43.614-38.463-58.814-46.712-43.977-44.672-103.02-43.192-171.031-2.747-18.433-16.9-36.084-34.955-34.1,5.185-19.687-4.425-36.8-24.507-42.5,2.006-22.29,4.118-52.575,11.462-71.858l-6.917-7.056,9.258,1.109,3.074-7.755,3.352,8.5c15.894,0,33.827-3.532,49.052-5.193,2.432.137,1.347-3.174,1.746-4.451,14.378-2.984,15.952-10.639,13.411-28.88,3.349-296.169,1.9-589.557-2.682-886.274,22.47,1,44.381-7.208,66.463-12.681,7.845,4.933,10.068-12.635,9.15-16.427C1043.525,1077.6,1041.1,1058.45,1038.919,1040.628Z" transform="translate(98 -34.997)" fill="#d08b5b"></path><path id="_Pants" data-name="ðŸ‘– Pants" d="M680.765,0s20.584,143.694,31.327,198.956c.224,1.149,2.331,2.362,3.994,2.065l.17-.036,2.258-.559,3.766,1.412,3.152,1.176,26.731,9.865,7.347,2.733c24.982,9.333,39.312,15.157,55.548,22.727l9.756,4.582-4.938,7.266a1.046,1.046,0,0,0-.1.2l-.034.094-.021.066.288.787c4.649,12.9,5.487,24.406,4.583,44.225l-.081,1.7-.206,4.1-.159,3.212,0,.268c-.014.723-.062,1.372-.16,2.228l-.045.381-.283,2.175-.072.642c-.013.127-.023.243-.031.35l-.019.294-.007.243v.059l1.752,1.953-.2,3.145c-.669,10.327-8.236,850.988-3.066,891.631l.159,1.074.1.574.011.583a19.473,19.473,0,0,1-.517,4.668l-.145.647-.42,1.766c-.1.418-.158.714-.2.948l-.029.187-.028.239.549,1.306-.294,4.8-.047.872c-.028.559-.048,1.077-.063,1.579l-.162,7.284-9.391.557c-16.171.927-30.339,1.371-55.031,1.8l-2.9.05-27.35.431c-27.56.464-45.628,1.054-63.98,2.265l-6.061.416-2.369-2.151a1.108,1.108,0,0,0-.739-.164l-.089.024-11.424,4.549,1.247-12.9-.44-.092.859-7.164.073-.692c.454-4.615.24-9.359-.587-17.426l-.528-5.072c-.5-4.918-.735-7.921-.815-11.025l-.008-.333-.022-1.336-.361-4.983c-3.642-50.582-16.425-376.459-16.425-376.459-2.427-45.851-49.658-492.432-49.658-492.432l-.184-7.493-.077-2.648L573.9,303.5l-.917,1.578-1.166,2.026c-13.544,23.644-24.828,47.537-30.132,65.725l-.307,1.069-2.99,7.981C445.209,630.845,355.552,891.05,247.747,1220.6l-7.639,23.373-2.969,1.371c-20.3,9.375-41.5,11.231-70.594,8.321l-.962-.1-1.921-.2c-3.329-.362-6.33-.721-10.275-1.232l-2.629-.344L137.406,1250c-5.092-.676-8.422-1.093-11.762-1.463l-2.708-.291-3.934-.385-3.209-.3c-40.451-3.763-73.54-4.437-105.012-1.385l-1.241.122-7.223.741-1.763-6.687A20.311,20.311,0,0,1,0,1235.9l0-.591.009-.694.549-2.813c13.54-68.693,110.28-394.594,110.28-394.594,10.951-35.542,58.322-187.812,73.849-238.246l1.77-5.758,2.2-7.189c22.743-74.433,35-117.658,38.085-135.458l.177-1.058.046-.286.068-.282,1.864-7.838.83-1.178c2.3-3.263,3.407-7.051,4.087-13.467l.107-1.064.093-1.031,1.22-14.959,10.8,7.858.841.6c7.081,5.012,12.414,6.993,15.734,6.593l.227-.033-.008-.058,14.479-3.683,1.153,3.273.584,1.64c1.28,3.469,3.9,5.817,6.163,6.18,1.451.233,2.608-.441,3.657-3.147l.1-.268.051-.144.065-.337.166-.895c1.825-10.118,1.924-19.546.9-37.448l-.093-1.6-.452-7.5c-.729-12.5-.893-19.178-.487-26.862l.074-1.316,3.921-65.266,13.389,78.75,5.151,30.084.8,4.837.21,1.23c2.711,15.592,6.007,23.93,12.441,28.052l.337.21-.011-2.512-.035-4.956c-.021-2.514-.049-5.087-.082-7.74l-.1-6.813-.106-6.349-1.055-53.226,13.777,9.966.353.249c.591.413,1.106.747,1.542,1.006l.262.151.354-.573c7.4-12.2,8.966-25.817,5.554-41.642l-.154-.7-.151-.664c-3.09-13.335-8.962-26.671-19.442-45.891l-.48-.878-1.546-2.807-4.623-8.3-3.278-5.9-1.345-2.449c-.853-1.561-1.626-2.993-2.361-4.377l-.274-.517-5.456-10.379,10.7-1.381c6.935-.9-5.025-115.9,74.624-167.825C480.178,8.23,680.765,0,680.765,0Z" transform="translate(243.892 778.351)" fill="#ffcf77"></path><path id="_Jacket" data-name="ðŸ§¥ Jacket" d="M1.411,1054.468v0h0a199.339,199.339,0,0,1-1.4-22.215c-.063-7.238.241-14.837.9-22.584a341.675,341.675,0,0,1,7.337-45.857c6.889-30.74,17.173-61.679,27.118-91.6C43.614,847.4,51.4,823.96,57.111,801.357c1.159-4.444,2.523-9.723,3.857-15.176,5.706-16.077,16.751-56.128,20.563-71.7l.526-2.176.732.8,1.657-6.477c1.775,6.274,3.608,13.621,5.549,21.4l.006.026c3.1,12.431,6.309,25.286,9.641,35.2A1254.8,1254.8,0,0,1,121.448,898.7c.6,5.667,1.148,11.375,1.682,16.9l0,.047c.907,9.377,1.845,19.072,3,28.574-.9,4.734-.484,13.483-.046,22.745v.006c.459,9.707.934,19.745-.231,24.815a179.167,179.167,0,0,0-31.472,9.385,334.829,334.829,0,0,0-33.645,15.44c-21.4,11.194-43.025,24.992-59.327,37.857Zm824.8-35.5,0,0h0a156.88,156.88,0,0,1-22.718-7.167l-2.84-1.234c-23.462-10.227-48.565-21.039-74.821-30.915-14.77-5.556-28.387-10.217-40.474-13.855a293.52,293.52,0,0,0-37.006-8.905c-8.076-49.258-14.843-92.663-20.686-132.7-7.064-48.395-12.9-92.582-17.846-135.087-5.512-47.383-9.916-93.067-13.091-135.784-1.707-22.972-3.108-45.724-4.164-67.624-1.1-22.8-1.858-45.394-2.257-67.162l-.138-8.229c-.453-24.745-2.116-50.517-5.085-78.787-2.47-23.527-5.788-48.4-10.441-78.266l-.445-3.659c-2.023-16.687-4.216-36.081-4.647-55.066-.468-20.619,1.178-38.52,5.033-54.724a.548.548,0,0,0,.16.027A.309.309,0,0,0,575,139.7c.571-.744-.511-4.8-2.149-10.929a277.666,277.666,0,0,1-6.992-31.989c-.791-5.419-.527-11.015-.247-16.941.494-10.471,1.005-21.3-4.753-31.06a19.269,19.269,0,0,0-5.621-6.381,10.262,10.262,0,0,0-5.77-1.8c-3.233,0-6.738,1.478-10.715,4.518-1.24.948-2.347,1.907-3.235,2.677-1.233,1.069-2.125,1.841-2.51,1.841a.183.183,0,0,1-.153-.067c-.09-.113-.089-.371,0-.79.247-1.114-2.008-6.856-4.618-13.5-3.649-9.295-7.784-19.829-6.62-21.537a.518.518,0,0,1,.452-.236,1.657,1.657,0,0,1,.786.277c2.586,1.523,7.8,2.468,13.827,3.561,10.2,1.848,22.881,4.148,29.173,10.439a137.328,137.328,0,0,1,15.86,18.8,70.158,70.158,0,0,1,6.82,11.75,99.376,99.376,0,0,0,12.678,6.518,129.461,129.461,0,0,0,21.27,9.467c7.684,2.75,16.024,5.258,24.09,7.684,15.209,4.574,30.932,9.3,44.525,16.185A88.6,88.6,0,0,1,709.66,110.4a64.275,64.275,0,0,1,7.576,7.822,58.47,58.47,0,0,1,6.144,9.224c4.378,9.122,8.586,19.083,12.507,29.607,3.733,10.019,7.329,20.877,10.688,32.272,6.189,21,11.729,44.176,16.936,70.852,9.656,49.473,16.561,103.178,23.24,155.115v.015c3.807,29.609,7.744,60.225,12.087,89.091,2.336,15.527,4.609,29.382,6.947,42.355,2.621,14.544,5.261,27.638,8.07,40.028.727,3.207,3.961,3.649,7.347,3.649.892,0,1.828-.033,2.733-.066h.008c.907-.033,1.846-.067,2.743-.067,3.294,0,6.443.422,7.17,3.484,2.13,8.983,2.173,17.845,2.214,26.415.045,9.482.088,18.437,2.786,27.258-10.012,2.584-28.262,4.769-45.911,6.882h-.009c-18.126,2.17-36.869,4.414-47.08,7.117.6,2.1,1.951,6.065,3.815,11.56,6.915,20.39,21.305,62.819,36.369,122.268a1612.885,1612.885,0,0,1,40.169,223.679ZM238.2,977.531h-.3c-5.194-10.106-10.6-24.342-15.63-41.17a551.46,551.46,0,0,1-13.345-55.95c-1.9-10.224-3.551-20.538-4.9-30.657-1.4-10.543-2.486-20.946-3.221-30.919-1.592-21.6-1.573-41.126.056-58.051.89-9.241,1.857-19.173,2.792-28.777l.046-.469c4.5-46.246,9.163-94.067,9.163-104.754,0-5.361-7.04-7.967-21.521-7.967-18.391,0-46.22,4.18-73.132,8.221l-.637.1c-13.327,2-27.108,4.071-39.439,5.593-13.815,1.705-24.364,2.534-32.248,2.534a74.263,74.263,0,0,1-9.023-.477,12.361,12.361,0,0,1-7.613-3.562,18.788,18.788,0,0,1-4.277-8.035c-2-6.77-2.558-16.18-3.263-28.093l-.086-1.445c-.2-3.447,3.419-5.927,7.255-8.551,3.876-2.653,7.885-5.4,7.983-9.313.773-30.784,1.083-67.68,1.309-94.621v-.029c.189-22.525.325-38.8.627-40.787,2.35-18.177,6.286-36.428,10.093-54.078,2.693-12.486,5.478-25.4,7.677-38.173a307.856,307.856,0,0,0,4.43-38.608,207.063,207.063,0,0,0-1.756-28.4c-1.164-9.432-2.788-18.993-4.359-28.239v-.008c-2.127-12.521-4.325-25.463-5.405-38.231a180.819,180.819,0,0,1-.675-19.194,131.679,131.679,0,0,1,18.118-64.436A157.558,157.558,0,0,1,96.776,94.16,193.032,193.032,0,0,1,135.9,66.484a211.432,211.432,0,0,1,44.159-17.715c9.307-2.846,18.928-4.639,28.232-6.373,2.489-.464,5.063-.943,7.611-1.439,2.992-.585,7.8-1.926,13.375-3.48l.011,0c10.716-2.988,24.053-6.707,30.732-6.711a50.267,50.267,0,0,1,8.1-14.5C273.971,8.847,284.153,0,299.485,0a46.17,46.17,0,0,1,12.372,1.785c.239.067,1.172.236,2.584.492,4.728.857,15.8,2.865,25.449,5.569,11.99,3.361,18.035,6.7,17.967,9.939-.059,2.877-11.9,6.007-24.428,9.32-13.014,3.441-26.469,7-28.572,10.68-2.6,4.553-1.446,14-.33,23.14.989,8.1,1.924,15.748.33,19.861-3.279,8.459-5.287,15.631-5.97,21.317-.306,2.552-.6,7.158.895,9.337a1.829,1.829,0,0,0,1.477.928,1.925,1.925,0,0,0,1.276-.57c2.264,3.506,2.728,8.366,3.177,13.065l0,.031q.055.572.11,1.14l.56,5.461c4.057,38.715,10.171,77.8,16.084,115.606l0,.027c3.625,23.174,7.373,47.137,10.608,70.763,3.629,26.505,6.213,49.776,7.9,71.142,1.621,15.883,2.456,32.064,2.554,49.468.087,15.505-.418,31.633-1.544,49.306-2.092,32.827-6.071,66.132-9.919,98.34l0,.017c-3.568,29.865-7.257,60.747-9.434,91.179-1.394,21.5-2.09,45.408-2.13,73.079-.035,24.665.442,49.923.9,74.349.742,39.248,1.509,79.828.142,118.44a42.577,42.577,0,0,1-1.489,7.985,25.114,25.114,0,0,1-3.443,7.557l-.3.4-.031.011-1.2.239c-7.9,1.6-17.134,4.392-26.913,7.352h0c-8.587,2.6-17.467,5.287-26.02,7.331C252.469,976.406,244.632,977.531,238.2,977.531Z" transform="translate(311.143 31.215)" fill="#9fd8e5"></path><path id="_Shoes" data-name="ðŸ‘Ÿ Shoes" d="M933.942,377.8c-.586,0-1.162,0-1.761-.005-6.938-.043-14.329-.3-21.967-.778a635.324,635.324,0,0,1-65.156-7.793l-3.993-.676-4.214-.742c-10.387-1.857-23.7-4.412-32.511-6.1l-.018,0c-3.8-.728-6.534-1.254-7.706-1.467l-.365-.066-.151,0a16.016,16.016,0,0,1-10.852-4.341,18.4,18.4,0,0,1-3.559-4.746,25.8,25.8,0,0,1-2.267-6.137l-.093-.4-.086-.392c-1.375-6.5-1.157-14.92.647-25.016,1.415-7.918,4.844-53.114,4.878-53.569l-12.883-42.952c-.283-1.286-6.966-31.768-13.068-63.884-3.638-19.146-6.356-35.1-8.079-47.417-2.154-15.4-2.749-25.118-1.77-28.9l.1-.36c.268-.954,5.724-4.67,11.5-8.6l.008-.005c6.545-4.458,13.964-9.51,14.654-11.149.652-1.548.194-11.417-.249-20.961-.453-9.761-.921-19.848-.26-21.695l.129-.338.12-.3.055-.124a13.157,13.157,0,0,1,3.332-3.786A41.951,41.951,0,0,1,787,9.594a73.466,73.466,0,0,1,14.955-5.251A120.115,120.115,0,0,1,824.228,1.3c1.632-.08,3.476-.181,5.429-.287l.062,0C837.515.581,848.192,0,858.437,0a148.16,148.16,0,0,1,21.791,1.3,54.422,54.422,0,0,1,14.91,4.367,56.75,56.75,0,0,1,8.534,4.993l.008.006a29.7,29.7,0,0,0,2.505,1.606l.858.462.211.133c4.621,2.92,7.64,8.176,11.595,16.853l2.338,5.257,4,1.085a47.526,47.526,0,0,1,10.872,4.362,44.824,44.824,0,0,1,9.664,7.287c6.193,6.083,11.676,14.647,16.762,26.181l.314.718.317.734A53.671,53.671,0,0,1,966.8,88.287a79.013,79.013,0,0,1,.82,14.8l-.027.8-.046,1.131c-.274,6.178-.86,11.255-2.612,22.632l-1.243,7.953-.356,2.318c-2.207,14.518-2.884,22.309-2.682,30.875a76.3,76.3,0,0,0,2.787,19.434,201.984,201.984,0,0,0,15.286,37.413,307.428,307.428,0,0,0,23.336,37.44c6.09,8.438,34.11,56.005,34.35,56.988l.488,2,.463,1.939.123.519.028.12.072.308.575,2.483.356,1.574c1.256,5.621,2.126,10.184,2.66,13.952l.074.526c.96,7.053,1.005,11.551-1.5,15.115l-.164.227-.4.545-.5.463-.3.276-.311.266-.928.767-1.121.437c-3.866,1.51-17.52,5.4-32.1,8.492A339.2,339.2,0,0,1,933.942,377.8ZM91.718,369.737c-26.059,0-50.409-.917-70.419-2.653l-2.566-.23-1.914-.062A12.912,12.912,0,0,1,8.26,363.32a19.843,19.843,0,0,1-5.039-8.556L3.1,354.4l-.113-.371c-1.218-4.1-1.881-8.963-2.216-16.25l-.11-2.793c-.019-.556-.036-1.131-.054-1.81l-.175-7.128-.049-1.561c-.035-.981-.072-1.766-.115-2.47l-.056-.837-.2-1.281c-.781-5.092,25.923-42.944,49.484-76.339,17.35-24.592,32.334-45.831,34.185-50.815,1.245-3.352,2.783-12.271,4.7-27.267,1.7-13.25,3.466-29.43,5.179-45.078,3.151-28.788,6.126-55.976,7.931-58.118l.122-.142,11.407-12.893,1.661,17,.012-.023a8.68,8.68,0,0,0,.6-1.669l.053-.255.039-.244.016-.117.019-.117a39.637,39.637,0,0,1,6.207-15.937,38.487,38.487,0,0,1,12.19-11.342,54.662,54.662,0,0,1,14.25-5.829,89.814,89.814,0,0,1,17.411-2.609c2.566-.151,5.232-.227,7.923-.227,15.19,0,32.375,2.335,54.084,7.35l1.724.4.361-.2a16.109,16.109,0,0,1,8.221-2.432c.251,0,.506.006.759.019a13.7,13.7,0,0,1,6.245,1.867,18.863,18.863,0,0,1,5.344,4.8c1.133,1.452,1.5,9.563,1.042,22.839v.041c-.009.255-.015.423-.016.492l0,.248,0,.452,0,.133.085.06c1.344.9,4.319,1.443,9.645,1.746l1.26.066,2.633.119a55.212,55.212,0,0,1,9.589,1.01l.281.061a22.79,22.79,0,0,1,6.638,2.462,15.971,15.971,0,0,1,4.977,4.441,23.164,23.164,0,0,1,4.085,10.7,55.158,55.158,0,0,1-.14,14.225c-.235,1.984-8.683,34.166-16.853,65.289l-.009.035,0,.014c-7.152,27.244-13.907,52.978-14.867,57.347-.716,3.261-1.006,10.027-.861,20.111.118,8.21.522,18.606,1.2,30.9,1.172,21.23,2.831,41.934,3.172,45.594a113.253,113.253,0,0,1,.257,22.107,33.3,33.3,0,0,1-2.795,11.043,13.463,13.463,0,0,1-6.413,6.546l-.313.144-.673.3-1.819.407-1.147.249c-11.224,2.4-22.223,3.771-42.03,5.227l-14.409,1.029-3.156.236c-4.423.339-7.726.626-11.042.96l-2.958.31-.113.008C149.211,368.665,120.281,369.737,91.718,369.737Z" transform="translate(88.772 2090.704)" fill="#fff"></path><path id="_Ink" data-name="ðŸ– Ink" d="M958.519,2467.609c-18.816,0-40.57-.874-64.658-2.6-20.205-1.447-38.108-3.2-49.955-4.364-4.033-.4-7.517-.737-10.152-.974-4.046-.635-8.277-1-12.368-1.349a144.139,144.139,0,0,1-15.653-1.92,46.154,46.154,0,0,1-14.65-5.3,31.816,31.816,0,0,1-9.354-9.575,40.636,40.636,0,0,1-5.048-12.225c-2.413-9.94-1.651-20.146-.588-26.958l.224-1.619a47.84,47.84,0,0,1,2.671-11.347,17.44,17.44,0,0,1,7.337-8.795c-1.152-7.49-1.563-15.187-1.961-22.63-.452-8.464-.919-17.212-2.477-25.692a110.482,110.482,0,0,0-5.72-18.967c-2.408-6.158-5.234-12.281-7.967-18.2-3.971-8.605-8.077-17.5-10.952-26.618-3.7-4.121-6.4-9.474-8.245-16.365a136.152,136.152,0,0,1-3.173-18.782c-.314-2.592-.611-5.039-.966-7.461-1.857-16.2-2.938-29.383-3.4-41.5-.745-9.44,1.02-17.7,5.1-23.88a25.455,25.455,0,0,1,8.276-7.906,31.561,31.561,0,0,1,12.331-4.03,6.451,6.451,0,0,1,.744-4.815,15.623,15.623,0,0,1,3.234-3.879,89.747,89.747,0,0,1-3.526-22.061c-.157-8.286,1.314-15.246,4.372-20.687a25.292,25.292,0,0,1,6.518-7.619,29.3,29.3,0,0,1,10.188-4.987,179.857,179.857,0,0,0,9.923-36.271c2.116-12.048,3.4-24.083,4.739-37.438-.272-.057-.548-.106-.815-.153l-.077-.014a8.431,8.431,0,0,1-3.23.708c-4.139,0-7.371-3.884-9.607-11.546a97.965,97.965,0,0,1-2.952-18.059c-1.972-20.892-3.633-42.243-5.078-65.275-1.286-20.511-2.37-41.9-3.312-65.375-1.751-43.618-2.733-87.994-3.683-130.909v-.045c-.813-36.748-1.655-74.747-2.975-112.088l-.43-9.005c-.446-9.484-.879-19.145-1.3-28.488l-.025-.552c-1.6-35.693-3.248-72.6-6.032-108.821-1.5-19.5-3.2-37.225-5.186-54.186-2.236-19.049-4.782-36.653-7.785-53.819-3.085-19.527-5.754-39.53-8.161-61.153-2.144-19.259-4.028-39.363-5.759-61.463-3.215-41.039-5.4-82.849-7.505-123.283l0-.029c-.416-7.973-.933-17.9-1.434-27.278-3.627,5.646-6.239,11.93-8.765,18.007-1.473,3.543-3,7.207-4.707,10.714-24.726,72.785-50.126,146.671-74.689,218.124-35.338,102.8-71.88,209.094-107.038,313.922-40.364,120.22-79.689,243.046-117.719,361.829l-.01.032q-4.06,12.684-8.122,25.366a9.542,9.542,0,0,1-3.728,5.173,9.723,9.723,0,0,1-5.482,1.616,11.184,11.184,0,0,1-4.426-.92,129.955,129.955,0,0,1-38.5,7.177,4.5,4.5,0,0,1-4.2,2.92,5.358,5.358,0,0,1-.581-.032,28.636,28.636,0,0,0-3.112-.161,76.781,76.781,0,0,0-12.418,1.412l-.022,0c-2.271.382-4.416.743-6.511.989-4.6.456-9.24.992-13.723,1.51l-.025,0c-11.053,1.279-22.483,2.6-34,2.766a48.233,48.233,0,0,0-7.641,14.7,152.315,152.315,0,0,0-4.183,16.315c-1.011,4.647-2.056,9.453-3.441,13.984a57.347,57.347,0,0,0-1.784,8.153,62.979,62.979,0,0,1-2.859,11.909c-1.612,4.061-3.83,6.374-6.778,7.07a20.669,20.669,0,0,1,3.028,8.279,38.9,38.9,0,0,1,.161,9.182,43.746,43.746,0,0,1,8.438,3.137,16.321,16.321,0,0,0,2.864,1.021c1.88.542,3.822,1.1,5.011,2.864a31.2,31.2,0,0,1,12.081,4.752,27.608,27.608,0,0,1,8.054,8.579,39.408,39.408,0,0,1,4.384,10.816,66.755,66.755,0,0,1,1.822,12.91,141.061,141.061,0,0,1-2.207,29.7c-3.46,20.726-10.113,42.335-14.971,58.114l0,.006c-1.714,5.567-3.194,10.375-4.27,14.27a182.486,182.486,0,0,0-8.526,40.3,173.976,173.976,0,0,0,1.03,41.174c4.464,6.177,4.568,14.489,4.668,22.528.038,2.985.073,5.8.324,8.488.145,2.626.325,5.271.5,7.828.428,6.28.871,12.774.813,19.117a35.764,35.764,0,0,1-1.54,9.786,26.3,26.3,0,0,1-3.782,7.575,26.777,26.777,0,0,1-5.651,5.676,36.093,36.093,0,0,1-7.148,4.087,70.9,70.9,0,0,1-17.291,4.657c-6.182.978-12.6,1.519-18.8,2.042-6.655.561-12.94,1.091-18.386,2.107-14.489,1.689-30.361,3.065-48.525,4.207-20.037,1.248-38.619,1.854-56.806,1.854-11.327,0-22.542-.247-33.333-.734-11.292-.51-22.482-1.3-33.26-2.347-12.436-.4-20.942-4.433-26-12.345A36.475,36.475,0,0,1,1.4,2439.115a87.692,87.692,0,0,1-1.279-16.4l-.04-.979c-.358-9.646.541-17.989,2.673-24.8a37.232,37.232,0,0,1,5.343-10.9,28.072,28.072,0,0,1,9.2-8.11,42.874,42.874,0,0,1,3.361-12.637,94.387,94.387,0,0,1,6.083-11.835c5.907-9.95,12.79-19.713,19.447-29.155l.006-.008c8.182-11.6,16.642-23.6,23.429-36.134a141.92,141.92,0,0,0,8.829-19.418,106.285,106.285,0,0,0,5.343-21.007c1.679-7.672,2.347-18.073,3.055-29.085v-.005h0c.884-13.755,1.886-29.346,5.1-42.437a62.94,62.94,0,0,1,6.754-17.509,34.184,34.184,0,0,1,5.131-6.657,26.473,26.473,0,0,1,6.568-4.812,40.376,40.376,0,0,1,5.436-17.654,45.335,45.335,0,0,1,5.371-7.541,38.545,38.545,0,0,1,6.51-5.926c1.206-6.857,4.7-13.385,8.073-19.7,1.587-2.967,3.228-6.036,4.569-9.043,4.388-9.208,8.668-18.629,12.807-27.739l.016-.034c3.855-8.485,7.841-17.258,11.9-25.825-2.676-1.135-8.981-4.4-9.71-10.19h-.117a8.258,8.258,0,0,1-6.166-2.512,6.733,6.733,0,0,1-1.622-5.342c1.362-13.65,4.242-27.3,7.027-40.506q.416-1.974.831-3.948l.385-1.841c7.324-35.472,15.812-71.386,25.948-109.792,9.031-34.216,19.173-69.641,31.008-108.3,21.986-71.821,46.622-144.154,70.446-214.106,19.162-56.261,38.976-114.438,57.3-172.017,9.862-30.991,18.515-59.336,26.455-86.654,8.913-30.669,16.705-59.267,23.821-87.428a10.758,10.758,0,0,1-1.911.171,13.431,13.431,0,0,1-5.994-1.545,26.027,26.027,0,0,1-5.527-3.864,66.425,66.425,0,0,1-8.806-10.052,150.943,150.943,0,0,1-19.2-35.177,187.177,187.177,0,0,1-10.337-38.853l-7.5-.932c-9.988-1.228-21.77-2.618-33.422-3.61-12.32-1.049-23.294-1.558-33.549-1.558-2.847,0-5.683.04-8.431.119l-6.081.2c-1.7.052-3.073.076-4.311.076-4.383,0-10.121-.268-15.635-2.359-.327.03-.661.046-.991.046a10.068,10.068,0,0,1-5.8-1.788,8.647,8.647,0,0,1-3.456-5.29,222.743,222.743,0,0,1-3.872-29.756,243.781,243.781,0,0,1-.013-29.433,285.655,285.655,0,0,1,3.278-29.115c1.511-9.245,3.53-18.935,6-28.8,9.562-38.193,24.959-75.782,39.849-112.133,4.98-12.158,10.13-24.729,14.908-36.977,8.123-21.727,13.823-44.035,18.527-63.239a.587.587,0,0,1,.6-.453.665.665,0,0,1,.481.2.563.563,0,0,1,.153.424,236.116,236.116,0,0,1-4.6,35.8c-2.443,12.321-5.58,24.6-8.33,35.149-5.741,22.74-13.431,45.756-20.867,68.014-9.066,27.137-18.44,55.2-24.486,83.269a303.634,303.634,0,0,0-6.273,42.467c-.523,7.3-.721,14.547-.588,21.553A215.777,215.777,0,0,0,236,1065.485a249.774,249.774,0,0,1,50.669-30.984,242,242,0,0,1,56.46-17.951c.64-2.787,1.325-5.678,1.93-8.228,1.632-6.886,3.32-14.006,4.662-21.085-1.155-9.518-2.095-19.229-3-28.619l-.014-.145c-.531-5.49-1.081-11.167-1.669-16.752a1255.258,1255.258,0,0,0-21.806-135.451c-8.89-26.466-15.368-48.076-20.385-68.008a478.73,478.73,0,0,1-12.6-69.84l-.858.169c-1.786.363-3.642.808-5.437,1.239-4.73,1.134-9.619,2.307-14.346,2.307a20.327,20.327,0,0,1-11.921-3.477c-6.26-4.347-8.947-11.7-11.318-18.188a58.113,58.113,0,0,1-4.527-16.742c-.628-6.133.062-11.523,2.053-16.019,2.6-5.883,7.373-10.049,14.172-12.383a372.462,372.462,0,0,1-3.434-39.747c-.438-12.8-.29-26.308.44-40.133a666.565,666.565,0,0,1,9.432-79.512c2.058-12.927,4.858-26.015,7.567-38.673l0-.013c3.424-16,6.964-32.543,9.042-48.934A230.717,230.717,0,0,0,283,333.635a168.945,168.945,0,0,0-1.273-24.936c-1.015-6.881-2.185-13.932-3.316-20.751-3.155-19.018-6.416-38.682-6.958-57.984a163.407,163.407,0,0,1,1.542-28.788,128.928,128.928,0,0,1,2.92-14.214,118.456,118.456,0,0,1,4.694-14.044A162.625,162.625,0,0,1,310.3,124.933a177.531,177.531,0,0,1,19.813-19.013,200.585,200.585,0,0,1,22.4-15.927A248.439,248.439,0,0,1,402.93,66.7a322.612,322.612,0,0,1,54.278-13.05l1.182-.348q.938-.278,1.865-.557c6.2-1.856,12.049-3.609,18.254-3.609a30.707,30.707,0,0,1,6.555.692,64.139,64.139,0,0,1,8.8-12.732,43.128,43.128,0,0,1,9.9-8.184c6.433-3.811,13.764-5.664,22.413-5.664a91.242,91.242,0,0,1,19.4,2.423c6.64,1.455,13.552,3.437,20.237,5.353l.021.006c4.133,1.184,8.406,2.409,12.6,3.508,2.534-7.476,4.563-14.97,6.213-21.316a27.722,27.722,0,0,0,.762-4.058V9.157a32.554,32.554,0,0,1,1.155-5.706C587.236,1.5,588.185.37,589.466,0c1.224.969,2.061,2.64,2.557,5.11a44.2,44.2,0,0,1,.628,6.56c.039.865.076,1.681.133,2.4l.023.268a112.662,112.662,0,0,1-3.385,36.85l-.255,1c-.17.661-.334,1.326-.508,2.03l-.009.038c-1.351,5.474-2.882,11.678-7.069,15.342a8.488,8.488,0,0,1-5.576,2.133,7.736,7.736,0,0,1-7.856-7.774,22.541,22.541,0,0,1,2.44-9.733c-11.722,4.532-21.187,8.129-29.784,11.322-1.494,12.381,1.354,26.141,8.467,40.9,6.248,12.962,15.675,26.517,28.018,40.289a298.807,298.807,0,0,0,37.186,34.644c6.251,4.919,12.572,9.5,18.786,13.631,6.013,3.993,11.794,7.468,17.184,10.33,13.008,7.215,26.1,10.873,38.906,10.873a66.885,66.885,0,0,0,30.563-7.423,83.537,83.537,0,0,0,25.057-19.956,105.45,105.45,0,0,0,9.984-13.593,118.469,118.469,0,0,0,8.033-15.423,127.352,127.352,0,0,0,5.889-16.82,130.463,130.463,0,0,0,3.554-17.783,180.909,180.909,0,0,0,2.4-24.991c.028-1.382,0-2.858-.039-4.421v-.03c-.141-6.286-.3-13.41,3.424-18.173-.224,0-.461-.008-.724-.008a54.73,54.73,0,0,0-8.661.891l-.068.011.155.268c1.387,2.484,3.063,7.439,1.654,10.162a3.592,3.592,0,0,1-3.03,1.889c-12.01-1.267-17.853-21.594-20.992-32.514l-.037-.13q-.173-.6-.336-1.167c-.992-3.589-2.17-12.866-2.344-21.593a67.99,67.99,0,0,1,.639-12.056c.612-3.691,1.635-5.975,3.039-6.788a62.528,62.528,0,0,1,1.444,10.123v.006a55.19,55.19,0,0,0,1.878,11.7c3.861,1.558,10.361,2.243,14.245,2.652l.022,0c1.168.123,2.089.22,2.608.308a47.238,47.238,0,0,1,17.487,3.435,48.156,48.156,0,0,1,13.928,8.906,69.916,69.916,0,0,1,11.032,12.95,122.4,122.4,0,0,1,8.8,15.571,80.948,80.948,0,0,0,13.222,8.813,108.984,108.984,0,0,0,14.342,6.36c9.857,3.605,20.393,6.164,30.582,8.638l.009,0c8.633,2.1,17.56,4.265,26.061,7.063a131.623,131.623,0,0,1,12.506,4.781,94.353,94.353,0,0,1,11.858,6.275A100.309,100.309,0,0,1,938.6,133.52a117.187,117.187,0,0,1,9.971,11.111,158.846,158.846,0,0,1,16.918,26.934,251.987,251.987,0,0,1,13.373,32.377c3.765,11.1,7.268,23.482,10.41,36.813,12.162,51.592,17.991,112.534,23.628,171.469v.008c3.7,38.693,7.2,75.237,12.337,109.035,2.762,18.157,5.738,33.768,9.1,47.723,1.818,7.55,3.776,14.694,5.819,21.233,2.142,6.855,4.453,13.289,6.87,19.125a14.232,14.232,0,0,1,5.472-1.11,15.692,15.692,0,0,1,10.853,4.653,18.961,18.961,0,0,1,3.685,4.981,18.392,18.392,0,0,1,1.891,6.007c1.087,6.135,1.081,12.644,1.075,18.94,0,1.812,0,3.683.022,5.5l.048,1c.062,1.222.137,2.5.2,3.623.595,10.092,1.21,20.528-4.334,26.505a14.434,14.434,0,0,1-5.624,3.669,26.339,26.339,0,0,1-8.717,1.441,87.86,87.86,0,0,0,1.168,13.566c.633,3.98,1.523,8.215,2.8,13.327,2.993,13.079,5.665,26.688,7.941,40.449,2.187,13.221,4.075,26.974,5.61,40.877,1.469,13.3,2.659,27.138,3.538,41.129.836,13.308,1.417,27.172,1.725,41.206l.06,4.036c.379,27.454-.141,51.417-1.545,71.224-1.078,15.2-2.676,27.645-4.752,36.989a70,70,0,0,1-4.062,13.131c-1.628,3.629-3.462,6.112-5.451,7.38l.771,6.29c1.74,14.282,3.685,30.893,4.733,47.309a26.391,26.391,0,0,1-.551,10.086,24.857,24.857,0,0,1-4.5,10.06c-1.851,2.244-3.953,3.382-6.247,3.382a8.357,8.357,0,0,1-3.558-.864c-4.927,1.221-9.918,2.605-14.744,3.944-7.509,2.083-15.273,4.237-23,5.832a117.022,117.022,0,0,1-23.482,2.678c1.6,53.283,2.584,111.554,3.013,178.141.383,59.388.3,119.778.218,178.181v.076c-.07,50.277-.143,102.266.084,153.388-.647,49.878.048,100.756.719,149.96.507,37.179,1.032,75.624.974,113.378-.064,42.329-.871,79.283-2.466,112.972l.214,1.76a94.617,94.617,0,0,1,.791,10.079,28.817,28.817,0,0,1-1.1,8.872,15.917,15.917,0,0,1-4.443,7.144,22.817,22.817,0,0,1-9.24,4.9,5.554,5.554,0,0,1-1.91,3.965,7.655,7.655,0,0,1-4.078,1.7c-8.378,1.13-17.074,2.248-26.585,3.417-2.616.195-5.341.541-7.976.875a102.138,102.138,0,0,1-12.676,1.079,39.233,39.233,0,0,1-4.682-.261c.154.156.207.3.157.413-.075.18-.395.3-.814.3-.4,0-.842-.113-.943-.366a145.047,145.047,0,0,0-7.89,29.318c-1.723,10.065-2.75,20.469-3.654,30.262a44.925,44.925,0,0,1,12.041,6.775,36.557,36.557,0,0,1,8.5,9.593,35.283,35.283,0,0,1,4.528,11.968,41.952,41.952,0,0,1,.118,13.9,27.114,27.114,0,0,1,12.768,3.9,39.044,39.044,0,0,1,10.355,9.144,53.414,53.414,0,0,1,7.391,12.239,52.88,52.88,0,0,1,3.874,13.183c1.3,9.392.744,18.909.2,28.113-.144,2.46-.294,5-.407,7.536-1.4,22.469-.043,43.218,4.044,61.672a149.572,149.572,0,0,0,9.572,29.2,121.244,121.244,0,0,0,16.074,26.288l1.094,1.3c3.737,4.4,7.771,8.806,11.672,13.065l.011.012c6.908,7.54,14.052,15.337,20.068,23.662a102.754,102.754,0,0,1,8.1,13.021,74.975,74.975,0,0,1,5.718,14.37,8.141,8.141,0,0,1,4.409,5.629l4.718,18.552,2.345,9.276a95.968,95.968,0,0,1,2.152,10.251,38.536,38.536,0,0,1,.172,10.43l-.1.677a15.953,15.953,0,0,1-2.777,7.452,23.931,23.931,0,0,1-6.337,6.079c-5.063,3.452-12.314,6.314-21.552,8.507a204.966,204.966,0,0,1-30.39,4.418C983.643,2467.184,971.656,2467.609,958.519,2467.609Zm-141.6-29.437c15.586,1.668,32.358,3.425,49.4,4.967l6.182.549c31.383,2.8,56.965,4.11,80.505,4.11h.008a497.328,497.328,0,0,0,66.739-4.164l2.034-.279c.905-.129,1.993-.225,3.145-.326,4.1-.362,9.209-.812,11.723-3.164,1.282-1.729,1.767-4.127,1.479-7.33a53.671,53.671,0,0,0-1.781-8.6c-.52-1.97-1.01-3.832-1.258-5.426-25.709-.3-51.831-.826-77.093-1.336h-.023c-38.9-.785-79.115-1.6-118.671-1.6-11.382,0-22.457.068-32.917.2h-.073a10.387,10.387,0,0,1-8.028-3.391,12.511,12.511,0,0,1-2.8-9.686,16.877,16.877,0,0,1-2.512-2.088l-.091,1.8a90.816,90.816,0,0,0,.362,16.995c.823,5.594,2.605,9.762,5.447,12.744,3.861,4.051,9.732,6.021,17.95,6.021ZM19.474,2390.921a69.178,69.178,0,0,0-2.551,19.438,124.444,124.444,0,0,0,1.846,19.451c.5,6.612,2.262,10.5,5.7,12.594,3.3,2.017,8.01,2.3,13.822,2.458,20.6,1.9,42.455,2.87,64.961,2.87,23.523,0,47.941-1.007,74.649-3.077,8.286-.9,16.776-1.49,24.987-2.066,16.516-1.158,33.594-2.356,49.9-6.038a10.785,10.785,0,0,0,4.693-3.828,12.931,12.931,0,0,0,1.958-5.407c.6-3.993-.005-8.586-.589-13.029a57.068,57.068,0,0,1-.741-9.157c-13.832,8.933-30.07,15.7-48.26,20.117a230.991,230.991,0,0,1-54.341,6.124,299.783,299.783,0,0,1-95.018-15.811l-.958-.409c-2.841-1.2-5.777-2.28-8.885-3.426-6.043-2.23-12.289-4.535-17.785-7.726a40.374,40.374,0,0,1-7.582-5.559A29.39,29.39,0,0,1,19.474,2390.921Zm90.859-238.315c-2.5,2.826-4.318,8.091-5.4,15.647a153.905,153.905,0,0,0-1.237,16.832c-.032,1-.062,1.936-.1,2.63-.372,7.626-.52,15.389-.663,22.9v.019c-.128,6.764-.262,13.758-.559,20.648a139.562,139.562,0,0,1-2.99,30.461,138.929,138.929,0,0,1-8.41,26.194c-7.06,16.429-16.607,31.083-26.716,46.6l-.007.01C56.6,2346.288,48.686,2358.435,41.468,2372c-2.171,3.619-2.851,6.5-2.08,8.808,1.164,3.484,5.472,5.232,10.032,7.083,1.181.479,2.518,1.021,3.766,1.591a236.952,236.952,0,0,0,49.452,16.657,243.458,243.458,0,0,0,51.92,5.611h.006a239.3,239.3,0,0,0,38.279-3.075,229.27,229.27,0,0,0,37.25-9.294c11.7-3.406,18.363-8.815,20.981-17.023a36.2,36.2,0,0,0,1.362-12.283c-.139-4.442-.728-9.189-1.352-14.216-.322-2.591-.655-5.27-.936-8.008a139.327,139.327,0,0,1,.675-21.816,189.608,189.608,0,0,1,3.573-21.319c3.134-14.083,7.632-28.184,11.983-41.821,5.615-17.6,11.42-35.8,14.374-54.193l.273-1.648a125.086,125.086,0,0,0,1.71-20.181c-.1-8.859-1.663-15.133-4.658-18.646a9.233,9.233,0,0,0-7.339-3.325,17.275,17.275,0,0,0-5.56,1.046,6.547,6.547,0,0,1-3.451,1.053,5.953,5.953,0,0,1-4.261-1.885,7.735,7.735,0,0,1-2.1-4.424,11.718,11.718,0,0,1-1.712.156c-1.185,7.338-2.41,14.8-3.6,22.007l-.037.226-.016.1c-1.331,8.095-2.706,16.465-4.031,24.7a35.219,35.219,0,0,1,5.874,4.622,3.854,3.854,0,0,1,.677,4.179,3.224,3.224,0,0,1-2.981,2.158c-.091,0-.185,0-.279-.012a48.8,48.8,0,0,1-4.932-.705,8.009,8.009,0,0,1-2.629,5.608,7.712,7.712,0,0,1-5.062,1.7,10.905,10.905,0,0,1-9.158-4.914,6.992,6.992,0,0,1,.189-7.342,150.283,150.283,0,0,0-49.276-7.956,188.439,188.439,0,0,0-47.58,6.305l-.131.057c-.528.209-1.745.535-3.287.946-4.489,1.2-12,3.208-12.18,5.065-.042.44.331.855,1.11,1.234.393.048.6.18.592.372-.023.384-.9.872-1.855.872-.808,0-2.231-.343-2.685-2.646-.1-1.931,1.23-3.711,4.059-5.441a53.6,53.6,0,0,1,8.361-3.774l.007,0a38.566,38.566,0,0,0,5.105-2.207,105.6,105.6,0,0,1-7.254-12.1,119.484,119.484,0,0,1-9.982-27.2,108.682,108.682,0,0,1-2.346-14.083Zm665.362,2.939h0a65.441,65.441,0,0,0-6.418,4.144,194.351,194.351,0,0,0-7.519,42.126,151.344,151.344,0,0,0,3.191,42.541l.227.987a140.573,140.573,0,0,0,6.951,21.633c2.826,7.012,6.084,13.984,9.234,20.727,4.152,8.886,8.446,18.075,11.773,27.416a124.68,124.68,0,0,1,4.21,14.283,93.924,93.924,0,0,1,2.208,14.994c.453,4.295.748,8.694,1.034,12.949v0c.687,10.233,1.4,20.816,4.359,30.839a7.833,7.833,0,0,1,5.4,4.508l13.683.017c38.975.066,70.5.3,99.211.74,36.035.551,68.477,1.434,99.179,2.7-1.961-17.127-15.967-32.452-27.22-44.766l-.03-.032c-.988-1.081-1.921-2.1-2.84-3.118a156.049,156.049,0,0,1-22.8-29.988,167.325,167.325,0,0,1-15.158-34.278,177.915,177.915,0,0,1-7.415-36.9,182.321,182.321,0,0,1,.427-37.856c.5-4.121,1.292-8.591,2.128-13.323l0-.014v-.005c1.069-6.053,2.174-12.313,2.8-18.526a70.246,70.246,0,0,0-.122-17.938,35.8,35.8,0,0,0-2.175-7.981,26.473,26.473,0,0,0-4.126-6.914,26.066,26.066,0,0,0-6.485-5.541,35.739,35.739,0,0,0-9.249-3.862c-.924,7.574-1.982,15.241-3.006,22.656-1.761,12.755-3.581,25.942-4.765,38.973a8.327,8.327,0,0,1,3.717,3.365,5.668,5.668,0,0,1,.674,4.01,4.525,4.525,0,0,1-1.861,2.734,7.107,7.107,0,0,1-4.138,1.122l-.227,0a11.49,11.49,0,0,1-3.027,5.311,5.9,5.9,0,0,1-4.014,1.654,6.427,6.427,0,0,1-4.772-2.307,9.566,9.566,0,0,1-2-3.714,13.055,13.055,0,0,1-.369-5.108c-9.392-3.476-20.378-7.386-30.645-10.018a106.756,106.756,0,0,0-26.938-3.775,85.011,85.011,0,0,0-25.182,3.87,138.888,138.888,0,0,0-28.25,12.686.21.21,0,0,1-.183-.13c-.221-.581,1.721-2.9,3.006-4.427l.017-.02c.473-.564.846-1.009.985-1.219a59.731,59.731,0,0,1,11.276-9.448,70.475,70.475,0,0,1,13.179-6.672,84.532,84.532,0,0,1,28.891-5.433,98.152,98.152,0,0,1,23.1,3.041c7.565,1.824,15.127,4.29,22.44,6.674l.012,0c3.18,1.037,6.468,2.108,9.7,3.109,1.99-14.251,3.529-28.8,5.018-42.878.542-5.123,1.1-10.417,1.682-15.678l.467-4.182c.486-4.415.821-9.522-.383-13.94a16.887,16.887,0,0,0-2.785-5.78,19.846,19.846,0,0,0-5.434-4.888,78.061,78.061,0,0,0-11.674-5.125,91.09,91.09,0,0,0-12.206-3.261,131.551,131.551,0,0,0-25.437-2.221c-12.325,0-24.783,1.22-36.831,2.4l-.078.008c-3.551.348-7.223.708-10.763,1.02l-1.334.152c-.58.063-1.157.121-1.768.184h-.009a57.155,57.155,0,0,0-12.292,2.177c-4.511,1.528-7.448,3.943-8.979,7.385-1.893,4.709-2.193,11.836-.918,21.788,1.1,8.556,3.135,17.593,4.933,25.565l.006.025c.892,3.955,1.734,7.691,2.306,10.729l1.267,5.193c2.107,8.686,4.228,17.962,5,27.485a.451.451,0,0,1-.127.344.6.6,0,0,1-.427.185c-10.5-11.239-15.552-26.173-20.441-40.616q-.436-1.289-.872-2.573Zm-599.577-34.657a102.153,102.153,0,0,0-17.522,1.382,55.608,55.608,0,0,0-15.22,4.776,32.7,32.7,0,0,0-11.4,9.112,31.646,31.646,0,0,0-6.06,14.391,63.918,63.918,0,0,0-.036,15.178c.524,5.034,1.465,10.131,2.375,15.061,1.495,8.1,3.041,16.473,2.768,24.762a142.724,142.724,0,0,1,54.151-10.222,180.838,180.838,0,0,1,45.3,5.984c1.166-7.633,2.329-15.4,3.454-22.907l.028-.187c1.674-11.171,3.4-22.721,5.18-34.1l.48-2.278c.761-3.7,1.308-7.215-.348-9.63-1.134-1.654-3.233-2.716-6.417-3.248l-1.82-.433C209.227,2123.388,191.264,2120.888,176.118,2120.888Zm3.218-17.2c20.071,0,40.893,3.4,63.656,10.406.271-6.374,2.6-12.872,4.85-19.156l.011-.031c.6-1.667,1.161-3.241,1.689-4.818a327.972,327.972,0,0,1,17.853-42.046l.868-1.695c.514-1,1.034-2.03,1.537-3.025l.027-.054c1.929-3.822,3.925-7.773,6.239-11.421-10.224-1.4-20.619-2.777-30.673-4.109l-.1-.013c-21.047-2.788-42.811-5.672-64.189-8.914.5,3.3-1.257,5.646-2.942,7.583-2.722,11.185-6.27,23.106-10.846,36.445-4.091,11.926-8.642,23.954-13.043,35.587-.917,2.424-1.893,5-2.85,7.545A170.833,170.833,0,0,1,179.336,2103.684Zm674.877-25.872c15.284,0,28.654,1.524,40.872,4.659a127.794,127.794,0,0,1,.386-34,225.424,225.424,0,0,1,7.417-33.059c-7.716-.177-15.538-.292-23.1-.4h-.027c-19.882-.292-40.441-.594-60.8-2.068l-.843,3.833q-.513,2.348-1.023,4.7c-3.23,14.86-6.571,30.227-11.472,44.859l-.074.335c-.181.89-.408,2.462-.67,4.282v.006c-.645,4.468-1.448,10.029-2.193,10.029-.388,0-.724-1.578-1-4.69-.917,2.038-1.891,4.037-2.892,5.942l5.6-.67C820.338,2079.665,837.325,2077.812,854.213,2077.812ZM287.989,2041.67c-1.177,1.109-2.125,2.056-2.983,2.981,1.475-.379,2.713-.685,3.784-.935a3.1,3.1,0,0,0-.436-1.229A4.781,4.781,0,0,1,287.989,2041.67Zm631.845-21.2-.612,1.438-.04.094-.094.223-.078.185-.088.209a13.023,13.023,0,0,1,1.559-.789A6.9,6.9,0,0,1,919.834,2020.469Zm-709.649-10.4c21.149,0,43.819,1.275,71.344,4.016,6.93.721,14.073,1.688,20.98,2.623l.027,0c14.586,1.975,29.669,4.017,44.383,4.017A124.585,124.585,0,0,0,369.7,2018.8a91.858,91.858,0,0,0,22.154-6.953c54.379-166.514,100.607-304.788,145.48-435.154,25.737-74.771,51.282-147.6,75.926-216.457,26.451-73.908,52.98-146.37,78.85-215.373,6.117-21.484,14.939-43.011,23.471-63.83,4.775-11.652,9.712-23.7,14.157-35.682A371.961,371.961,0,0,0,741.378,1009l.752-2.461c2.709-8.952,4.2-15.157,2.078-25.834l-.088-1.274a37.977,37.977,0,0,1,.479-10.892,11.789,11.789,0,0,1,2.108-4.656,7.63,7.63,0,0,1,4.267-2.7,4.424,4.424,0,0,1,1.058-.126,3.427,3.427,0,0,1,2.726,1.144,10.446,10.446,0,0,1,2.135,5.8,32.674,32.674,0,0,1-.362,6.314,26.591,26.591,0,0,0-.154,8.182,80.387,80.387,0,0,1,.427,19.4,101.757,101.757,0,0,1-3.728,18.777,148.114,148.114,0,0,1-6.717,18.1c-2.329,5.281-5.122,10.96-8.539,17.363a6.054,6.054,0,0,1,1.425,3.417c.652,8.608.854,17.407,1.05,25.916v.011c.122,5.282.247,10.745.479,16.1,1.666,38.971,4.153,79.5,7.391,120.471,3.9,28.833,8.508,58.028,12.968,86.261l.006.039c6.9,43.668,14.031,88.823,18.677,133.64,2.367,23.363,4.414,47.234,6.257,72.979,1.642,22.936,3.084,46.847,4.408,73.1,2.459,48.755,4.124,98.382,5.735,146.375v.025c1.237,36.854,2.515,74.963,4.145,112.436,1.828,42.017,3.914,78.751,6.377,112.3.033,4.939.57,10.029,1.089,14.952a150.591,150.591,0,0,1,1.1,15.457,48.03,48.03,0,0,1-2.144,15.119,7.838,7.838,0,0,1,4.335-1.256,8.465,8.465,0,0,1,5.641,2.119c27.058-1.878,54.587-2.293,81.21-2.695h.013c24.086-.364,48.992-.74,73.467-2.2.037-1.686.138-3.278.228-4.682v-.012l.007-.111c.031-.483.06-.939.083-1.364-.876-2.087-.327-4.36.2-6.559a17.53,17.53,0,0,0,.676-4.348,229.889,229.889,0,0,1-3.1-34.947c-.253-11.827.085-23.961.412-35.7.368-13.205.748-26.86.281-40.033.055-31.322.208-65.252.471-103.728.8-88.664.831-178.822.861-266.011v-.131c.043-125.249.086-254.763,2.41-382.127.314-10.83.811-21.534,1.477-31.817-2.034-2.268-1.635-5.237-1.249-8.108a25.987,25.987,0,0,0,.307-3.35l.166-3.378.062-1.213a211.011,211.011,0,0,0,.317-24.259,77.329,77.329,0,0,0-5.18-24.124,10.931,10.931,0,0,1,1.662-5.422c-24.425-11.48-50.115-20.925-74.959-30.06l-.089-.032c-6.747-2.481-13.723-5.046-20.568-7.613a10.224,10.224,0,0,1-2.457.292,11.967,11.967,0,0,1-6.882-2.216,9.641,9.641,0,0,1-3.988-5.95c-5.815-29.91-11.169-60.508-16.368-93.542-4.641-29.483-9.049-60.231-13.477-94-5.045,3.321-10.381,6.5-15.856,9.437-5.222,2.805-10.749,5.492-16.425,7.987a296.7,296.7,0,0,1-34.207,12.445c-23.291,7-47.748,11.857-71.4,16.55-14.131,2.8-28.741,5.7-42.854,9.017l-11.578,3.01c-13.894,3.629-28.633,7.654-42.676,13.41-15.454,6.334-27.736,13.878-37.548,23.064-.457,6.688-.116,15.876.279,26.516.573,15.412,1.222,32.88-.3,48.907a105.544,105.544,0,0,1-4.2,22.254,53.528,53.528,0,0,1-3.857,9.2,34.15,34.15,0,0,1-5.313,7.382,25.324,25.324,0,0,1-8.476,5.858,28.8,28.8,0,0,1-11.174,2.1c-.61,0-1.236-.016-1.861-.047-8.378,2.564-16.573,4.763-24.357,6.536-8.48,1.931-16.769,3.426-24.639,4.442,2.575,4.9,5.4,9.955,8.391,15.306,4.79,8.572,9.744,17.436,14.2,26.616a162,162,0,0,1,10.911,28.014,92.5,92.5,0,0,1,2.737,14.146,68.423,68.423,0,0,1,.133,14.033,57.54,57.54,0,0,1-3.066,13.767,58.765,58.765,0,0,1-6.86,13.346,5.267,5.267,0,0,1-3.933,1.791c-2.934,0-6.029-2.253-8.517-4.063l-.11-.08-.481-.349c.1,5.219.211,10.52.318,15.647l.009.444c.373,17.838.759,36.282.78,54.48a5.256,5.256,0,0,1-4.976,5.133,4.207,4.207,0,0,1-1.371-.23c-7.3-2.521-12.593-7.824-16.193-16.211-3.133-7.3-4.554-15.928-5.808-23.542-.22-1.337-.4-2.446-.6-3.573q-.692-4.035-1.384-8.071c-1.957-11.4-3.98-23.191-5.946-34.818-.629,10.472.035,21.244.677,31.662.466,7.565.948,15.386.932,23.033a118.209,118.209,0,0,1-2.007,22.763,14.7,14.7,0,0,1-4.463,6.983,9.6,9.6,0,0,1-6.1,2.169,13.023,13.023,0,0,1-7.956-3.02,18.446,18.446,0,0,1-5.749-8.107l-.133-.372a246.189,246.189,0,0,1-10.148-38.016A342.209,342.209,0,0,1,414.753,1124l-.1-1.528c-.049-.749-.1-1.51-.155-2.288-.5-7.258-1.015-14.761.753-21.706,2.513,4.737,3.043,11.428,3.555,17.9a93.119,93.119,0,0,0,1.272,10.835,399.154,399.154,0,0,0,13.165,57.213l.153.657a62.014,62.014,0,0,0,4.378,11.873c2.112,4.24,4.078,6.575,5.536,6.575a1.459,1.459,0,0,0,1.049-.474c1.35-1.356,2.018-5.559,1.987-12.493.313-10.686-.35-21.526-.991-32.009v-.011l-.007-.118c-.173-2.836-.353-5.769-.509-8.654l-.1-1.943a235.125,235.125,0,0,1-.1-27.848,116.9,116.9,0,0,1,4.793-27.35,5.1,5.1,0,0,1,2.155-2.778,6.19,6.19,0,0,1,3.328-.987,4.777,4.777,0,0,1,2.9.906,4.412,4.412,0,0,1,1.652,2.86c3.7,21.577,7.293,43.521,10.767,64.741l.1.616c.67,3.432,1.17,7.037,1.652,10.523,1.413,10.2,2.874,20.755,8.744,29.281.081-22.2-1.015-44.717-2.075-66.5v-.009c-.127-2.6-.274-5.631-.416-8.584l-.24-.774a23.278,23.278,0,0,1-1.1-5.269,6.9,6.9,0,0,1,1.307-4.947,4.576,4.576,0,0,1,1.634-2.971,4.7,4.7,0,0,1,2.919-.973,5.35,5.35,0,0,1,5.35,4.868c.122.982.218,1.991.312,2.968v.012q.038.4.077.791c.494.622.99,1.255,1.469,1.868l.022.028a64.823,64.823,0,0,0,7.09,8.1,39.928,39.928,0,0,0,3.447-10.855,52.149,52.149,0,0,0,.556-11.848c-.469-7.711-2.387-16.224-5.864-26.025-6.444-18.17-17.277-37.822-27.753-56.826-6.7-12.16-13.034-23.646-18.343-34.835-2.854-6.015-5.128-11.349-6.951-16.307a98.908,98.908,0,0,1-4.383-15.151c-2.995-10.135-5.6-20.7-7.754-31.4-2.048-10.2-3.747-20.853-5.05-31.672a526.9,526.9,0,0,1-3.538-63.92c.018-19.191.876-40.23,2.623-64.321,1.556-21.456,3.653-43.221,5.68-64.27v-.006c1.421-14.75,2.89-30,4.152-44.952a257.448,257.448,0,0,0-26.257-1.443c-2.83,1.372-5.745,1.74-9.823,1.912-16.151.671-32.337,1.96-48.107,3.832-16.06,1.906-32.1,4.464-47.672,7.6a216.375,216.375,0,0,0,5.975,36.391c2.91,11.975,6.546,23.961,10.062,35.551q.437,1.441.872,2.876l1.534,5.351c7.246,25.364,12.9,46.423,17.785,66.274,5.963,24.217,10.685,46.26,14.435,67.388,8.87,49.966,12.2,94.673,10.186,136.676a6.447,6.447,0,0,1,.618.287l.089.045c-.193.541-.361,1.1-.525,1.634l-.006.021c-.172.568-.35,1.154-.556,1.725l-.256.662-1.5,3.735c-.786,1.965-1.612,4.087-2.334,6.288a22.335,22.335,0,0,1-4.173.977,232.537,232.537,0,0,0-2.62,37.077,199.12,199.12,0,0,0,3.814,37.188,159.6,159.6,0,0,0,11.345,35.209,131.513,131.513,0,0,0,19.973,31.138,154.355,154.355,0,0,1-8.617-22.582,168.223,168.223,0,0,1-5.235-24.135,164.334,164.334,0,0,1-1.623-24.628,144.912,144.912,0,0,1,2.219-24.062c2.194,2.382,2.938,7.094,3.594,11.252.265,1.68.516,3.266.844,4.661.873,4.614,1.688,9.316,2.476,13.864,2.112,12.188,4.3,24.791,7.806,36.879l.523,1.664a143.658,143.658,0,0,0,11.212,26.931,70.165,70.165,0,0,0,8.353,12,40.972,40.972,0,0,0,10.56,8.765,14.882,14.882,0,0,0,2.953.442c2.456.209,4.995.426,5.976,2.975.788,3.161-.64,7.236-4.02,8.265l-.235.066a15.063,15.063,0,0,1-4.114.583,15.8,15.8,0,0,1-5.614-1.069,22.871,22.871,0,0,1-5.167-2.84,46.562,46.562,0,0,1-8.87-8.774l-.305,3.971c-.614,7.839-1.472,14.823-5.765,20.917q-.282,1.184-.561,2.37c-.3,1.266-.638,2.7-.974,4.092-6.667,41.231-14.263,77.121-23.22,109.72-5.152,18.75-10.863,36.725-16.972,53.426a528.2,528.2,0,0,1-21.622,50.966l-3.756,11.348c-4.494,13.569-9.118,27.494-13.2,39.78-28.109,84.654-57.176,172.191-82.929,259.136-13.864,46.806-25.683,89.692-36.132,131.109-5.663,22.448-10.975,44.713-15.788,66.176-5.053,22.533-9.733,44.967-13.91,66.68A430.411,430.411,0,0,1,210.186,2010.074Zm-46.406,5.679c-.07.262-.138.534-.2.8a12.805,12.805,0,0,1-.976,2.911c.5.089.983.184,1.436.281.612-1.242,1.223-2.377,1.866-3.47l-.06-.014C165.2,2016.108,164.476,2015.938,163.779,2015.754ZM809.169,166.82a186.914,186.914,0,0,0-4.347,28.081,259.625,259.625,0,0,0-.639,28.509c.537,18.834,2.693,37.643,5.046,56.86,4.653,29.87,7.971,54.74,10.441,78.267,2.968,28.269,4.631,54.041,5.084,78.788l.047,2.826c1.292,82.363,7.6,170.449,19.285,269.291,4.9,41.473,10.78,85.2,17.966,133.686,5.7,38.452,12.336,80.643,20.883,132.778a262.384,262.384,0,0,1,29.027,6.443c8.972,2.5,18.2,5.512,28.207,9.2,18.581,6.84,37.051,15.015,54.913,22.922l.014.006c6.2,2.745,12.614,5.583,18.98,8.342a156.889,156.889,0,0,0,22.72,7.167c-2.654-24.786-6.262-49.913-11.032-76.814-4.249-23.962-9.328-48.784-15.527-75.884-11.517-50.347-25.258-101.119-38.546-150.218l0-.013c-12.46-46.038-25.344-93.644-36.37-140.81-5.936-25.393-10.875-48.635-15.1-71.055-4.742-25.166-8.469-48.661-11.394-71.826-1.686-13.134-2.947-26.247-3.749-38.976-.831-13.184-1.193-26.339-1.077-39.1.121-13.186.758-26.321,1.893-39.042,1.171-13.127,2.906-26.183,5.158-38.807a.656.656,0,0,1,.678-.6.927.927,0,0,1,.931.821c.645,13.516,2.378,27.139,4.054,40.313l0,.025c.947,7.448,1.927,15.148,2.7,22.743,1.155-9.535,3.512-19.173,5.791-28.495.549-2.243,1.17-4.781,1.744-7.217.824-2.793,1.515-5.988,2.247-9.371,2.212-10.226,4.718-21.813,12.037-27.338l.614-2.129a.668.668,0,0,1,.662-.523.793.793,0,0,1,.61.288.7.7,0,0,1,.124.619l-.031.128-.005.023c-.093.392-.181.762-.263,1.147a3.57,3.57,0,0,1,2.578,1.91c.934,2.193-.94,5.583-2.446,8.308-.5.9-.967,1.749-1.27,2.444-6.462,17.389-10.056,35.984-13.531,53.967-1.918,9.923-3.9,20.181-6.338,30.087,2.415,21.17,5.4,43.021,8.862,64.946,3.316,20.977,7.179,42.681,11.483,64.51C946.374,524.8,951,546.347,956.028,568.1c4.741,20.5,10.008,41.89,15.653,63.575,14.506-3.838,29.226-7.62,43.461-11.276,5.332-1.37,11.374-2.922,17.255-4.44-4.688-15.327-8.722-31.149-12.333-48.369-3.218-15.344-6.024-31.456-8.579-49.258-4.746-33.064-7.872-67.062-10.9-99.94v-.006c-1.988-21.62-4.044-43.975-6.541-65.837-2.8-24.512-5.869-45.795-9.384-65.067a578.441,578.441,0,0,0-15.077-63.594c-3.211-10.655-6.766-21.093-10.564-31.024-3.984-10.418-8.377-20.644-13.055-30.392a71.7,71.7,0,0,0-6.053-9.452,70.881,70.881,0,0,0-7.071-7.978,83.793,83.793,0,0,0-16.623-12.382c-11.993-6.948-25.793-11.74-39.14-16.375-9.764-3.391-19.856-6.9-29.213-11.226a119.122,119.122,0,0,1-13.528-7.268,84.321,84.321,0,0,1-12.213-9.246,418.231,418.231,0,0,1,19.878,47.2,467.353,467.353,0,0,1,14.264,49.247,9.411,9.411,0,0,1-1.752,8.141,10.163,10.163,0,0,1-3.479,2.781,9.8,9.8,0,0,1-4.271,1.01,8.581,8.581,0,0,1-7.465-4.332l-.167-.278a65.707,65.707,0,0,0-12.709-15.562A46.617,46.617,0,0,0,809.169,166.82ZM441.184,655.062c-.923,23.925-2.88,48.667-4.772,72.593-1.758,22.23-3.576,45.217-4.6,67.826-.55,12.172-.831,23.24-.857,33.836-.03,11.9.259,22.9.884,33.612.672,11.519,1.751,22.709,3.21,33.258,1.562,11.3,3.621,22.327,6.119,32.775a296.634,296.634,0,0,0,9.615,32.163,272.966,272.966,0,0,0,13.694,31.421l.539,0a127.568,127.568,0,0,0,23.267-2.373c7.679-1.422,15.422-3.347,22.91-5.209l.016,0c6.379-1.587,12.973-3.226,19.472-4.54l1.2-.238.031-.011c3.2-4.183,4.8-10.979,5.23-15.944,1.392-39.311.153-79.324-1.046-118.02v-.019c-.72-23.247-1.465-47.287-1.632-70.933-.187-26.514.39-49.705,1.764-70.9,2.177-30.435,5.866-61.32,9.434-91.188v-.005c3.848-32.208,7.826-65.513,9.918-98.343,1.126-17.673,1.631-33.8,1.544-49.305-.1-17.4-.933-33.586-2.554-49.467-1.687-21.365-4.271-44.636-7.9-71.144-3.236-23.635-6.985-47.607-10.612-70.789-5.913-37.8-12.028-76.892-16.084-115.6l-.459-4.46c-.075-.7-.144-1.434-.212-2.139l0-.042c-.449-4.7-.913-9.553-3.177-13.058a172.531,172.531,0,0,0-20.869,22.82,160.686,160.686,0,0,0-16.307,26.353A9.449,9.449,0,0,1,470.553,193a10.756,10.756,0,0,1-7.115-2.744,10.022,10.022,0,0,1-2.383-3.206,10.4,10.4,0,0,1-.964-4.23c-1-9.288-1.538-18.466-1.605-27.279a236.536,236.536,0,0,1,1.342-27.283l.181-1.6a188.4,188.4,0,0,1,6.773-33.333,230.658,230.658,0,0,1,12.174-31.774c-.427-.023-.874-.035-1.328-.035-5.632,0-11.423,1.851-17.023,3.642a91.364,91.364,0,0,1-10.11,2.823c-2.562.5-5.133.978-7.618,1.441h-.007c-9.3,1.733-18.916,3.526-28.217,6.37A211.382,211.382,0,0,0,370.491,93.5a192.984,192.984,0,0,0-39.128,27.677A157.565,157.565,0,0,0,301.5,158a131.681,131.681,0,0,0-18.118,64.436,180.929,180.929,0,0,0,.675,19.194c1.081,12.772,3.279,25.714,5.405,38.231,1.571,9.25,3.2,18.814,4.36,28.249a207.038,207.038,0,0,1,1.755,28.4,307.746,307.746,0,0,1-4.43,38.609c-2.2,12.773-4.983,25.686-7.676,38.173-3.807,17.652-7.743,35.9-10.092,54.076a575.434,575.434,0,0,0-6.416,68.407c-.361,11.716-.3,23.307.184,34.451.505,11.651,1.484,23.131,2.91,34.12a343.492,343.492,0,0,1,49.52-10.157A390.218,390.218,0,0,1,369.843,591c10.845,0,22.03.428,33.245,1.273,10.833.816,21.991,2.042,33.164,3.645-.889-13.131-1.412-26.539-1.6-40.991-.167-12.877-.062-26.3.321-41.037.711-27.37,2.3-55.18,3.837-82.074.773-13.533,1.572-27.527,2.25-41.286.563-10.223,1.232-20.633,1.879-30.7l.008-.127c1.064-16.555,2.164-33.673,2.837-50.538.754-18.906.875-35.438.372-50.542a.771.771,0,0,1,.218-.574,1,1,0,0,1,.711-.289.727.727,0,0,1,.77.624c3.064,16.523,5.322,33.436,6.9,51.705,1.407,16.273,2.238,33.257,2.543,51.922.566,34.667-.827,69.995-2.173,104.159v.005c-.823,20.878-1.674,42.466-2.068,63.679-.53,11.34-.1,22.917.323,34.112.426,11.378.866,23.138.291,34.611,8.042,1.738,13.934,6.02,17.513,12.725a32.476,32.476,0,0,1,3.23,9.706,48.454,48.454,0,0,1,.582,10.8,68.952,68.952,0,0,1-4.718,21.257c-.746,2.556-2.512,3.747-5.559,3.747a26.831,26.831,0,0,1-3.97-.406l-.242-.037a5.826,5.826,0,0,1-4.475,1.621,31.215,31.215,0,0,1-7.671-1.465l-.283-.079A28.487,28.487,0,0,0,441.184,655.062Zm545.282,33.219,1.98,7.458c2.987,11.232,6.05,22.652,9.012,33.7l.033.122.01.036c10.312,38.45,20.974,78.209,30.476,117.554,5.115,21.18,9.495,40.555,13.39,59.231,4.37,20.955,8.02,40.49,11.158,59.721l.543-8.585c.492-7.806,1.046-16.879,1.395-25.786,1.021-19.811,1.457-39.99,1.333-61.69-.111-19.445-.672-39.607-1.714-61.64-1.909-40.383-5.062-79.636-8.682-123.087-6.266.333-12.615.788-18.755,1.228-12.1.867-24.621,1.764-36.943,1.764C988.624,688.3,987.535,688.3,986.466,688.281Zm-.81-3,.144.509c.506-.1,1.019-.194,1.453-.269l.73-.126Zm65.274-60.419c-.2,0-.421.006-.683.018a8.554,8.554,0,0,1-5.393,4.883l-19.671,5.339c-18.3,4.964-33.675,9.1-49.226,13.181,2.609,10.1,5.431,20.878,8.386,32.024,13.087-4.245,27.2-5.465,40.848-6.645,9.685-.838,19.7-1.7,29.2-3.648-.129-5.67-.342-11.4-.548-16.941l0-.061c-.244-6.578-.5-13.381-.61-20.06-.012-.466,0-1,.015-1.562v-.032c.048-1.916.1-4.087-.682-5.47-.33-.59-.323-.767-.32-.825,0-.029,0-.029-.041-.036a1.605,1.605,0,0,1-.264-.065A3.675,3.675,0,0,0,1050.93,624.86ZM299.422,666.447l-.617.135c.191.522.376,1.076.564,1.693l0-.172C299.384,667.535,299.394,667,299.422,666.447Zm56.23-66.752c-13.13,0-25.944.609-38.084,1.81-21.756,2.966-39.889,5.632-57.67,9.006-1.557,2.409-2.409,5.722-2.532,9.847a48.18,48.18,0,0,0,1.441,12.355c2.062,8.61,5.971,16.637,9.959,20.449a4.627,4.627,0,0,0,1.642.263,20.056,20.056,0,0,0,5.347-1.109l.008,0c.739-.223,1.437-.433,2.013-.563,17.211-3.915,35.138-7.2,53.283-9.754a2.536,2.536,0,0,0,2.019,1.031c.086,0,.173,0,.257-.013l4.107-.382c16.323-1.5,35.644-3.031,55.176-3.031,6.578,0,12.993.177,19.067.525l.184.145c11.038.812,22.217,2.267,33.027,3.675l.04.005c5.514.718,11.216,1.46,16.821,2.106a51.167,51.167,0,0,0,3.488-16.109c.185-5.569-.9-10.261-3.217-13.947-3.287-5.221-8.927-8.2-16.766-8.865C410.633,602.06,382.158,599.7,355.652,599.7Zm451.1-452.406c8.3,0,17.493,4.967,22.233,7.927-5.661-18.99-12.587-38.652-20.587-58.439L806.639,92.3A170.893,170.893,0,0,0,796.4,70.023a67.234,67.234,0,0,0-15.277-18.814c-3.6-.949-7.2-1.622-10.685-2.272-6.24-1.166-12.135-2.267-18.083-4.822a115.264,115.264,0,0,0,6.029,16.225,8.763,8.763,0,0,1,2.348-.3,8.874,8.874,0,0,1,5.576,1.776l.8-.145c1.017-.194,2.121-.435,3.095-.648l.038-.008.016,0c1.069-.233,1.992-.435,2.352-.474a30.308,30.308,0,0,1,4.17-.3,20.9,20.9,0,0,1,7.893,1.437,17.8,17.8,0,0,1,5.925,3.961,26.718,26.718,0,0,1,5.815,9.527,57.493,57.493,0,0,1,2.967,12.252c1.241,8.678,1.218,18.041,1.2,25.565v.1c0,1.53-.007,2.974,0,4.337.176,9.753.382,20.226.7,30.736A16.868,16.868,0,0,1,806.754,147.289ZM521.04,31.473h0a25.525,25.525,0,0,0-6.648.856,24.023,24.023,0,0,0-5.789,2.42,31.671,31.671,0,0,0-9.361,8.635,64.661,64.661,0,0,0-7.019,12.2c-1.774,3.9-3.494,8.338-5.415,13.978a175.835,175.835,0,0,0-9.08,39.442,238.556,238.556,0,0,0-1.06,40.883l.944-1.258c.811-1.089,1.639-2.22,2.516-3.417l.061-.083c4.763-6.5,10.159-13.866,16.4-19.753,7.264-6.852,14.121-10.182,20.962-10.182a21.117,21.117,0,0,1,4.042.394c-.225-12.906.493-23.691,2.194-32.97a76.865,76.865,0,0,1-.655-21.273c.152-3.159,1.482-5.307,4.066-6.565,2.281-1.111,5.224-1.411,8.07-1.7,1.526-.155,2.963-.3,4.288-.564a21.579,21.579,0,0,1,11.962-3.883,18.914,18.914,0,0,1,6.873,1.307c5.234-.7,10.493-1.371,15.133-1.963.72-1.595,1.3-3.161,1.911-4.818l.139-.376c-10.6-2.208-21.254-4.478-31.555-6.674l-.647-.138q-4.83-1.029-9.658-2.057a37.8,37.8,0,0,0-12.67-2.442ZM151.007,2374.8a36.327,36.327,0,0,1-4.452-.178,270.792,270.792,0,0,1-30.2-2.52,211.555,211.555,0,0,1-29.632-6.362l-1.495-.444c-4.11-1.15-17.548-5.093-17.927-7.525a.8.8,0,0,1,.454-.788c7.689.683,15.442,1.593,22.938,2.472,15.274,1.792,31.068,3.645,46.894,3.645,3.058,0,6.075-.069,8.968-.206a306.615,306.615,0,0,0,39.985-3.24c6.672-1.024,13.264-2.269,19.593-3.7,1.214-.271,2.438-.575,3.518-.844a44.359,44.359,0,0,1,10.716-1.764,20.123,20.123,0,0,1,4.486.489c2.912,2.192,4.057,4.3,3.4,6.252-.834,2.5-4.589,4.8-11.159,6.838a146.9,146.9,0,0,1-22.338,4.552A364.275,364.275,0,0,1,151.007,2374.8Zm775.277-15.883c-9.293-.03-18.345-.45-26.9-1.25a237.367,237.367,0,0,1-26.874-4.014,186.333,186.333,0,0,1-26.029-7.438,150.067,150.067,0,0,1-24.369-11.521c-.521-.783-.681-1.376-.473-1.763s.77-.574,1.683-.574c2.709,0,7.931,1.639,12.127,2.956a36.286,36.286,0,0,0,5.488,1.51,311.145,311.145,0,0,0,51.313,8.632c7.2.547,14.455.825,21.579.825,4.467,0,8.969-.11,13.383-.326,6.128-.213,12.3-.93,18.26-1.624h.009c2.429-.281,4.94-.573,7.414-.827l.307-.015c.13,0,.27-.007.415-.007,3.6,0,9.2,1.511,10.348,4.35.577,1.427-.019,3.008-1.771,4.7-7.241,5.627-16.991,5.808-26.42,5.982C932.443,2358.573,929.3,2358.63,926.284,2358.918Zm-717.378-50.929a9.789,9.789,0,0,1-1.523-.123c-10.873-2.65-20.763-4.607-30.233-5.983a215.719,215.719,0,0,0-30.792-2.363,160.131,160.131,0,0,0-23.375,1.657,132.782,132.782,0,0,0-22.913,5.462.472.472,0,0,1-.156.027.549.549,0,0,1-.5-.46.46.46,0,0,1,.255-.542,174.119,174.119,0,0,1,26.5-10.761,144.343,144.343,0,0,1,27.976-5.777,110.4,110.4,0,0,1,16.016-.9,157.345,157.345,0,0,1,26.055,1.968,56.374,56.374,0,0,1,11.1,2.958c3.3,1.33,5.637,2.917,6.946,4.718a6.51,6.51,0,0,1,.885,6.135A6.331,6.331,0,0,1,208.906,2307.989Zm627.032-16.626a5.4,5.4,0,0,1-4.46-2.579,1.09,1.09,0,0,1,.379-1.475,131.856,131.856,0,0,1,26.277-10.337,146.847,146.847,0,0,1,27.815-4.8c3.651-.278,7.518-.419,11.493-.419,5.01,0,10.3.215,16.181.659l3,.234a57.578,57.578,0,0,1,12.34,1.907l.739.237a22.339,22.339,0,0,1,6.733,4.006c2.583,2.185,4.077,4.412,4.206,6.269.122,1.758-.933,3.189-3.137,4.257a23.409,23.409,0,0,1-7.331,1.152c-4.708,0-9.162-1.293-13.876-2.663l-.03-.009c-1.579-.458-3.212-.933-4.866-1.358a137.15,137.15,0,0,0-31.62-3.559,187.364,187.364,0,0,0-44.362,5.7l3.486,1.122a.192.192,0,0,1,.112-.038.266.266,0,0,1,.231.181.208.208,0,0,1-.056.241A4.891,4.891,0,0,1,835.938,2291.362ZM220.08,2278.933c-5.042,0-10.287-2.04-15.358-4.012-2.528-.984-4.914-1.911-7.2-2.56a169.331,169.331,0,0,0-44.808-5.926,180.476,180.476,0,0,0-33,3.059.276.276,0,0,1-.058.231c-.314.39-1.735.433-2.988.47a8.8,8.8,0,0,0-1.947.171h-.049a13.509,13.509,0,0,0-1.933.347l-.238.051-.417.089a18.2,18.2,0,0,1-3.3.489c-.625,0-.988-.118-1.111-.36s-.006-.572.325-1.021c17.972-7.973,39.155-12.015,62.961-12.015a237.854,237.854,0,0,1,28.182,1.748l2.156.263c.858.1,1.723.195,2.639.295l.017,0a70.993,70.993,0,0,1,13.773,2.431c5.027,1.616,8.533,4.136,10.719,7.7a4.79,4.79,0,0,1,.458,4.144,5.88,5.88,0,0,1-3.533,3.511A15.131,15.131,0,0,1,220.08,2278.933Zm707.572-9.644c-5.971,0-11.681-2.889-17.2-5.683-2.518-1.275-5.122-2.593-7.675-3.585a147.288,147.288,0,0,0-25.077-6.978,143.388,143.388,0,0,0-25.994-2.406,129.657,129.657,0,0,0-33.543,4.315c-.164.972-.358,2.107-.564,3.262a.437.437,0,0,1,.244-.079.493.493,0,0,1,.433.319.472.472,0,0,1-.093.529,3.615,3.615,0,0,1-2.059.709,2.9,2.9,0,0,1-2.838-2.469c-.372-2.038,1.029-4.895,6.077-6.8a116.492,116.492,0,0,1,25.354-8.881,121.729,121.729,0,0,1,54.277.217l1.1.316c1.109.313,2.271.626,3.5.959l.1.027c5.968,1.613,12.732,3.442,18.631,6.318,6.865,3.347,11.023,7.406,12.711,12.406a5.792,5.792,0,0,1-.669,4.624,5.175,5.175,0,0,1-3.361,2.563A17.884,17.884,0,0,1,927.652,2269.289Zm-687.276-16.417c-4.2,0-9.431-2.24-14.492-4.406-3.89-1.666-7.562-3.238-10.492-3.673a170.663,170.663,0,0,0-49.236-7.044,198.775,198.775,0,0,0-44,5.038l-1.042.24.738,5.267c.073.253.074.431,0,.526a.222.222,0,0,1-.189.082c-.695,0-2.678-1.824-3.482-3.692a2.717,2.717,0,0,1,.226-3.036,107.236,107.236,0,0,1,25.807-8.953,202.259,202.259,0,0,1,27.189-3.885c3.461-.23,7.006-.347,10.536-.347a184.765,184.765,0,0,1,48.678,6.822l3.614,1a33.739,33.739,0,0,1,8.1,3.165,11.637,11.637,0,0,1,3.141,2.65,7.434,7.434,0,0,1,1.587,3.676,5.006,5.006,0,0,1-2.1,5.225A7.369,7.369,0,0,1,240.376,2252.872Zm555.829-12.881a1.818,1.818,0,0,1-1.713-.969,4.579,4.579,0,0,1,.538-4.254c1.314-1.936,3.735-2.877,5.871-3.708.48-.187.934-.363,1.378-.551a146.2,146.2,0,0,1,17.617-6.339,179.03,179.03,0,0,1,18.235-4.245,177.2,177.2,0,0,1,31.454-2.762c5.672,0,11.449.261,17.172.777l1.909.177c.642.057,1.4.117,2.2.18l.049,0a124.1,124.1,0,0,1,17.3,2.283,38.546,38.546,0,0,1,8.484,2.836,12.85,12.85,0,0,1,5.556,4.655c1.416,2.4,1.392,5.254-.072,8.49a4.606,4.606,0,0,1-4.4,2.543,6.213,6.213,0,0,1-2.767-.642c-7.578-3.85-15.794-5.317-24.975-6.711a233.118,233.118,0,0,0-32.086-2.237,222.039,222.039,0,0,0-59.182,7.95,1.062,1.062,0,0,1,.064,1.031,2.853,2.853,0,0,1-2.013,1.43A3.453,3.453,0,0,1,796.205,2239.991Zm-623.9-46.849a32.075,32.075,0,0,1-11.955-2.239,30.108,30.108,0,0,1-9.392-5.954,30.65,30.65,0,0,1-6.428-8.521,29.622,29.622,0,0,1-3.06-9.939,26.626,26.626,0,0,1,.472-9.269,24.611,24.611,0,0,1,3.867-8.636,27.114,27.114,0,0,1,7.562-7.148,38.022,38.022,0,0,1,11.555-4.806,16.9,16.9,0,0,1,5.5-3.132,19.341,19.341,0,0,1,12.968.139,16.836,16.836,0,0,1,5.782,3.595,12.561,12.561,0,0,1,7.331,4.949,14.366,14.366,0,0,1,2.932,8.087,25.193,25.193,0,0,1,3.26,12.34,30.411,30.411,0,0,1-2.622,12.423,32.1,32.1,0,0,1-7.937,10.987,27.132,27.132,0,0,1-11.874,6.267A38.652,38.652,0,0,1,172.306,2193.143Zm672.817-25.7a25.835,25.835,0,0,1-10.287-2.1,27.082,27.082,0,0,1-8.3-5.626,30.389,30.389,0,0,1-8.718-17.642,27.281,27.281,0,0,1,.41-9.422,25.218,25.218,0,0,1,3.887-8.886,28.059,28.059,0,0,1,7.77-7.463,40.263,40.263,0,0,1,12.057-5.15,34.7,34.7,0,0,1,6.1-.561,27.8,27.8,0,0,1,9.136,1.485,24.65,24.65,0,0,1,7.359,4.057,25.437,25.437,0,0,1,5.436,6.036,27.748,27.748,0,0,1,3.365,7.422,29.816,29.816,0,0,1-.633,18.337,31.228,31.228,0,0,1-13.024,15.8A32.4,32.4,0,0,1,845.123,2167.445ZM443.2,1605.959a3.4,3.4,0,0,1-2.955-2.162,4.042,4.042,0,0,1,.45-4.334,98.28,98.28,0,0,1,17.536-16.054,146.467,146.467,0,0,1,20.419-12.15l.851-.423a143.446,143.446,0,0,1,45.829-14.054.9.9,0,0,1,.152-.013.741.741,0,0,1,.74.637.686.686,0,0,1-.5.779,171.17,171.17,0,0,0-21.446,8.857c-6.509,3.194-13.1,6.863-20.145,11.217-13.086,8.085-25.793,17.364-38.081,26.336l-.016.012-.908.663A3.255,3.255,0,0,1,443.2,1605.959Zm420.457-13.687a5.373,5.373,0,0,1-2.361-.578,77.192,77.192,0,0,1-15.358-10.131,118.363,118.363,0,0,1-13.2-12.981,124.352,124.352,0,0,1-10.945-14.6c-2.971-4.6-5.862-9.621-9.1-15.806a.569.569,0,0,1,0-.574.609.609,0,0,1,.511-.284.582.582,0,0,1,.483.266c5.977,8.443,14.159,17.071,24.319,25.646a227.944,227.944,0,0,0,20.449,14.849l.018.012c2.516,1.687,5.118,3.432,7.667,5.2a5.2,5.2,0,0,1,2.046,2.622,4.715,4.715,0,0,1,0,2.892,5.121,5.121,0,0,1-1.67,2.454A4.558,4.558,0,0,1,863.654,1592.272ZM427.934,1493.3a7.014,7.014,0,0,1-5.807-3.17,6.859,6.859,0,0,1-1.1-3.3,8.4,8.4,0,0,1,.759-4.005c5.451-12.333,10.828-23.51,16.439-34.17,6.151-11.684,12.39-22.385,19.075-32.715l4.448-6.618c23.014-34.188,48.111-70.584,75.677-105.109,29.9-37.444,58.992-67.979,88.951-93.348-8.037,13.538-17.769,28.365-29.751,45.328-10.69,15.134-22.185,30.59-33.3,45.538l-.028.038-.005.007c-19.008,25.559-38.664,51.988-55.434,78.277-8.168,12.155-16.2,24.678-23.974,36.789l0,.007C468.189,1441.3,451.966,1466.581,433.9,1490A7.4,7.4,0,0,1,427.934,1493.3Zm429.69-165a4.536,4.536,0,0,1-3.509-1.8,292.434,292.434,0,0,1-30.854-45.878c-7.732-13.965-15.4-29.836-24.14-49.946-3.6-7.781-6.954-15.838-10.266-24.633-2.949-7.832-5.793-16.074-8.7-25.2-5.387-16.934-10.148-34.387-14.754-51.266l-.006-.021-1.047-3.834a.7.7,0,0,1,.089-.645.828.828,0,0,1,.659-.316.735.735,0,0,1,.69.443l.038.1c4.435,12.191,9.378,24.442,15.112,37.453,5.11,11.6,10.735,23.53,17.194,36.484,12,24.076,25.136,48.087,37.834,71.309l0,.008c8.82,16.128,17.939,32.805,26.588,49.333a5.658,5.658,0,0,1-.37,5.588A5.594,5.594,0,0,1,857.625,1328.3Z" transform="translate(86 5)"></path></g><g transform="translate(225 0)"><g><g><path id="_Skin" data-name="âœ‹ Skin" d="M171.2.076C321.717,4.841,330.8,76.333,330.8,196.227s-78.08,195.446-106.83,208.638S119.512,474.723,51.195,448.61,2.661,312.174,2.661,264.772,20.692-4.69,171.2.076Z" transform="translate(89.078 105.098)" fill="#d08b5b"></path><path id="_hijab" data-name="ðŸ§• hijab" d="M0,185.848Q46.681-4.5,170.435.109C294.19,4.717,292.885,130.854,285.121,119.353q-7.609-11.271-106.542-78.747L174.5,37.828Z" transform="translate(114.805 109.597)" fill="#9fd8e5"></path><path id="_Ink" data-name="ðŸ– Ink" d="M259.92,626.617c-20.991,0-40.977-8.048-57.759-15.919C172.23,596.669,142.39,581,113.534,565.856l-.021-.011c-8.868-4.655-18.037-9.469-27.062-14.157-22.419-11.64-40.744-21.24-57.669-30.211-1.6-.846-3.693-1.983-5.756-3.28l-.439-.006h-.073c-.344-.005-.734-.011-1.112-.011-1.284,0-2.607.078-4.008.161-1.419.084-2.883.17-4.319.17a19,19,0,0,1-5.769-.735A10.182,10.182,0,0,1,.464,510.9a12.007,12.007,0,0,1-.442-4.108,18.086,18.086,0,0,1,2.581-8c3.252-5.47,8.735-10.084,13.573-14.155l.962-.81c5.815-4.905,11.808-9.3,16.9-12.947,2.371-1.7,4.8-3.407,7.156-5.059,4.259-2.991,8.662-6.083,12.894-9.253l.159-.242c.3-.459.613-.934.91-1.413A79.648,79.648,0,0,0,66.731,420.3a114.656,114.656,0,0,1-6.78-9.36,243.816,243.816,0,0,1-26.76-57.662,310.665,310.665,0,0,1-12.929-62.318,286.061,286.061,0,0,1,.379-63.157A265.072,265.072,0,0,1,59.1,117.638,271.963,271.963,0,0,1,92.292,74.5a258.875,258.875,0,0,1,41.191-35.417,237.77,237.77,0,0,1,47.87-25.577A197.95,197.95,0,0,1,215.641,3.477,185.089,185.089,0,0,1,251.079,0a172.656,172.656,0,0,1,32.314,3.028,162.51,162.51,0,0,1,26.436,7.449,175.031,175.031,0,0,1,25.04,11.734A179.647,179.647,0,0,1,357.8,37.7a174.366,174.366,0,0,1,20.1,18.716,195.489,195.489,0,0,1,14.733,18.214,213.12,213.12,0,0,1,12.481,19.7,251.955,251.955,0,0,1,18.8,42.807c9.233,27.47,14.963,58.418,17.03,91.983,2.536,41.285-1.609,81.248-12.321,118.778a345.913,345.913,0,0,1-20.418,53.677,381.7,381.7,0,0,1-28.691,49.9c1.032,1.549,2.173,3.2,3.7,5.341,5.085,7.114,10.512,14.8,15.75,22.782a158.154,158.154,0,0,1,12.44,22.036,79.145,79.145,0,0,1,6.859,24.063,63.1,63.1,0,0,1,.36,8.279,11.959,11.959,0,0,1-3.639,8.036,11.485,11.485,0,0,1-7.941,3.536,9.136,9.136,0,0,1-5.44-1.8,24.975,24.975,0,0,0-15.123-4.817,45.038,45.038,0,0,0-14.178,2.657c-5.251,6.651-10.695,13.327-16.179,19.84-7.4,8.775-14.1,16.655-21.25,24.242a204.685,204.685,0,0,1-23.65,21.837,97.331,97.331,0,0,1-24.017,13.86,74.84,74.84,0,0,1-27.153,5.25ZM112.072,481.956a3.845,3.845,0,0,0-2.55,1,4.6,4.6,0,0,0-1.424,2.315,3.5,3.5,0,0,0,1.868,4.108,161.641,161.641,0,0,0,29.9,12.207,255.162,255.162,0,0,0,31.531,7.2,4.608,4.608,0,0,0,.764.066,4.407,4.407,0,0,0,4.241-4.116,3.238,3.238,0,0,0-2.879-3.663,257.159,257.159,0,0,1-30.545-6.881A152.927,152.927,0,0,1,114,482.468,4.065,4.065,0,0,0,112.072,481.956Zm29.456-32.784a4.477,4.477,0,0,0-4.007,2.8,3.456,3.456,0,0,0,1.011,3.943,142.081,142.081,0,0,0,19.9,15.174,162.913,162.913,0,0,0,22.045,11.64,207.226,207.226,0,0,0,47.949,13.957,4.6,4.6,0,0,0,.77.066,4.013,4.013,0,0,0,2.972-1.3,4.758,4.758,0,0,0,1.263-2.813,3.243,3.243,0,0,0-2.877-3.671,204.494,204.494,0,0,1-46.043-13.187,154.532,154.532,0,0,1-21.2-11.032,132.517,132.517,0,0,1-19.117-14.5A3.909,3.909,0,0,0,141.529,449.172ZM288.893,115.057q-.987.8-1.97,1.6l-.128.1-1.883,1.532c-3.248,2.647-6.508,5.323-9.661,7.911l-.008.007c-4.74,3.89-9.641,7.912-14.491,11.833-17.3,13.991-34.4,28.262-47.37,39.131-25.339,21.237-58.782,49.2-92.76,77.149A157.068,157.068,0,0,0,117.639,286a191.219,191.219,0,0,0,2.883,31.7,205.079,205.079,0,0,0,9.062,33.68c4.267,12.017,9.348,23.558,13.3,32.27,6.7,6.267,12.388,11.347,17.9,15.988,6.557,5.518,12.791,10.34,19.058,14.743,16.831,11.815,33.016,20.166,49.48,25.53a125.606,125.606,0,0,0,38.974,6.448,105.76,105.76,0,0,0,25.588-3.087,99.739,99.739,0,0,0,24.458-9.68,128.385,128.385,0,0,0,31.9-25.547,166.2,166.2,0,0,0,23.555-33.5c13.446-24.956,20.865-53.965,22.681-88.683a405.391,405.391,0,0,0-.5-46.627c-1.029-16.444-2.76-32.6-4.318-46.241a4.653,4.653,0,0,1-.653.046,5.287,5.287,0,0,1-1.356-.185c-3.983-1.068-6.952-4.384-9.824-7.591-.876-.979-1.7-1.9-2.555-2.759-4.047-4.077-8.186-8.037-12.3-11.771-7.848-7.122-16.282-14.076-25.069-20.669C331.205,143.548,322,137.475,313.1,131.6,305.08,126.308,296.783,120.833,288.893,115.057Zm3.819-18.84a99.522,99.522,0,0,0-15.359,1.316,103.3,103.3,0,0,0-14.767,3.581,121.235,121.235,0,0,0-27.733,13.193c-8.339,5.293-16.912,11.349-25.481,18-7.8,6.054-15.847,12.8-23.92,20.042A290.134,290.134,0,0,0,164.488,173.1a222.439,222.439,0,0,0-18.365,23.022,175.4,175.4,0,0,0-14.636,25.387,147.385,147.385,0,0,0-9.775,27.843l-.066.279c-.134.566-.273,1.151-.4,1.73,27.225-26.642,56.177-53.649,86.05-80.27,9.121-8.128,18.423-16.355,27.42-24.312l.018-.016.011-.009c6.037-5.34,12.28-10.861,18.412-16.3,6.929-6.144,14.064-12.286,20.964-18.226l2.536-2.183,2.8-2.412.024-.021c2.939-2.53,5.978-5.146,8.973-7.708.512-.439,1.03-.9,1.532-1.342l.008-.007C290.873,97.767,291.784,96.96,292.712,96.217Zm13.591.82a4.976,4.976,0,0,1-.211.87,15.3,15.3,0,0,1-3.346,5.511,43.257,43.257,0,0,1-4.82,4.29l-.014.011q-.446.36-.9.727c-1.348,1.087-2.695,2.191-3.851,3.14A136.778,136.778,0,0,1,321.11,123.52,248.327,248.327,0,0,1,346.7,140.088a310.477,310.477,0,0,1,26.91,21.979c4.154,3.787,8.286,7.757,12.281,11.8.63.636,1.307,1.278,2.024,1.958l.007.006c.639.606,1.3,1.232,1.948,1.876l-.11-.942-.013-.115c-.059-.5-.118-1-.177-1.5a6.547,6.547,0,0,1,1.291-4.619,102.185,102.185,0,0,0-12.246-27.118,103.736,103.736,0,0,0-19.162-22.22,102.347,102.347,0,0,0-24.6-15.924A99.118,99.118,0,0,0,306.3,97.037Z" transform="translate(3 36.999)"></path></g></g><g transform="translate(159 186)"><g><path d="M175.373 49.5872C175.699 49.4437 175.991 49.2049 176.203 48.8583C178.978 44.3099 179.267 38.8813 178.039 33.5637C176.563 27.172 172.899 20.9588 168.944 16.7559C163.959 11.4582 157.895 7.75374 151.246 4.94731C150.762 4.74287 150.267 4.53098 149.763 4.31514C142.964 1.40541 134.597 -2.01031 127.865 1.47064C125.161 2.86951 123.673 5.20381 123.256 7.7496C122.814 10.4534 123.597 13.4099 125.462 15.7216C128.557 19.5594 133.339 20.3533 138.087 21.0465C139.602 21.2677 141.106 21.486 142.53 21.8229C147.429 22.9821 152.604 24.4361 157.104 26.7244C166.253 31.3762 170.54 38.5898 172.747 48.2853C172.837 48.6781 173.037 48.9988 173.3 49.2406C173.575 49.4928 173.921 49.6579 174.285 49.7192C174.651 49.7808 175.032 49.7375 175.373 49.5872ZM58.3942 19.1934C55.0693 22.4329 51.1339 22.9347 47.1526 23.381C44.9405 23.6313 43.1746 23.8331 41.4369 24.2252C36.6605 25.3034 31.9393 26.9272 27.6319 29.2659C23.1292 31.7106 18.2224 34.659 14.6922 38.4361C13.8528 39.3349 13.0615 40.278 12.2691 41.2232C11.5465 42.0851 10.8505 42.9149 10.1169 43.7149C9.27449 44.6339 8.47449 45.597 7.67875 46.5576C7.1867 47.3681 7.0895 47.5675 6.99041 47.775C6.8413 48.0869 6.66786 48.4359 6.46976 48.8103C6.19845 49.323 5.88066 49.8843 5.54784 50.3932C4.9941 51.3234 4.69697 51.5796 4.44022 51.6942C4.01419 51.8839 3.61015 51.9774 3.21817 51.9268C2.85064 51.8793 2.50438 51.7028 2.16244 51.4138C0.455387 49.9715 -0.0480658 47.6046 0.00353523 45.092C0.0818393 41.2793 1.48813 37.0578 2.78452 34.4628C5.79888 28.4331 9.97938 22.1649 15.0062 17.6646C20.7422 12.5276 27.0177 8.63869 34.2256 5.95894C38.705 4.29304 43.8913 2.76391 48.7713 2.95706C52.284 3.09609 55.6373 4.14026 58.4066 6.74782C60.1072 8.34853 60.9235 10.6254 60.9235 12.9006C60.9235 15.2211 60.0757 17.5554 58.3942 19.1934ZM164.634 78.3299C166.478 78.8824 167.779 78.6212 169.441 77.7551C170.719 77.0896 171.589 76.0387 172.088 74.8117C172.599 73.5559 172.706 72.1077 172.454 70.7659C171.405 65.1948 168.042 60.2513 163.503 57.0672C159.091 53.9728 153.589 52.5435 148.048 53.7341C144.003 54.6036 138.007 58.4424 134.85 63.1243C133.504 65.1203 132.671 67.2595 132.581 69.3723C132.495 71.387 133.008 73.4183 135.676 76.096C135.935 76.177 136.208 76.2208 136.477 76.2208C137.138 76.2208 137.821 75.9439 138.274 75.5441C139.469 74.4935 140.311 73.1636 141.178 71.7329C141.641 70.9679 142.102 70.1976 142.69 69.5195C144.449 67.4927 147.002 65.7736 149.683 65.3262C152.167 64.911 154.406 65.6469 156.181 67.0355C158.256 68.6601 159.713 71.1522 160.252 73.8146C160.472 74.8933 161.036 75.8657 161.818 76.6477C162.607 77.4367 163.615 78.0237 164.634 78.3299ZM46.1749 69.1109C43.7479 67.5587 40.8928 67.0259 37.7287 68.4655C35.256 69.5899 30.9192 73.3385 27.9011 78.2662C25.8363 81.6374 24.3721 85.5922 24.6769 89.7117C24.7477 90.6684 24.3942 91.3738 23.8366 91.8954C23.3962 92.3073 22.7601 92.61 22.013 92.7047C21.3786 92.785 20.6686 92.7125 20.0913 92.5324C18.9931 92.1896 18.4119 91.4772 18.1929 90.8957C16.0797 85.2836 16.9901 79.0208 19.3585 73.3707C22.5547 65.7456 28.3592 59.3585 32.1622 57.2993C38.6698 53.7742 46.347 53.612 52.8639 57.2031C58.4114 60.2596 61.8802 65.1942 65.3301 70.2242C66.0635 71.2934 66.7914 72.3548 67.5436 73.3976C69.0513 75.487 69.2013 77.5593 68.6175 79.3363C67.9707 81.3049 66.3215 82.9663 64.2592 83.8357C62.353 84.6393 60.1407 84.7524 58.1831 83.9268C56.5293 83.2293 55.0117 81.8695 54.0513 79.5625C52.434 75.6771 49.7393 71.3904 46.1749 69.1109ZM127.748 115.98C135.872 104.601 124.366 93.898 116.814 89.3079C114.836 87.8879 116.406 83.1842 120.634 83.9112C159.031 90.5082 139.136 156.649 90.112 120.354C84.2754 115.645 91.3434 105.275 97.6342 109.307C97.9532 109.552 98.2876 109.81 98.6364 110.08C105.704 115.544 118.636 125.542 127.748 115.98ZM117.042 185.1C109.675 187.233 101.768 187.424 94.2589 185.221C87.4481 183.222 80.4549 178.823 75.4423 173.003C70.9894 167.832 68.1055 161.549 68.2187 154.842C68.2316 154.076 68.5055 153.436 68.9268 152.94C69.3804 152.406 70.014 152.039 70.6926 151.88C71.3906 151.716 72.1285 151.774 72.7568 152.059C73.3256 152.318 73.8129 152.757 74.1176 153.398C74.8879 154.41 75.6553 155.407 76.4257 156.376C82.6196 164.024 88.618 169.74 97.9319 171.79C102.985 172.903 108.032 172.409 112.663 170.712C117.62 168.895 122.102 165.7 125.613 161.612C127.2 159.765 129.074 159.011 130.905 158.998C132.982 158.983 135.034 159.948 136.579 161.49C138.099 163.006 139.116 165.065 139.209 167.219C139.29 169.11 138.673 171.085 137.032 172.848C131.626 178.652 124.621 182.904 117.042 185.1Z" transform="translate(54.00004 55.05923)" fill-rule="evenodd" stroke="none"></path></g></g><g transform="translate(123 338)"></g><g transform="translate(47 241)"><g><path d="M375.513 33.9959C378.273 31.6829 383.089 31.1349 386.423 31.1279C394.028 32.5829 390.88 44.1729 376.385 36.9629C398.166 128.052 258.709 131.937 282.237 45.3469C268.157 41.9599 253.29 41.6839 240.365 48.1139C251.522 87.8139 214.401 125.982 171.734 116.181C144.179 109.783 125.789 88.4229 134.308 57.0269C128.899 58.7229 118.76 57.3109 115.622 53.0899C104.775 52.1634 93.9913 50.8415 83.2204 49.5212C59.091 46.5633 35.0273 43.6135 10.4674 45.1359C7.12749 45.5983 7.31436 47.952 7.50111 50.304C7.68714 52.6469 7.87304 54.9883 4.57241 55.4569C-3.01759 54.7649 -0.0355915 41.9389 5.39841 39.8539C13.0234 34.3889 78.5984 39.8119 116.105 49.6479C121.083 46.3825 128.583 47.3802 134.493 48.1664C135.445 48.2929 136.355 48.414 137.206 48.5109C144.594 30.0029 168.272 6.93191 192.028 10.8229C213.793 12.0919 232.079 20.6889 239.509 45.2399C250.854 34.9489 271.426 31.6259 284.509 39.4079C291.765 23.0939 304.532 10.8229 321.737 5.28991C343.585 -10.2001 368.707 11.0429 375.513 33.9959ZM358.311 87.4579C346.17 100.003 325.902 103.603 309.749 96.8749C268.273 79.5459 288.574 25.4959 320.561 10.9809C324.557 9.98491 329.894 7.62191 334.761 7.08591C334.928 7.0043 335.168 7.04274 335.465 7.09029C335.954 7.1686 336.598 7.27161 337.32 6.90391C372.591 10.8419 380.623 65.5939 358.311 87.4579ZM164.916 105.906C185.6 114.302 210.916 108.73 224.533 90.6689C249.948 57.3679 225.561 0.903908 166.504 23.0949C138.547 41.8849 124.054 89.8139 164.916 105.906ZM135.953 50.6509C135.915 50.6329 135.877 50.6239 135.838 50.6059C136.054 50.5109 136.27 50.4159 136.485 50.3189C136.415 50.5019 136.339 50.6829 136.271 50.8659C136.165 50.7929 136.072 50.7079 135.953 50.6509Z" transform="translate(13.99969 7.999794)" fill-rule="evenodd" stroke="none"></path></g></g></g></g></svg>