<?xml version="1.0" standalone="no"?>
<svg viewBox="-305 -150 1500 1500" style="width: 487.5px; height: 487.5px; justify-content: center; align-self: center; transform: scale(-1, 1);" xmlns="http://www.w3.org/2000/svg" width="609" height="609"><g transform="rotate(0 519.7948112487793 524.7432098388672)"><g id="body_Macbook" data-name="body/Macbook" transform="translate(0 459)"><path id="_Skin" data-name="âœ‹ Skin" d="M971.081,233.472l-42.838,4.2c-68.388,5.225-136.749,16.137-204.613,22.686-1.69-2.75-5-2.3-7.005-.386-6.772-.593-14.361-5.769-20.5-.385-.2-.028-.4-.061-.6-.08-10.922-20.963-18.472-43.322-25.8-65.711-4.677-13.765-10.969-27.09-22.6-36.332-19.844-13.775-65.312-41.708-88.613-40.534A17.3,17.3,0,0,0,553,105.684c7.038-12-21.1-19.828-23.088-18.437,1.272-40.088-17.585-74.9-59.165-82.885C433.492-3.4,380.509-4.7,360.475,34.225c-2.2-.248-24.713-.365-26.892-.121-3.386-4.289-40.576,36.353-25.334,50.5C171.978,144.888,94.493,137.7,56.775,307.164c-5.1,15.92-5.471,33.341-10.855,48.906C26.763,400.8,11.226,448.432,7.359,497.1c-9.339,2.393-10.414,18.86.4,21.242,4.132.911,7.588,2.155,10.6,4.514-2.355,39.886,7.291,131,13.369,130.719,12.394,39.443,67.675,50.575,106.813,36.714-6.747,12.693,0,20.674,0,27.456,140.827,5.328,294.807,2.26,435.595,9.567,18.009-.256,36.951,4.423,54.714,1.73,10.833-2.6,10.851-19.63-.137-21.736l48.013-10.428c-1.073-.4,19.791-14.283,35.56-40.216,14.678-29.01,4.688-64.028,11.339-95.584,51.944-4.248,104.748-6.064,156.124-14.861,7.005,20.959,37.329-4.107,46.967-14.19l-.036-.047a11.708,11.708,0,0,0,8.531-10.824c3.271-4.674,3.958-11.262.821-15.779,14.378-82.968,36.3-167.68,44.222-251.428a17.73,17.73,0,0,0,7.675-3.74l-.181-.181c3.789-4.224,4.526-11.515-1.791-15.1C980.865,232.029,976.611,232.928,971.081,233.472Z" transform="translate(25.001 -24)" fill="#d08b5b"></path><path id="_Top" data-name="ðŸ‘• Top" d="M599.044,706.568c-18.912,0-46.669-1.85-82.5-5.5-15.769-1.606-48.213-3.12-96.432-4.5-40.841-1.168-85.028-2.025-117.292-2.651h-.1c-16.834-.327-30.13-.585-38.016-.791l-2.164-.059c-22.335-.645-44.847-.971-66.91-.971s-44.3.327-66.09.971v-27l125-62,112-63,54-25,11,7,90,29,55,7,45-7v77l9,72c-1,1.825-4.149,3.212-9.375,4.125S608.5,706.568,599.044,706.568ZM170.6,504.653H147.368L12.183,472.007,0,467.986a336.59,336.59,0,0,1,5.035-35.972c2.221-11.447,5.108-23.361,8.58-35.412a584.928,584.928,0,0,1,24.849-68.464c2.783-8.043,4.253-16.741,5.675-25.153,1.335-7.9,2.715-16.06,5.18-23.753,7.474-33.58,16.611-60.791,27.934-83.188,2.722-5.385,5.623-10.58,8.62-15.439,2.94-4.767,6.071-9.368,9.3-13.675A162.067,162.067,0,0,1,115.9,144.112c13.563-12.348,29.547-22.772,50.3-32.806,18.815-9.1,39.246-16.841,62.9-25.81l.009,0c21.418-8.12,45.693-17.323,71.681-28.819a11.661,11.661,0,0,1-3.639-8.439,27.163,27.163,0,0,1,2.2-10.725c2.617-6.667,7.6-14.493,13.677-21.471A65.377,65.377,0,0,1,320.4,8.686c2.244-1.851,3.967-2.829,4.982-2.829a.9.9,0,0,1,.745.315l.213-.019.462-.024.594-.021c1.561-.045,4.395-.071,7.98-.071,7.273,0,16.307.105,17.642.256A58.258,58.258,0,0,1,356.773,0l8.267,6.172-18.047,29.65,87.913,71.111v56.8l27.832,26.325,15.908-26.325,22.417-29.811L516.994,85.6,511.57,53.76l10.908-1.028c.053,2.169.044,4.384-.026,6.583a1.722,1.722,0,0,1,.9-.16c1.946,0,6.516,1.058,11.154,3.018a35.95,35.95,0,0,1,6.559,3.53,15.183,15.183,0,0,1,4.6,4.662,6.937,6.937,0,0,1-.119,7.386A17.261,17.261,0,0,1,551.065,89c.478-.024.969-.036,1.458-.036,5.534,0,12.559,1.494,20.88,4.442A199.622,199.622,0,0,1,597.7,104.191c7.465,3.85,15.37,8.329,23.495,13.314,8.2,5.033,14.581,9.321,18.486,12.031a57.38,57.38,0,0,1,13.905,16.47,107.9,107.9,0,0,1,8.692,19.862l1.1,3.358,1.138,3.447,1.145,3.445c6.023,18.019,12.906,37.21,22.415,55.461.149.014.3.037.438.057l.026,0,.136.02a9.566,9.566,0,0,1,6.584-2.425,29.364,29.364,0,0,1,7.654,1.447,35.478,35.478,0,0,0,6.258,1.363,5.407,5.407,0,0,1,3.649-1.555,3.772,3.772,0,0,1,3.235,1.754l.121.187L631.8,249.051l-55.66,195.244L527.67,404.949l-26.018,3.87L432.942,433.6,353.03,454.357Z" transform="translate(32.456 3.932)" fill="#ffcf77"></path><path id="_Computer" data-name="ðŸ’» Computer" d="M127.855,341.045v0c5.676-21.482,10.058-39.152,13.793-55.609,1.406-6.2,2.813-12.5,4.173-18.588l0-.014c3.255-14.573,6.621-29.642,10.216-44.4,10.053-41.275,21.627-83.542,34.4-125.626,2.624-8.645,5.355-17.427,8.119-26.1l1.941-6.069,1.494-4.836a57.57,57.57,0,0,1,4.3-10.749,21.378,21.378,0,0,1,7.651-8.269,38.365,38.365,0,0,1,10.529-4.1c3.768-.94,7.693-1.556,11.49-2.152,2-.314,3.885-.61,5.731-.947l6.094-1.145c9.072-1.693,18.285-3.344,27.383-4.909,43.561-7.493,87.947-13.582,131.926-18.1,22.77-2.338,46-4.307,69.044-5.851C498.977,2.05,522.262.894,545.35.145L549.967,0l-2.513,14c-.593.194-1.205.361-1.821.5-.766,8.1-1.7,16.534-2.766,25.072l-15.581,86.839c-2.771,15.84-5.358,31.489-7.771,46.16l-3.356,16.544L514.082,199.4c-4.232,21-8.7,43.6-12.67,66.531a10.917,10.917,0,0,1,1.351,2.679l-.294,1.244-.2.83-.21.819a68.477,68.477,0,0,1-2.758,8.518,39.434,39.434,0,0,1-4.054,7.684,26.434,26.434,0,0,1-5.809,6.149,23.779,23.779,0,0,1-8.022,3.912c-6.941,1.914-14.448,2.539-21.708,3.143-2.477.206-5.037.419-7.507.68l-1.068.116L282.469,320.672c-17.749,2-36.6,4.166-61.116,7.037L203.7,329.78c-4.253.493-8.582.975-12.768,1.441l-.05.006c-20.034,2.232-40.75,4.54-60.791,8.8a5.447,5.447,0,0,0-2.229,1.012ZM377.9,119.157a3.684,3.684,0,0,0-3.677,4.458l.118.6a19.009,19.009,0,0,1-1.177,10.7,27.156,27.156,0,0,1-6.139,9.013,34.544,34.544,0,0,1-5.455,4.077c-3.544,2.315-7.209,4.71-8.594,8.643a7.7,7.7,0,0,0-.107,4.978,9.482,9.482,0,0,0,2.7,4.1l-.58.286-.567.29-.554.293-.54.3-.526.3A30.909,30.909,0,0,0,345.7,172.6a14.068,14.068,0,0,0-3.852,6.936c-.637,3.359.424,6.793,3.154,10.209a22.9,22.9,0,0,0,6.28,5.376,33.262,33.262,0,0,0,7.853,3.282,65.144,65.144,0,0,0,17.552,2.084c2.571,0,5.266-.1,8.237-.294l.868-.06c9.485-.711,26.523-3.823,34.067-16.669a14.2,14.2,0,0,0,2.006-8.4,12.785,12.785,0,0,0-3.572-7.824c-2.474-2.588-7.143-5.528-11.548-5.871a14.244,14.244,0,0,0-.947-6.7,11.518,11.518,0,0,0-4.628-5.154,13.687,13.687,0,0,0-6.781-2.049c.156-3.7-.952-7.706-3.391-12.241a93.688,93.688,0,0,0-7.5-11.164c-.416-.558-.846-1.135-1.262-1.7l-.542-.739-.527-.726a4.021,4.021,0,0,0-3.27-1.745ZM125.48,339.94h0a6.534,6.534,0,0,0-3.826-1.132h-.3a120.46,120.46,0,0,1-30.233-4.192A282.686,282.686,0,0,1,62,325l-2.918-1.112-8.134-3.127c-7.494-2.871-16.228-6.158-25.051-8.835L22.474,310.9l-1.74-.514c-5.925-1.73-12.914-3.558-19.825-4L0,306.335l1.942-1.019a4.591,4.591,0,0,0,.754-.5c1.331.1,2.577.146,3.811.146a41.283,41.283,0,0,0,7.41-.647,69.562,69.562,0,0,0,20.866-7.371l2.9-1.573,1.189-.631.786-.408.781-.394a39.173,39.173,0,0,1,6.272-2.575,23.008,23.008,0,0,1,6.682-1.011,24.152,24.152,0,0,1,5.021.541c6.424,1.352,12.3,4.444,17.977,7.433,1.394.734,2.834,1.492,4.257,2.211l1.281.638.86.416.877.413.888.406c6.717,3.022,12.454,4.554,17.051,4.554,6.32,0,10.349-2.924,11.976-8.692,1.381-4.9.613-9.841-2.282-14.7.176-.015.354-.022.529-.022,2.5,0,5.838,1.362,9.375,2.8,3.462,1.411,7.041,2.87,10.144,3.182l.43.035-6.3,50.36ZM376.3,193.481a64.38,64.38,0,0,1-12.06-.975,27.928,27.928,0,0,1-10.748-4.161c-2.771-1.9-4.38-4.177-4.654-6.58a7.912,7.912,0,0,1,2.441-6.3c2.345-2.552,4.768-5.189,7.281-7.755a10.014,10.014,0,0,0,4.395,1.03,15.86,15.86,0,0,0,6.438-1.654.432.432,0,0,0,.245-.508.546.546,0,0,0-.505-.453c-1.045,0-3.454-.95-5.726-2.258-1.256-.722-4.2-2.57-4.435-4.121-.311-2.068,3.059-3.826,5.288-4.99l.007,0c.244-.127.475-.248.682-.359l.3-.164.26-.151a38.158,38.158,0,0,0,6.063-4.551,32.255,32.255,0,0,0,9.657-15.778l.131-.544,4.841,18.133-.084.149a3.257,3.257,0,0,0,.134,3.264,3.787,3.787,0,0,0,3.126,1.877,2.97,2.97,0,0,0,2.155-.948l.267-.287a3.465,3.465,0,0,1,2.549-1.143,5.336,5.336,0,0,1,3.738,1.884,6.107,6.107,0,0,1,1.749,3.836,11.036,11.036,0,0,1-1.982,6.454,17.186,17.186,0,0,1-4.879,4.667l-.265.172-.7.433a2.9,2.9,0,0,0-1.316,3.352,3.563,3.563,0,0,0,3.4,2.5,3.764,3.764,0,0,0,.567-.044c3.885-.595,7.457-3.57,9.8-8.164a22.163,22.163,0,0,0,2.485.508,14.088,14.088,0,0,1,4.778,1.405,5.632,5.632,0,0,1,3.23,4.237,7.46,7.46,0,0,1-1.209,4.551,17.951,17.951,0,0,1-3.388,4.072l-.16.143-.32.279a34.019,34.019,0,0,1-12.384,6.511,58.539,58.539,0,0,1-13.918,2.239l-.534.024C381.215,193.39,378.79,193.481,376.3,193.481Z" transform="translate(459.6 215.4)" fill="#fff"></path><path id="_Ink" data-name="ðŸ– Ink" d="M644.108,714.587a3.747,3.747,0,0,1-2.779-1.232,17.477,17.477,0,0,1-3.893-6.888,52.855,52.855,0,0,1-1.61-7.814v-.006l0-.016c-.134-.867-.272-1.763-.423-2.645-1.054-6.166-2.009-12.569-2.921-19.574-1.917-14.734-2.971-26.864-3.317-38.176-.4-13.028-.246-26.254.459-39.31.344-6.363.783-13.2,1.666-20.116.406-3.182.759-5.852,1.161-8.539.15-1,.317-2.015.512-3.1l-10.811,1.22c-15.833,1.767-32.725,3.515-49.856,3.781H572.2a5.4,5.4,0,0,1-4.4-2.182,6.206,6.206,0,0,1-5.512,2.948h-.032c-23.787-.088-45.888-8.076-66.227-16.694-5.084-2.155-10.21-4.43-15.168-6.63l-.021-.009c-5.465-2.425-11.117-4.933-16.725-7.286-4.12-1.729-8.429-3.279-12.6-4.778a183.264,183.264,0,0,1-17.826-7.127l-25.62,13.439a10.53,10.53,0,0,1-4.208,5.885,22.7,22.7,0,0,1-4.793,2.566,19.918,19.918,0,0,1-7.67,1.528,20.828,20.828,0,0,1-2.146-.112c-23.43,12.277-41.414,21.685-58.313,30.5l-19.453,10.14c-11.248,5.857-22.577,11.79-33.532,17.527-27.079,14.182-55.08,28.847-82.828,42.866l-2.871,1.445c-12.556,6.3-27.47,13.443-42.885,18.711a76.159,76.159,0,0,0,.22,11.469l.076.873c.034.363.071.725.109,1.109l0,.042a34.478,34.478,0,0,1,.227,6.969,8.763,8.763,0,0,1-2.735,5.912,4.976,4.976,0,0,1-3.266,1.223,3.858,3.858,0,0,1-3.58-2.106,13.446,13.446,0,0,1-1.087-6.814,58.845,58.845,0,0,1,1.049-7.5c.212-1.15.412-2.233.562-3.24a49.273,49.273,0,0,1,1.1-5.6,152.717,152.717,0,0,1-18.426,4.321,114.164,114.164,0,0,1-18.621,1.6,94,94,0,0,1-15.188-1.212,53.069,53.069,0,0,1-12.037-3.487,59.928,59.928,0,0,1-10.721-5.936,76.32,76.32,0,0,1-9.525-7.866,103.674,103.674,0,0,1-8.449-9.279,120.433,120.433,0,0,1-14.3-22.283,121.976,121.976,0,0,1-9.107-24.864,171.148,171.148,0,0,1-4.392-29.823c-.678-10.125-.721-20.489-.666-30.18.068-11.9.338-22.414.828-32.148.578-11.5,1.458-21.983,2.689-32.041a34.716,34.716,0,0,0-7.706-1.091c-.408,0-.81.013-1.194.04a6.187,6.187,0,0,1-2.535,2.257,7.457,7.457,0,0,1-3.274.745,7.594,7.594,0,0,1-.891-.053,4.02,4.02,0,0,0-1.13,3.83c.507,1.989,2.557,4.072,6.091,6.191a45.463,45.463,0,0,0,7.813,3.653,1.61,1.61,0,0,1,1.023,1.808,1.3,1.3,0,0,1-1.344,1.141l-.077,0-1.113-.053c-6.93-.369-13.892-1.577-17.869-7.863A12.081,12.081,0,0,1,.086,486.7a12.958,12.958,0,0,1,3.432-7.266c2.265-21.418,7.434-42.671,12.432-63.224l.032-.131c.571-2.349,1.162-4.778,1.738-7.167,5.119-21.228,11.063-43.562,18.172-68.277l2.918-10.129c4.935-17.091,10.3-35.364,16.09-53.2,6.352-19.568,12.569-36.624,19.007-52.142,3.975-9.582,7.776-17.791,11.62-25.1a177.7,177.7,0,0,1,14.593-23.461,165.137,165.137,0,0,1,16.8-19.283,172.334,172.334,0,0,1,19.551-16.491c11.722-8.5,25.376-16.2,41.743-23.54,14.425-6.47,29.387-11.99,44.724-17.542l1.342-.485c14.93-5.4,30.881-11.246,46.378-17.391,7.018-2.782,14-6,20.743-9.113,6.307-2.91,12.829-5.918,19.36-8.559-.446-.81-.874-1.624-1.272-2.418l-.249.211-.005,0,0,0c-.039.03-.08.061-.122.09a3,3,0,0,1-1.725.51,4.164,4.164,0,0,1-2.755-1.088,5.513,5.513,0,0,1-1.968-4.654,10.219,10.219,0,0,1,1.987-4.737l.276-.394c1.969-2.758,3.8-5.682,5.579-8.51.522-.831,1.113-1.773,1.689-2.679l1.493-2.345c3.916-6.13,8.186-12.549,13.536-17.74a29.28,29.28,0,0,1,8.04-5.529.278.278,0,0,1,.044-.272,2.912,2.912,0,0,1,1.975-.918.734.734,0,0,1,.494.146,47.166,47.166,0,0,1,16.3-2.468c4.548,0,9.154.391,13.114.758l1.887-5.991a10.081,10.081,0,0,1,3.576-4.7A8.322,8.322,0,0,1,377.4,0a8.727,8.727,0,0,1,8.408,6.405,10.754,10.754,0,0,1,.247,4.463c-.932,6.535-4.363,13.319-7.933,19.678-2.279,4.058-5.465,9.209-9.911,13.047,7.4,6.9,15.123,13.59,22.956,19.872a283.248,283.248,0,0,0,26.972,19.081c2.526,1.579,5.127,3.126,7.642,4.622a181.123,181.123,0,0,1,16.831,10.876,65.556,65.556,0,0,1,9.968,9.084,38.513,38.513,0,0,1,7.08,11.406,32,32,0,0,1,2.005,13.769,62.875,62.875,0,0,1-2.612,13.764l-.3,1.026c-.315,1.06-.648,2.119-1,3.24-2.593,8.241-5.531,17.582.118,25.057,2.375,3.142,5.569,5.643,8.658,8.061,1.141.893,2.319,1.816,3.43,2.752a94.3,94.3,0,0,1,10.179,9.975,82.458,82.458,0,0,1,15.879,26.364l.313.888a58.07,58.07,0,0,1,3.218,13.944,26.509,26.509,0,0,1-2.078,13.826,2.59,2.59,0,0,1-2.437,1.484,3.231,3.231,0,0,1-3.133-2.212,59.066,59.066,0,0,1-1.487-8.9,70.593,70.593,0,0,0-1.147-7.558,62.243,62.243,0,0,0-6.221-16.143,87.439,87.439,0,0,0-21.384-25.379l-2.591-2.107a57.965,57.965,0,0,1-9.178-8.932,24.593,24.593,0,0,1-5.143-11.653c-1.173-7.846,1.131-15.474,3.359-22.852l.006-.02c.551-1.826,1.121-3.714,1.625-5.565,2.008-7.374,2.145-13.259.434-18.519a77.772,77.772,0,0,1-5.961,8.052c-.719.889-1.4,1.729-2.046,2.558-3.887,4.979-7.846,9.99-11.675,14.836l-.518.656-2.879,3.645c-5.712,7.239-10.612,13.777-14.98,19.986-2.308,3.283-4.519,6.483-6.376,9.18-.867,1.258-1.94,2.54-2.979,3.779l-.005.007c-.869,1.037-1.767,2.109-2.553,3.176a4.112,4.112,0,0,1-.373,3.738c-1.631,2.2-3.49,3.32-5.528,3.321-3.417,0-7.386-3.1-11.8-9.225a111.606,111.606,0,0,1-8.074-13.618l-.191-.367-.071-.136c-3.452-6.627-6.514-13.57-9.475-20.285-3-6.792-6.092-13.814-9.593-20.512a320.782,320.782,0,0,0-24.588-39.854c-2.1-2.888-4.325-5.752-6.479-8.522-3.533-4.544-7.186-9.242-10.335-14.133a105.675,105.675,0,0,1-20.1,13.922c-7.459,4.12-15.5,7.788-21.962,10.735l-.008,0c-12.321,5.618-25.216,10.514-37.687,15.249l-.025.009c-3.564,1.353-7.25,2.753-10.863,4.146l-4.8,1.865c-15.806,6.169-28.956,11.589-41.758,17.993-15.148,7.577-27.647,15.544-38.212,24.356a143.619,143.619,0,0,0-18.531,18.672,174.344,174.344,0,0,0-15,21.3,229.89,229.89,0,0,0-12.131,23.2c-3.41,7.467-6.655,15.435-9.92,24.36-6.491,17.741-12.774,36.547-19.208,57.494-5.3,17.269-10.652,35.776-16.828,58.243-5.519,20.073-10.75,40.246-15.548,59.959-1.468,6.032-2.874,12.185-4.234,18.137l0,.018c-2.621,11.475-5.332,23.341-8.61,34.855.444-.016.89-.023,1.323-.023,6.177,0,12.658,1.417,18.926,2.787,3.579.782,6.958,1.521,9.992,1.918,21.164,2.771,40.27,6.165,58.409,10.376,9.826,2.281,19.462,4.837,28.641,7.6,9.635,2.9,19.1,6.116,28.122,9.569a7.839,7.839,0,0,1,4.548,4.287,8.86,8.86,0,0,1,.362,5.754l3.162-.9.118-.034c1.651-.469,3.141-.891,4.647-1.314-2.358-3.613-1.881-9.526-1.5-14.278.087-1.078.169-2.1.211-3.01l.014-.338c.154-4.31.519-8.686.873-12.919l0-.022c.184-2.2.374-4.477.531-6.712.93-13.217,2.088-25.4,3.541-37.245l.388-3.1c.734-5.746,1.4-11.6,2.036-17.252v-.008c.864-7.634,1.758-15.529,2.837-23.26l.222-1.542c-.783-2.994-1.724-6.151-3.051-10.236-2.051-6.311-4.739-12.466-7.337-18.42-1.118-2.56-2.273-5.206-3.367-7.841a.8.8,0,0,1,.053-.785,1.176,1.176,0,0,1,.969-.469,1.041,1.041,0,0,1,.7.251,61.718,61.718,0,0,1,8.309,9.262,87.285,87.285,0,0,1,6.641,10.618c.03-.15.058-.3.086-.451.034-.183.073-.39.113-.589l.447-2.2c1.113-5.412,2.472-11.059,5.742-15.382a.937.937,0,0,1,.732-.384.734.734,0,0,1,.645.384,25.17,25.17,0,0,1,2.9,8.249,82.377,82.377,0,0,1,1.01,8.818c.029.371.058.738.087,1.1.62,7.754.594,15.537.521,20.716-.151,10.774-.8,21.737-1.425,32.339-.147,2.488-.314,5.309-.469,8.066-.678,12.078-2.011,24.943-4.075,39.327l-.357,2.453c-.247,1.68-.487,3.395-.719,5.053l0,.013c-.628,4.494-1.276,9.135-2.159,13.643l-.342,1.683c-.2.951-.377,2.023-.564,3.158a45.689,45.689,0,0,1-1.769,7.822c31.663-8.831,65.166-17.965,99.58-27.148,17.067-4.555,34.425-9.135,51.211-13.565,6.846-1.806,13.925-3.674,20.927-5.525a27.069,27.069,0,0,1,4.821-6.333,26.011,26.011,0,0,1,6.909-4.888,17.862,17.862,0,0,1,7.666-1.82,15.946,15.946,0,0,1,8.43,2.452,1.075,1.075,0,0,1,.5.945.956.956,0,0,1-.5.837c-1.784.975-3.22,1.789-4.518,2.56l14.44-3.911c3.182-.862,6.435-1.805,9.581-2.718l.013,0c7.562-2.193,15.382-4.46,23.168-5.9,19.951-9.845,41.535-17.078,62.41-24.072l1.256-.421,2.526-.854c1.46-.5,2.981-1.022,4.323-1.485,9.579-3.3,19.485-6.716,29.342-8.52a29.193,29.193,0,0,1,5.236-.483,21.038,21.038,0,0,1,9.63,2.117,13.433,13.433,0,0,1,6.517,7.183,133.585,133.585,0,0,1,12.039,9.277c1.958,1.642,3.89,3.385,5.758,5.07l.024.022c.771.7,1.568,1.414,2.356,2.116l.5.437.49.422.02.017c1.952,1.677,3.494,3,3.994,5.816a3.422,3.422,0,0,1-.7,2.694,2.173,2.173,0,0,1-1.7.82,2.438,2.438,0,0,1-.262-.014c-4.756-.509-8.76-4.971-12.294-8.908l0,0c-.884-.985-1.72-1.916-2.529-2.742-3.52-3.6-6.416-6.667-9.107-9.976a4.244,4.244,0,0,1-2.02.526,3.222,3.222,0,0,1-2.969-1.785,9.657,9.657,0,0,0-4.217-4.253,12.6,12.6,0,0,0-5.689-1.191c-4.814,0-10.379,1.889-14.851,3.407l-.006,0c-1.441.489-2.8.951-4.013,1.31l-11.89,3.519c-4.93,1.461-11.41,3.388-17.819,5.335-5.98,1.816-12.034,3.738-17.888,5.6-10.158,3.225-20.662,6.559-31.093,9.443a3.426,3.426,0,0,1,.818,3.08,3.612,3.612,0,0,1-2.344,2.511c-9.352,3.669-19.477,6.079-29.268,8.41l-.014,0c-3.66.871-7.444,1.772-11.1,2.72-8.374,2.171-16.9,4.4-25.329,6.612a20.612,20.612,0,0,0-2.926,8.083,60.471,60.471,0,0,0,.522,17.852,160.662,160.662,0,0,0,4,17.572l.455,1.638a85.947,85.947,0,0,0,4.957,13.83c2.49,5.151,5.37,8.877,8.8,11.39a13.412,13.412,0,0,0,6.612,2.519c15.154-7.8,29.977-15.43,44.728-23a4.163,4.163,0,0,1,1.911-.486,4.354,4.354,0,0,1,4.025,3.271,97.5,97.5,0,0,0,15.286-3.845,68.121,68.121,0,0,0,13.189-6.69c2.765-1.669,5.622-3.393,8.639-4.835a26.22,26.22,0,0,1,11.551-2.592,41.257,41.257,0,0,1,14.443,2.985,140.682,140.682,0,0,1,13.793,6.339c.888.448,1.805.91,2.7,1.354l3.005,1.477c4,1.941,9.847,4.521,14.421,4.521,3.29,0,5.444-1.343,6.4-3.992a9.188,9.188,0,0,0,.141-5.647,16.413,16.413,0,0,0-2.75-5.357,32.634,32.634,0,0,0-8.8-7.907,53.531,53.531,0,0,0-10.56-4.828c-3.893-1.34-7.849-2.346-11.2-3.153-4.356-1.048-8.7-1.881-12.92-2.474-1.57-.221-3.183-.363-4.743-.5a43.034,43.034,0,0,1-10.008-1.685,2.93,2.93,0,0,1-1.9-2.9,2.33,2.33,0,0,1,1.9-2.247,28.72,28.72,0,0,1,6.34-.654c5.589,0,11.61,1.276,17.284,2.656l3.981.981c6.442,1.581,14.81,3.919,22.408,8a46,46,0,0,1,7.567,5.1,34.733,34.733,0,0,1,6.383,6.861,8.762,8.762,0,0,1,6.248-2.357,17.7,17.7,0,0,1,4.528.675l2.141.595a26.3,26.3,0,0,0,7.046,1.25,14.281,14.281,0,0,0,2.8-.275c.442-2.4.921-4.979,1.426-7.511,5.013-25.17,10.468-49.907,16.213-73.523,5.066-20.825,10.633-41.941,16.544-62.76,5.848-20.6,12.2-41.486,18.881-62.094l1.34-4.117c.687-2.1,1.357-4.288,2.005-6.4l.007-.021c2.29-7.47,4.657-15.194,8.509-21.91a30.4,30.4,0,0,1,8.987-9.828,39.72,39.72,0,0,1,12.168-5.563,237.6,237.6,0,0,1,23.268-4.833l.033-.006c2.579-.446,5.245-.908,7.844-1.389,1.38-.255,2.815-.511,4.082-.738.934-.167,1.9-.34,2.85-.512a76.176,76.176,0,0,1-3.685-8.092c-.361-.885-.7-1.717-1.036-2.5l-.23-.532c-3.074-7.009-5.783-14.131-7.8-19.552l-1.83-4.946c-4.215-11.368-8.859-23.417-15.185-34.766A89.565,89.565,0,0,0,656.721,154.8a94.825,94.825,0,0,0-14.611-13.2c-10.29-7.554-21.755-13.476-32.842-19.2-6.327-3.268-12.868-6.647-19.122-10.294a142.871,142.871,0,0,1-18.012-12.217.75.75,0,0,1-.271-.865,1.1,1.1,0,0,1,1-.7.9.9,0,0,1,.407.1c10.087,5.069,20.9,9.064,31.355,12.928l.005,0c4.5,1.662,9.146,3.38,13.665,5.157l2.962,1.168c11.6,4.6,23.788,9.729,34.186,17.439a94.9,94.9,0,0,1,15.375,14.271,97.9,97.9,0,0,1,11.871,17.308c5.447,10.081,9.33,21.246,13.085,32.043l0,.009c.841,2.418,1.71,4.918,2.579,7.351l1.26,3.519c1.813,5.028,3.808,10.406,6.115,15.669.719,1.64,1.674,3.349,2.686,5.159a48.055,48.055,0,0,1,3.948,8.227l.828-.144.034-.006c3.793-.658,7.715-1.339,11.576-1.984,22.351-3.732,45.087-7.127,67.576-10.092,22.471-2.962,45.308-5.576,67.877-7.767s45.473-4.02,68.1-5.437,45.591-2.461,68.255-3.1l.154,0a4.462,4.462,0,0,1,3.516,1.6,5.964,5.964,0,0,1,1.211,4.806c-4.925,29.126-9.611,58.745-14.143,87.389l-.01.061c-3.518,22.233-7.155,45.224-10.877,67.809-3.8,23.051-7.633,45.82-11.4,67.675-.842,4.886-1.752,9.832-2.632,14.616-1.183,6.427-2.405,13.069-3.473,19.623-.321,1.974-.629,3.984-.926,5.929l-.011.072a173.9,173.9,0,0,1-4.24,21.57c-2.675,9.346-6.5,16.564-11.707,22.066a34.186,34.186,0,0,1-11,7.623,54.348,54.348,0,0,1-12.912,3.774c-15.56,2.678-31.639,4.281-47.189,5.831-6.86.684-13.951,1.391-20.892,2.181l-120.447,13.7c.854,7.764,1.346,15.581,1.5,23.9.145,7.593.007,15.455-.421,24.036l-.46,8.836c-.36,6.794-.8,14.032-1.847,21.257a40.016,40.016,0,0,1-3.881,12.279,48.635,48.635,0,0,1-7.38,10.605c-5.257,5.828-11.508,10.769-18.542,16.164-6.122,4.7-13.337,9.984-21.487,13.273l-1.022.406a101.646,101.646,0,0,1-11.389,3.7,55.563,55.563,0,0,1-13.539,1.975,27.6,27.6,0,0,1-4.376-.326c.238,1.194.525,2.428.8,3.621,1.186,5.108,2.412,10.39.7,15.328a4.652,4.652,0,0,1-1.664,2.224A4.371,4.371,0,0,1,644.108,714.587Zm79.7-157.46-12.62,1.435c-14.8,1.685-29.367,3.281-41.665,4.621l-30.172,3.279c-.038.85-.107,1.674-.174,2.47v.008c-.067.8-.131,1.565-.15,2.222-.2,6.957-.357,14.021-.483,20.1-.277,13.354.029,26.9.911,40.271.994,15.072,2.182,27.424,3.739,38.873l.359,2.578.208,1.356a5.933,5.933,0,0,1,4.006,2.215c.74.883,2.11,1.331,4.074,1.331,3.486,0,8.084-1.376,11.328-2.53,6.04-2.149,11.822-5.886,16.681-9.258a104.785,104.785,0,0,0,13.929-11.859l3.566-3.526c3.482-3.461,7.067-7.216,9.271-11.714,2.43-4.957,3.108-10.788,3.765-16.427.135-1.161.275-2.362.427-3.513.932-7.048,2.1-14.713,3.67-24.121l9.331-37.808ZM25.717,484.446l-.055,13.108c-.066,17.833-.051,36.822.911,55.678l.18,3.439c1.079,20.185,2.753,41.538,10.16,61.222a116.93,116.93,0,0,0,11.512,22.746,104.928,104.928,0,0,0,16.357,19.522,62.185,62.185,0,0,0,9.918,7.655,43.356,43.356,0,0,0,11.469,4.961,64.358,64.358,0,0,0,16.838,2.026c2.242,0,4.535-.084,7.009-.256,33.12-2.31,63.1-18.215,92.1-33.6l.005,0h0c4.387-2.327,8.924-4.733,13.36-7.03,51.959-26.9,107.346-55.565,163.012-84.247a26.681,26.681,0,0,1-4.113-3.463c-6.118-6.32-10.46-15.16-13.663-27.822a146.839,146.839,0,0,1-4.485-32.985l1.219-12.816-1.309.345c-13.539,3.6-27.272,7.279-40.553,10.838-33.449,8.966-68.037,18.237-102.175,26.882-13.605,3.445-27.471,6.8-40.88,10.046-9.861,2.386-20.058,4.854-30.073,7.338l-3.826.958c-18.323,4.63-37.415,10.29-51.789,23.906a.55.55,0,0,1-.38.161.6.6,0,0,1-.531-.364.531.531,0,0,1,.115-.594c6.951-7.4,15.793-13.467,27.032-18.551,10.181-4.6,21.021-7.848,31.251-10.774,2.138-.611,4.314-1.225,6.418-1.819l.09-.025c1.5-.423,3.369-.95,5.15-1.457-31.8-11.335-60.353-19.635-87.3-25.371-3.79-.807-7.667-1.519-11.415-2.208h-.005c-3.811-.7-7.752-1.424-11.6-2.248-3.432-.734-6.866-1.694-10.187-2.623-1.835-.513-3.732-1.043-5.619-1.533Zm964.876-264c-23.866.721-47.929,1.874-71.52,3.427-23.825,1.568-47.831,3.588-71.349,6-43.964,4.514-88.35,10.6-131.925,18.1-9.094,1.564-18.307,3.215-27.383,4.909l-5.468,1.029c-2.039.386-4.136.715-6.357,1.064-3.8.6-7.721,1.211-11.49,2.152a38.362,38.362,0,0,0-10.528,4.1,22.129,22.129,0,0,0-8.231,9.359,74.766,74.766,0,0,0-4.453,12.031c-.336,1.1-.682,2.228-1.036,3.327-3.329,10.348-6.621,20.882-9.786,31.308-12.768,42.07-24.341,84.337-34.4,125.626-3.591,14.74-6.952,29.787-10.2,44.339l0,.007,0,.012c-1.365,6.112-2.777,12.433-4.187,18.646-3.735,16.463-8.118,34.134-13.794,55.612a5.45,5.45,0,0,1,2.231-1.013c20.045-4.265,40.764-6.573,60.8-8.806,4.193-.467,8.528-.95,12.81-1.446l2.381-.277c24.173-2.843,50.158-5.881,76.392-8.83l168.658-18.967c2.817-.317,5.744-.56,8.573-.8,7.262-.6,14.769-1.229,21.71-3.143,7.337-2.024,12.792-6.932,16.675-15,3.257-6.772,4.887-14.549,6.4-22.59l.084-.443c4.979-26.483,9.424-53.548,13.723-79.722l0-.019c2.884-17.563,5.867-35.724,8.99-53.576ZM562.258,559.257h.024a6.52,6.52,0,0,1,3.822,1.133l6.3-50.361c-3.2-.211-6.947-1.74-10.574-3.218-3.537-1.442-6.877-2.8-9.375-2.8-.182,0-.36.007-.529.022,2.895,4.857,3.663,9.8,2.282,14.7-1.626,5.767-5.656,8.692-11.977,8.692a34.632,34.632,0,0,1-10.808-2.08A76.108,76.108,0,0,1,522,521.354c-1.671-.831-3.352-1.716-4.979-2.573-5.679-2.989-11.551-6.081-17.976-7.433a24.486,24.486,0,0,0-5.019-.541c-6.494,0-11.7,2.834-17.737,6.115l-.879.478a69.584,69.584,0,0,1-20.865,7.371,41.321,41.321,0,0,1-7.408.646c-1.235,0-2.482-.048-3.812-.147a4.541,4.541,0,0,1-.754.5l-1.942,1.02c8.8.4,17.884,3.159,25.9,5.592,8.812,2.674,17.551,5.963,25.051,8.837l8.134,3.126a305.272,305.272,0,0,0,30.521,10.327,122.33,122.33,0,0,0,31.747,4.59ZM338.074,20.241a22.5,22.5,0,0,0-5.109,4.034c-4.806,5.1-8.268,11.417-11.615,17.528l-.2.365c-.834,1.523-1.657,3.057-2.452,4.541l-.011.021c-.973,1.815-1.979,3.691-2.993,5.523-.878,1.586-1.781,3.147-2.47,4.331a17.369,17.369,0,0,1-1.174,1.578l0,0h0c-.338.425-.688.865-.928,1.206.588.823,1.228,1.682,1.957,2.625.052.067.8.892,2.044,2.26l.051.056c5.086,5.6,17,18.7,21.868,24.661,4.763,5.827,9.238,11.793,13.3,17.732,4.219,6.167,8.136,12.511,11.642,18.856,4.159,7.529,7.791,15.452,11.3,23.115,2.417,5.274,4.916,10.725,7.57,16.012a98.818,98.818,0,0,0,11.526,18.542c.106.13.218.257.326.381l.007.008.013.014c.069.079.138.158.207.239,1.437-3.882,4.69-7.977,7.065-10.967.536-.675,1.043-1.313,1.462-1.866l.208-.277c4.525-6.1,9.555-12.422,15.829-19.9,4.837-5.76,9.987-11.623,15.3-17.424l1.966-2.134c.662-.715,1.341-1.478,2.061-2.285,3.192-3.581,7.164-8.039,11.535-10.343a25.754,25.754,0,0,0-1.993-3.02c-5.148-6.727-12.516-11.546-19.019-15.535l-4.517-2.748C409.416,89.2,402.356,84.429,397.7,81.184a228.3,228.3,0,0,1-23.445-18.523c-7.068-6.447-15.222-14.212-22.108-22.928l-2.326-2.942ZM366.486,15.1c-1.868.157-3.809.271-5.686.38-6.207.363-12.625.739-18.267,2.728,3.893,3.68,7.729,7.593,11.438,11.377,2.526,2.577,5.138,5.242,7.737,7.8a94.725,94.725,0,0,1,2.072-9.956c.215-.873.436-1.774.647-2.663Zm-2.048,649.931a4.122,4.122,0,0,1-3.375-2.07,3.894,3.894,0,0,1-.174-3.9c9.617-18.347,20.954-35.774,31.773-51.872l1.478-2.2c5.091-7.578,10.355-15.413,15.587-23.09,2.825-4.144,5.142-7.461,7.294-10.439l1.5-2.057,8.117-8.882a.732.732,0,0,1,.35-.09.716.716,0,0,1,.708.7c.143,3.563-1.5,7.025-3.085,10.374-.24.506-.511,1.079-.758,1.616l-.181.4c-1.872,4.165-4.072,8.648-6.723,13.706-4.828,9.206-9.784,18.174-14.729,26.654-11.462,19.662-22.983,35.984-35.22,49.9A3.382,3.382,0,0,1,364.438,665.035Zm205.248-178c-4.266,0-8.37-2.183-12.918-6.872l-3.055-3.192a32.528,32.528,0,0,0-6.677-5.672,16.523,16.523,0,0,0-8.76-2.311c-.267,0-.542.005-.818.015a129.472,129.472,0,0,0-15.512,1.839h-.007c-2.93.468-5.96.951-8.929,1.3-8.829,1.044-18.11,1.99-27.585,2.811h-.034a.335.335,0,0,1-.327-.318.367.367,0,0,1,.261-.419l10.321-2.569,40.123-8.093a34.267,34.267,0,0,1,4.131-.266,20.476,20.476,0,0,1,13.478,4.534,52.972,52.972,0,0,1,5.223,5.15,44.586,44.586,0,0,0,6.2,5.9,14.8,14.8,0,0,0,7.958,3,2.412,2.412,0,0,1,2.277,2.159,2.214,2.214,0,0,1-1.653,2.443A13.045,13.045,0,0,1,569.686,487.031Zm7.978-25.108a1.566,1.566,0,0,1-.362-.043,32.577,32.577,0,0,1-9.057-3.831,98.379,98.379,0,0,1-8.117-5.6c-2.008-1.488-4.084-3.025-6.208-4.412-4.727-3.087-9.865-4.463-16.661-4.463-3.226,0-6.5.292-9.957.6l-.608.054c-9.927.884-19.455,2.089-28.318,3.58-3.057.514-6.167,1.142-9.175,1.748a154.015,154.015,0,0,1-17.381,2.82l0-.018a1.161,1.161,0,0,1-1.076-.922.962.962,0,0,1,.516-1.125c8.838-4.413,18.926-6.527,28.682-8.572l.642-.134,28.94-4.5,1.066-.106c3.351-.326,5.91-.471,8.3-.471a40.019,40.019,0,0,1,9.188.965,30.377,30.377,0,0,1,8.888,3.612l1.609.973c7.436,4.52,15.768,9.969,20.526,17.457a1.428,1.428,0,0,1,.047,1.491A1.725,1.725,0,0,1,577.664,461.923Zm239.654-40.985a65.133,65.133,0,0,1-17.553-2.084,33.259,33.259,0,0,1-7.854-3.282,22.91,22.91,0,0,1-6.281-5.377c-2.828-3.538-3.864-7.094-3.079-10.568a15.4,15.4,0,0,1,4.982-7.76,36.739,36.739,0,0,1,8.668-5.692,9.477,9.477,0,0,1-2.7-4.094,7.7,7.7,0,0,1,.106-4.979c1.385-3.933,5.05-6.327,8.593-8.642a34.512,34.512,0,0,0,5.456-4.078,27.159,27.159,0,0,0,6.139-9.013,19.012,19.012,0,0,0,1.177-10.7l-.08-.4a3.855,3.855,0,0,1,.7-3.288,3.813,3.813,0,0,1,2.943-1.37,4.023,4.023,0,0,1,3.271,1.745l.526.726c.573.786,1.164,1.579,1.789,2.419l.018.024a93.668,93.668,0,0,1,7.494,11.163c2.438,4.533,3.546,8.536,3.39,12.238a13.694,13.694,0,0,1,6.781,2.049,11.517,11.517,0,0,1,4.628,5.154,14.248,14.248,0,0,1,.947,6.7c4.405.342,9.074,3.283,11.548,5.87a12.786,12.786,0,0,1,3.572,7.824,14.2,14.2,0,0,1-2.006,8.4c-7.544,12.846-24.582,15.958-34.067,16.669l-.445.032C822.841,420.832,820.008,420.937,817.317,420.937ZM799.181,388.16c-2.5,2.551-4.93,5.2-7.281,7.755a7.912,7.912,0,0,0-2.442,6.3c.273,2.4,1.883,4.679,4.654,6.581a27.927,27.927,0,0,0,10.749,4.161,64.4,64.4,0,0,0,12.061.975h.005c2.491,0,4.914-.09,6.746-.168a59.493,59.493,0,0,0,14.191-2.186,34.174,34.174,0,0,0,12.646-6.588l.32-.279a18.186,18.186,0,0,0,3.486-4.11,7.562,7.562,0,0,0,1.275-4.631,5.622,5.622,0,0,0-3.233-4.262,14.09,14.09,0,0,0-4.775-1.405,22.143,22.143,0,0,1-2.488-.509c-2.344,4.594-5.917,7.57-9.8,8.164a3.767,3.767,0,0,1-.567.044,3.563,3.563,0,0,1-3.4-2.5,2.9,2.9,0,0,1,1.317-3.353l.7-.433A17.469,17.469,0,0,0,838.39,387a11.063,11.063,0,0,0,2.07-6.583,6.105,6.105,0,0,0-1.75-3.836,5.336,5.336,0,0,0-3.738-1.884,3.466,3.466,0,0,0-2.549,1.142l-.144.156A3,3,0,0,1,830,377.08a3.786,3.786,0,0,1-3.126-1.877,3.256,3.256,0,0,1-.134-3.265l.084-.149-4.841-18.134a30.032,30.032,0,0,1-3.6,8.8,34.517,34.517,0,0,1-6.187,7.523,38.165,38.165,0,0,1-6.062,4.55l-.261.151c-.283.159-.644.347-.993.53-2.228,1.163-5.595,2.921-5.284,4.987.234,1.551,3.179,3.4,4.435,4.121,2.273,1.308,4.681,2.257,5.726,2.258a.546.546,0,0,1,.505.453.432.432,0,0,1-.245.508,15.873,15.873,0,0,1-6.439,1.654A10.011,10.011,0,0,1,799.181,388.16ZM234.648,335.028a2.8,2.8,0,0,1-2.959-2.42c-1.807-11.632-3.6-23.443-5.344-34.864l0-.014c-2.056-13.5-4.182-27.469-6.331-41.194-1.529-9.765-3.279-19.664-4.971-29.237l0-.016c-.514-2.9-1.045-5.908-1.568-8.9l-5.608-36.706a.686.686,0,0,1,.2-.5.819.819,0,0,1,.573-.235.7.7,0,0,1,.627.359c5.465,9.615,8.547,20.985,11.528,31.979.339,1.249.688,2.538,1.035,3.8,3.034,11.044,5.778,22.984,8.635,37.574,2.513,12.827,4.444,25.728,5.74,38.345,1.316,12.816,2.029,25.84,2.119,38.713a3.033,3.033,0,0,1-.9,2.2A3.973,3.973,0,0,1,234.648,335.028Zm41.166-36.488a4.33,4.33,0,0,1-3.256-1.529,3.838,3.838,0,0,1-.8-3.276L268.37,200.4a1.046,1.046,0,0,1,.126-.971,1.181,1.181,0,0,1,.956-.445,1.237,1.237,0,0,1,1.179.794,174.407,174.407,0,0,1,7.617,23.235,165.435,165.435,0,0,1,4.208,24.142,143.625,143.625,0,0,1-3.28,48.618A3.363,3.363,0,0,1,275.814,298.539ZM463.071,212.8a1.865,1.865,0,0,1-1.521-.714,21.12,21.12,0,0,1-1.331-2,10.7,10.7,0,0,0-2.832-3.447c-1.907-1.349-4.291-1.829-6.6-2.292-1.022-.205-2.078-.418-3.06-.7a23.651,23.651,0,0,1-10.669-6.356l-10.473-23.635a.906.906,0,0,1,.23-.693,1.02,1.02,0,0,1,.744-.295,1.154,1.154,0,0,1,.947.466A71.471,71.471,0,0,1,433.129,181a60.012,60.012,0,0,0,5.479,9.01,20.435,20.435,0,0,0,8.323,6.508,35.075,35.075,0,0,0,6.037,1.7c3.2.7,6.509,1.416,9.281,3.615a11.2,11.2,0,0,1,3.5,4.424,5.675,5.675,0,0,1-.446,5.346A2.742,2.742,0,0,1,463.071,212.8Zm17.652-17.993a2.669,2.669,0,0,1-1.919-.776c-2.738-2.9-3.324-7.221-1.74-12.853a56.685,56.685,0,0,1,5.831-12.694c4.422-7.514,10.461-12.724,16.854-18.241,1.211-1.045,2.463-2.125,3.712-3.23,8.426-7.453,13.826-17.657,18.591-26.66,1.4-2.637,2.794-5.347,4.146-7.968l.028-.054.014-.027c1.656-3.21,3.369-6.53,5.1-9.768-2.82-2.492-4.022-7.144-4.989-10.881-.171-.664-.333-1.29-.5-1.89l-.1-.362A144.849,144.849,0,0,1,521.5,69.639a108.352,108.352,0,0,1-1.031-19.164l.068-1.641,3.151-11.768a1.25,1.25,0,0,1,.568-.145,1.237,1.237,0,0,1,.989.553,1.278,1.278,0,0,1-.19,1.962,47.341,47.341,0,0,1,2.1,7.078c.586,2.587,1.222,5.23,1.944,8.077.683,2.694,1.335,5.444,1.966,8.1l.008.034.005.023c.633,2.67,1.287,5.43,1.974,8.135,1.383,5.446,3.108,11.175,5.128,17.028.115.335.248.7.406,1.109l.22.567.054-.086a.584.584,0,0,1,.495-.3.626.626,0,0,1,.464.222.673.673,0,0,1,.155.547c-.055.363-.122.731-.187,1.087l0,.011,0,.025c-.04.219-.081.446-.119.669l.2.535c1.27,3.418,2.126,6.993-.19,9.99a4.718,4.718,0,0,1-3.013,1.986,172.527,172.527,0,0,1-6.865,18.391l-.751,1.731c-3.616,8.3-7.659,17.024-13.794,24.551a90.386,90.386,0,0,1-9.379,9.44c-4.252,3.876-8.649,7.885-11.9,12.9a53.917,53.917,0,0,0-6,13.035l-.564,1.757c-1.078,3.315-2.3,6.45-5.364,8.366A2.482,2.482,0,0,1,480.723,194.807Zm51.81-8.935a5.583,5.583,0,0,1-3.581-1.231l-6.865-5.7c-1.154-.959-2.306-1.923-3.424-2.863-1.043-.878-1.992-1.69-2.9-2.485l-1.432-1.264c-.164-.147-.466-.457-.847-.85-1.115-1.147-2.8-2.881-3.408-2.978a1.164,1.164,0,0,0-.18-.014c-1.826,0-5.482,3.812-7.446,5.86l-.006.006c-.263.274-.49.51-.676.7l-.205.2a83.877,83.877,0,0,0-8.334,9.577.651.651,0,0,1-.522.279.612.612,0,0,1-.513-.279.623.623,0,0,1-.017-.615,85.559,85.559,0,0,1,8.113-13.982l.639-.874c.357-.48.734-1.023,1.133-1.6l.017-.025c1.967-2.833,4.414-6.358,7.488-7.051a6.082,6.082,0,0,1,1.336-.147c3.372,0,6.714,2.716,9.4,4.9.57.464,1.109.9,1.622,1.294l.209.158c1.709,1.283,3.392,2.588,4.667,3.581a60.763,60.763,0,0,1,.95-12.723,35.852,35.852,0,0,1,4.383-11.837,52.506,52.506,0,0,1,7.955-9.5c1.27-1.294,2.583-2.631,3.813-4.007a53.585,53.585,0,0,0,6.077-8.956,65.757,65.757,0,0,1,4.708-7.308A3.042,3.042,0,0,1,556.688,115c.12-3.241.522-6.54.911-9.73l.006-.047c.109-.89.221-1.811.324-2.711l.138-1.232c.069-.645.15-1.294.235-1.982.5-4.013,1.062-8.561-.815-12.151-1.653-3.162-5.076-5.624-8.1-7.8l0,0c-.786-.566-1.529-1.1-2.235-1.639l-2.871-2.228-8.292-7.923a1.047,1.047,0,0,1-.1-1.138,1.571,1.571,0,0,1,1.334-.815,1.22,1.22,0,0,1,.249.025c5.2,1.075,10.225,3.874,15.084,6.582.762.424,1.625.906,2.45,1.355l.584.317c4.159,2.242,8.725,5.161,11.059,9.819,2.431,4.848,2.31,10.387,1.949,16.11l-.032.506c-.089,1.386-.164,2.811-.236,4.188v.029a97.688,97.688,0,0,1-1.619,15.368,4.532,4.532,0,0,1-1.692,2.785,4.622,4.622,0,0,1-2.793.877,5.782,5.782,0,0,1-1.69-.256c-2.219,7-7.416,12.662-12.443,18.133-1.742,1.9-3.544,3.858-5.152,5.811-3.309,4.018-5.25,8.994-5.932,15.214-.6,5.482-.178,11.18.231,16.69q.075,1,.146,1.992a4.148,4.148,0,0,1-1.054,3.213A5.158,5.158,0,0,1,532.533,185.872Z" transform="translate(19 -5)"></path></g><g transform="translate(225 0)"><g><g id="head_Long_Afro" data-name="head/Long Afro"><path id="_Skin" data-name="âœ‹ Skin" d="M350.514,160.945C343.65,77.27,322.75,3.16,224.545,0A342.908,342.908,0,0,0,94.234,27.231C-4.822,76.9-36.251,258.378,51.02,331.432a.927.927,0,0,0-.031,1.56c18.03,12.13,38.071,22.11,58.143,30.5,53.466,22.6,116.407,32.422,170.934,7.9,83.213-35.408,84.461-133.933,70.448-210.446Z" transform="translate(58 113.999)" fill="#d08b5b"></path><path id="_Ink" data-name="ðŸ– Ink" d="M722.306,355.943a24.878,24.878,0,0,0,7.26-11.65,22.79,22.79,0,0,0,.01-12.76c-1.34-4.42-4.23-7.94-3.58-12.54a10.505,10.505,0,0,1,.3-1.39c2.5-8.66,8.65-14.91,6.45-24.51a16.63,16.63,0,0,0-3.42-7.07c.18-2.08.34-4.18.47-6.28a33.517,33.517,0,0,0-.37-26.81,101.312,101.312,0,0,0-2.18-12.63,24.275,24.275,0,0,0-1.36-10.92,155.211,155.211,0,0,0-7.415-16.688,6.148,6.148,0,0,0-.646-4.486,41.71,41.71,0,0,0-5.516-7c-1.435-2.563-2.88-5.1-4.313-7.614-.664-1.153-1.4-2.432-2.205-3.787,2.2-4.086,3.378-8.068,1.049-12.873a5.945,5.945,0,0,0-5.262-3.018c-2.165.129-4.35.226-6.547.309-4.106-4.958-8.759-9.409-13.745-11.971-5.05-4.28-10.17-8.48-15.15-12.77-1.41-1.22-2.83-2.44-4.24-3.66-.01-.03-.02-.07-.03-.1-1.04-3.79-2.21-7.53-3.38-11.29-.73-2.33-.95-4.77-3.22-6.04-4.74-2.65-12.03-3.07-17.47-3.52-.54-.48-1.08-.95-1.62-1.43a25.427,25.427,0,0,0-1.08-20.16c-1.06-2.24-4.74-3.25-6.76-1.77a22.622,22.622,0,0,1-15.66,4.13c-8.04-6.18-40.47-34.126-45.481-37.076-.062-.106-.112-.212-.178-.317a40.667,40.667,0,0,0-10.084-11.006l-1.647-1.721a20.932,20.932,0,0,1,3.8-9.51c.22-.32.47-.63.72-.93,3.58-4.26-.79-9.74-5.79-7.51-.36.16-.72.32-1.08.49-3.844,1.714-8.1,3.577-12.526,5.149-1.621-.607-3.273-1.157-4.78-1.763l-16.136-6.487c-2.656-1.068-5.464-1.973-8.033-3.228-.9-5.959-6.868-9.867-13.07-9.663a11.611,11.611,0,0,1,1.645-3.308c.22-.31.46-.61.71-.9,3.19-3.71-1.07-10.59-5.63-7.29-.32.23-.65.46-.97.69-1.267.889-2.564,1.723-3.875,2.531a8.823,8.823,0,0,0-6.937-.156,71.38,71.38,0,0,0-15.351,7.688c-.2.137-.4.252-.6.381a13.135,13.135,0,0,0-9.618-4.805l-.186,0a12.579,12.579,0,0,0-11.78-5.614c.306-5.595-5.3-10.588-10.394-11.2a12.019,12.019,0,0,0-13.116,8.563q-.747,2.427-1.493,4.856a52.678,52.678,0,0,0-14.608-5.017c-11.613-2.034-22.968.132-34.159,3.356-1.118.322-2.235.653-3.352.983-1.6-1.849-3.093-3.742-4.524-5.509-2.47-3.05-8.4-.61-8,3.31a6.422,6.422,0,0,1-2.59,6.034,38.369,38.369,0,0,1-6.653.313,21.874,21.874,0,0,1-9.36-1.719,12.348,12.348,0,0,1-5.158-4.253c-4.075-6.427-14.426-8.158-19.356-2.03-5.188-2.271-11.738.861-14.618,5.277-1.507,2.309-4.651,3.6-8.609,4.71-2.971.832-6.009,1.462-9.061,2.013-1.36-1.845-4.224-3.082-6.325-1.535-1.423,1.051-2.8,2.13-4.168,3.236-10.51,1.448-20.965,1.5-30.986-2.6C230.788,16.611,223,26.088,224.4,34.044c-2.457,1.279-5.123,2.13-7.55,3.47A29.922,29.922,0,0,0,204.555,50.5c-.475.973-.9,1.961-1.313,2.954-1.979,1.611-3.936,3.265-5.846,5.01q-4.77-2.445-9.53-4.89c-2.38-1.22-6.39-.37-6.86,2.79a28.72,28.72,0,0,1-5.31,13.12,217.326,217.326,0,0,0-25.02,15.37c-9.19,2.88-18.96,4.56-26.99,6.45a4.552,4.552,0,0,0-2.7,6.63q2.46,3.795,4.91,7.59-6.855,6.69-12.91,13.94a259.08,259.08,0,0,0-29.14,43.65q-5.01,2.025-10.02,4.04c-3.22,1.3-4.67,5.04-2.06,7.79a29.807,29.807,0,0,1,3.3,4.14c-4.73,7.83-10.3,14.97-18.09,19.65a12.216,12.216,0,0,0-5.1,6.18c-.81.54-1.61,1.12-2.4,1.71-2.2,1.66-3.53,5.28-.95,7.43a29.825,29.825,0,0,1,4.95,5.31c.31,1.13.63,2.27.95,3.4a84.159,84.159,0,0,0-17.78,23.08,3.976,3.976,0,0,0-3.06.6c-8.08,5.97-8.32,15.48-5.07,23.98a86.834,86.834,0,0,0,3.08,38.35c-4.97,4.96-7.96,12.12-9.18,19.02-2.15,12.12-2.3,30.76-2.86,43.13A44.124,44.124,0,0,0,8.126,390.2L2.7,392.9a5.314,5.314,0,0,0-2.69,4.69c.46,8.61,4.01,15.41,8.72,21.57a47.486,47.486,0,0,0,7.38,13.33,101.116,101.116,0,0,1,6.36,8.75,5.567,5.567,0,0,1,.41.8,17.767,17.767,0,0,0-1.94,3.15c-4.62,8.14-4.69,17.68,1.87,24.77-2.47,2.02-2.55,6.1-.37,8.6,14.19,16.21,26.02,35.92,45.71,44.53a4.915,4.915,0,0,1,.24.45c-3.99,9.6-4.53,14.59-1.27,24.51a2.577,2.577,0,0,0,.08.26c1.74,5.2,4.94,13.53,10.71,15.15a19.41,19.41,0,0,0,5.38.73q6.87,6.615,13.72,13.25a46.05,46.05,0,0,1,.73,6.63,5.924,5.924,0,0,0,7.42,5.65c1.33-.39,8.69-7.54,10.04-7.5.68.68,1.34,1.36,2,2.05,2.43,2.55,5.8,6.57,6.08,9.24.54,5.03,3.84,10.79,9.17,11.81,2,2.03,5.2,2.64,7.65-.01.16-.17.32-.34.49-.49l.77-.09q1.77,5.28,3.55,10.55c2.33,6.92,11.23,11.37,17.55,7.33,1.02.61,2.02,1.26,3.02,1.91,1.52.97,3.06,1.96,4.64,2.89.09.26.18.52.26.77,1.02,3.11,5.26,4.78,7.87,2.99a23.116,23.116,0,0,0,2.48.64,24.973,24.973,0,0,0,13.11-.84c3.05-1.04,5.96-3.03,9.24-3.3.205-.017.416,0,.624-.009,2.676,5.482,8.791,10.206,13.61,11.811a25.285,25.285,0,0,0,18.52-1.224A43.009,43.009,0,0,0,241.656,647c1.29,1.5,3.62,1.18,4.95,0q3.789-3.359,7.542-6.742c1.814-.7,3.645-1.538,5.555-2.318,5.974-2.44,12.523-3.451,18.048-6.977a30.513,30.513,0,0,0,7.122-6.285,51.292,51.292,0,0,0,10.513-8.118,10.53,10.53,0,0,0,4.83-1.17c6.69-3.4,10.21-10.32,10.52-17.4a122.619,122.619,0,0,0,9.5-40.27,100.151,100.151,0,0,0-.02-13.75,24.115,24.115,0,0,0-2.27-8.28,25.614,25.614,0,0,1-1.07-2.78c.07-3.08.11-6.16.15-9.23a17.288,17.288,0,0,1,4.37-7.03c3.19-3.14,4.65-9.66,1.75-13.54q-2.835-3.765-5.66-7.53c.53-10.77,3.11-27.91-2.61-29.71.23-1.6.72-3.18,1-4.77,1.34-7.64.54-14.47-3.52-21.15-.85-1.39-1.57-2.62-2.16-3.82l-1.11-6.6c-.57-3.39-1.13-6.81-1.61-10.25-.25-4.38-.48-8.76-.73-13.15q-.345-6.06-.76-12.13c.11-1.81.27-3.62.5-5.43,1.37-10.79,5.78-14.78,13.42-22.28,1.2-.19,2.39-.4,3.56-.64,5.45-1.13,11.15-2.88,16.76-2.25,6.09.68,11.54,3.31,17.46-.05,1.74-1,5.57-3.76,5.9-5.95a1.363,1.363,0,0,1,.09-.35c.41-.06.94-.11,1.27-.12,4.7-.16,9.19,1.69,13.93,1.18a21.8,21.8,0,0,0,13.93-6.78,34.782,34.782,0,0,0,12.94.93,28.764,28.764,0,0,0,10.24-3.46c2.37-1.28,1.62-1.65,4.2-.61,5.87,2.38,11.18,5.52,17.79,3.89a18.908,18.908,0,0,0,8.88-5.18,30.288,30.288,0,0,0,2.26-2.27c3.14,1.59,11.04,5.18,12.34,5.5a20.172,20.172,0,0,0,11.16-.44c2.63-.88,5.85-3.28,8.16-3.77,2.99-.64,9.63,3.52,13.2,4.95,6.26,2.51,12.89,3.13,19.23.54,2.18-.89,6.42-4.44,8.05-4.41,2.65,3.27,10.05,21.16,12.27,27.69,8.99,26.4,11.32,108.83,7.17,129.86-.16.62-.33,1.23-.5,1.85-5.1,18.29-10.41,36.89-18.94,53.93-8.05,16.06-19.18,30.52-35.15,39.29-16.56,9.1-36,11.49-54.62,10.26a189.587,189.587,0,0,1-35.38-6.21c-6.06-1.57-12.07-3.32-18.05-5.14-2.61-.79-5.26-1.53-7.82-2.45-4.52-1.63-6.89-1.76-11.22.33-3.94,1.9-4.95,7.51-2.9,11.04,3.34,5.76,9.46,6.16,15.37,7.84,6.02,1.71,12.06,3.35,18.14,4.82a235.023,235.023,0,0,0,35.43,5.94c21.38,1.79,43.41-.97,62.87-10.3,2.2-1.06,4.32-2.19,6.37-3.41-.76,1.06-1.53,2.12-2.31,3.17-2.16,2.91-.56,7.86,2.47,9.45.96.5,1.92.98,2.89,1.45.13.31.27.62.43.93,2.77,5.56,8.57,8.84,14.48,10.26,7.02,1.68,14.88.49,22.02.28l19.85-.6c1.56-.04,3.12-.09,4.68-.14q11.79-.36,23.56-.71c7-.21,6.67.33,13.24-2.47a19.638,19.638,0,0,0,7.35-5.41,29.574,29.574,0,0,0,3.65-1.93,47.653,47.653,0,0,0,10.18-8.94c5.23,1.65,12.56.12,13.58-6.45,1.64-10.51,15.3-15,21.68-22.6,5.15-6.13,8.83-14.16,8.64-21.87,12.98-6.28,20.04-22.83,21.69-36.87.77-6.51.65-13.48,1.76-20.1a11.023,11.023,0,0,0,1.3-1.69,139.832,139.832,0,0,0,8.6-16.26,22.441,22.441,0,0,1,11.77-4.21,9.322,9.322,0,0,0,2.47-18.22c-.05-.02-.09-.03-.14-.05a26.225,26.225,0,0,0-.81-21.29c.14-.7.27-1.39.4-2.09a31.867,31.867,0,0,0,8.5-22.65,27.713,27.713,0,0,1,8.6-4.08c4.87-1.34,4.9-7.28,1.3-9.94a16.831,16.831,0,0,1-3.65-3.7c2.49-7.48,1.51-16.13-3.58-22.27l9.69-12.42c2.14-2.74,3.27-7.39,0-9.99Q725.451,358.428,722.306,355.943Z" transform="translate(-150 -120)"></path></g></g><g transform="translate(159 186)"><g><path d="M175.373 49.5872C175.699 49.4437 175.991 49.2049 176.203 48.8583C178.978 44.3099 179.267 38.8813 178.039 33.5637C176.563 27.172 172.899 20.9588 168.944 16.7559C163.959 11.4582 157.895 7.75374 151.246 4.94731C150.762 4.74287 150.267 4.53098 149.763 4.31514C142.964 1.40541 134.597 -2.01031 127.865 1.47064C125.161 2.86951 123.673 5.20381 123.256 7.7496C122.814 10.4534 123.597 13.4099 125.462 15.7216C128.557 19.5594 133.339 20.3533 138.087 21.0465C139.602 21.2677 141.106 21.486 142.53 21.8229C147.429 22.9821 152.604 24.4361 157.104 26.7244C166.253 31.3762 170.54 38.5898 172.747 48.2853C172.837 48.6781 173.037 48.9988 173.3 49.2406C173.575 49.4928 173.921 49.6579 174.285 49.7192C174.651 49.7808 175.032 49.7375 175.373 49.5872ZM58.3942 19.1934C55.0693 22.4329 51.1339 22.9347 47.1526 23.381C44.9405 23.6313 43.1746 23.8331 41.4369 24.2252C36.6605 25.3034 31.9393 26.9272 27.6319 29.2659C23.1292 31.7106 18.2224 34.659 14.6922 38.4361C13.8528 39.3349 13.0615 40.278 12.2691 41.2232C11.5465 42.0851 10.8505 42.9149 10.1169 43.7149C9.27449 44.6339 8.47449 45.597 7.67875 46.5576C7.1867 47.3681 7.0895 47.5675 6.99041 47.775C6.8413 48.0869 6.66786 48.4359 6.46976 48.8103C6.19845 49.323 5.88066 49.8843 5.54784 50.3932C4.9941 51.3234 4.69697 51.5796 4.44022 51.6942C4.01419 51.8839 3.61015 51.9774 3.21817 51.9268C2.85064 51.8793 2.50438 51.7028 2.16244 51.4138C0.455387 49.9715 -0.0480658 47.6046 0.00353523 45.092C0.0818393 41.2793 1.48813 37.0578 2.78452 34.4628C5.79888 28.4331 9.97938 22.1649 15.0062 17.6646C20.7422 12.5276 27.0177 8.63869 34.2256 5.95894C38.705 4.29304 43.8913 2.76391 48.7713 2.95706C52.284 3.09609 55.6373 4.14026 58.4066 6.74782C60.1072 8.34853 60.9235 10.6254 60.9235 12.9006C60.9235 15.2211 60.0757 17.5554 58.3942 19.1934ZM164.634 78.3299C166.478 78.8824 167.779 78.6212 169.441 77.7551C170.719 77.0896 171.589 76.0387 172.088 74.8117C172.599 73.5559 172.706 72.1077 172.454 70.7659C171.405 65.1948 168.042 60.2513 163.503 57.0672C159.091 53.9728 153.589 52.5435 148.048 53.7341C144.003 54.6036 138.007 58.4424 134.85 63.1243C133.504 65.1203 132.671 67.2595 132.581 69.3723C132.495 71.387 133.008 73.4183 135.676 76.096C135.935 76.177 136.208 76.2208 136.477 76.2208C137.138 76.2208 137.821 75.9439 138.274 75.5441C139.469 74.4935 140.311 73.1636 141.178 71.7329C141.641 70.9679 142.102 70.1976 142.69 69.5195C144.449 67.4927 147.002 65.7736 149.683 65.3262C152.167 64.911 154.406 65.6469 156.181 67.0355C158.256 68.6601 159.713 71.1522 160.252 73.8146C160.472 74.8933 161.036 75.8657 161.818 76.6477C162.607 77.4367 163.615 78.0237 164.634 78.3299ZM46.1749 69.1109C43.7479 67.5587 40.8928 67.0259 37.7287 68.4655C35.256 69.5899 30.9192 73.3385 27.9011 78.2662C25.8363 81.6374 24.3721 85.5922 24.6769 89.7117C24.7477 90.6684 24.3942 91.3738 23.8366 91.8954C23.3962 92.3073 22.7601 92.61 22.013 92.7047C21.3786 92.785 20.6686 92.7125 20.0913 92.5324C18.9931 92.1896 18.4119 91.4772 18.1929 90.8957C16.0797 85.2836 16.9901 79.0208 19.3585 73.3707C22.5547 65.7456 28.3592 59.3585 32.1622 57.2993C38.6698 53.7742 46.347 53.612 52.8639 57.2031C58.4114 60.2596 61.8802 65.1942 65.3301 70.2242C66.0635 71.2934 66.7914 72.3548 67.5436 73.3976C69.0513 75.487 69.2013 77.5593 68.6175 79.3363C67.9707 81.3049 66.3215 82.9663 64.2592 83.8357C62.353 84.6393 60.1407 84.7524 58.1831 83.9268C56.5293 83.2293 55.0117 81.8695 54.0513 79.5625C52.434 75.6771 49.7393 71.3904 46.1749 69.1109ZM127.748 115.98C135.872 104.601 124.366 93.898 116.814 89.3079C114.836 87.8879 116.406 83.1842 120.634 83.9112C159.031 90.5082 139.136 156.649 90.112 120.354C84.2754 115.645 91.3434 105.275 97.6342 109.307C97.9532 109.552 98.2876 109.81 98.6364 110.08C105.704 115.544 118.636 125.542 127.748 115.98ZM117.042 185.1C109.675 187.233 101.768 187.424 94.2589 185.221C87.4481 183.222 80.4549 178.823 75.4423 173.003C70.9894 167.832 68.1055 161.549 68.2187 154.842C68.2316 154.076 68.5055 153.436 68.9268 152.94C69.3804 152.406 70.014 152.039 70.6926 151.88C71.3906 151.716 72.1285 151.774 72.7568 152.059C73.3256 152.318 73.8129 152.757 74.1176 153.398C74.8879 154.41 75.6553 155.407 76.4257 156.376C82.6196 164.024 88.618 169.74 97.9319 171.79C102.985 172.903 108.032 172.409 112.663 170.712C117.62 168.895 122.102 165.7 125.613 161.612C127.2 159.765 129.074 159.011 130.905 158.998C132.982 158.983 135.034 159.948 136.579 161.49C138.099 163.006 139.116 165.065 139.209 167.219C139.29 169.11 138.673 171.085 137.032 172.848C131.626 178.652 124.621 182.904 117.042 185.1Z" transform="translate(54.00004 55.05923)" fill-rule="evenodd" stroke="none"></path></g></g><g transform="translate(123 338)"><g><path d="M139.816 13.717C129.739 8.099 118.659 0.831 106.945 0C99.8638 0.301 98.2868 8.676 103.541 12.571C112.734 17.702 123.938 19.63 133.062 25.271C142.406 30.48 152.448 34.35 161.965 39.125L162.042 39.1614C162.534 39.3518 163.134 38.7908 162.798 38.292L162.426 37.6664C156.692 28.0954 149.514 19.511 139.816 13.717ZM72.3164 13.8353C75.8244 12.5963 76.9034 8.3553 76.4764 5.6833C75.8314 1.6513 68.4234 -0.1757 64.9494 0.5823C46.0404 4.7043 -8.72363 30.5783 1.18937 36.7803L1.61737 36.9683C15.2644 30.1282 30.9104 25.4671 46.3249 21.1251L54.3496 18.8776C60.5403 17.1815 66.1532 16.0094 72.3164 13.8353Z" transform="translate(123 33.9998)" fill-rule="evenodd" stroke="none"></path></g></g><g transform="translate(47 241)"><g><path d="M409.463 3.8448C410.287 3.9658 411.111 4.0948 411.934 4.2318C418.27 5.2808 419.246 15.2398 413.729 17.9668C409.483 20.0668 406.817 24.2488 407.954 29.0788C408.779 32.5828 407.27 35.3698 404.887 36.8078C404.153 59.4058 400.438 84.7238 382.858 101.261C342.399 128.036 302.322 95.3878 310.705 43.7638C310.105 43.3428 309.577 42.8078 309.189 42.1368C308.911 41.6868 308.672 41.2368 308.449 40.7878C307.565 40.0648 301.03 37.7038 292.541 38.8798C284.052 40.0568 281.355 44.0148 277.062 48.3008C276.399 49.5928 275.264 50.5688 273.479 50.9698C270.103 69.9788 266.632 91.0678 252.071 105.304C215.602 139.383 152.661 111.085 154.989 59.2428C142.316 57.0798 152.882 42.2078 132.833 38.8798C129.215 37.6678 125.792 35.3518 123.536 32.6958C93.5503 29.4738 64.0323 30.9178 35.0393 41.3338C33.2654 42.076 31.4106 42.7524 29.5642 43.4257C19.2827 47.175 9.2641 50.8284 14.9483 65.2098C14.7313 69.9788 8.89832 72.8158 5.46132 69.2928L5.45832 69.2958C5.45332 69.2898 5.45032 69.2828 5.44632 69.2768C-14.0668 34.2407 22.9785 28.378 51.445 23.8729C52.0721 23.7736 52.6952 23.675 53.3133 23.5768C68.6263 20.2758 84.2953 18.8808 99.9463 19.2088C101.76 19.2865 103.703 19.3157 105.697 19.3457C111.762 19.4369 118.302 19.5352 123.121 21.0268C123.147 21.0348 123.172 21.0408 123.197 21.0478C129.862 0.847801 268.445 -3.8812 276.461 29.6238C280.189 29.5282 283.582 29.8068 286.814 30.0721C292.712 30.5563 298.071 30.9962 303.94 29.0368C306.664 4.6888 372.671 -4.4282 401.203 1.9928C403.191 2.1778 405.182 2.5208 407.187 3.0298C408.065 3.1988 408.82 3.4798 409.463 3.8448ZM379.696 25.3631C380.723 23.6008 383.403 22.675 385.173 23.9221C389.215 26.7678 392.148 31.0002 392.344 36.066C392.544 41.2443 384.536 41.2182 384.337 36.066L384.321 35.8198C384.135 33.851 382.654 31.9296 381.133 30.8576L380.964 30.7337C379.306 29.4642 378.564 27.3036 379.696 25.3631ZM238.087 28.7229C233.065 27.6183 230.92 35.3611 235.958 36.4687C239.526 37.253 242.549 39.052 244.592 42.0998L244.807 42.4312C247.548 46.7931 254.48 42.7666 251.719 38.3765C248.614 33.4362 243.788 29.976 238.087 28.7229Z" transform="translate(-12.99972 8.999499)" fill-rule="evenodd" stroke="none"></path></g></g></g></g></svg>