<?xml version="1.0" standalone="no"?>
<svg viewBox="-350 -150 1500 1500" style="width: 487.5px; height: 487.5px; justify-content: center; align-self: center; transform: scale(-1, 1);" xmlns="http://www.w3.org/2000/svg" width="609" height="609"><g transform="rotate(0 415.9125728607178 588.964111328125)"><g id="body_Coffee" data-name="body/Coffee" transform="translate(0 459)"><rect id="_Cup" data-name="â˜•ï¸ Cup" width="229" height="282" transform="translate(461 279)" fill="#fdea6b"></rect><path id="_Skin" data-name="âœ‹ Skin" d="M138.156,716.926h-.015a7.574,7.574,0,0,1-5.939-2.6,9.854,9.854,0,0,1-2-7.836c1.015-6.725,2-13.565,2.951-20.179l0-.011,0-.025c.525-3.648,1.068-7.42,1.61-11.13a249.267,249.267,0,0,1-63.394,8.715,196.276,196.276,0,0,1-27.022-1.834A174.95,174.95,0,0,1,17.771,676.2c-.416-.424-.572-.771-.462-1.031.19-.453,1.146-.663,3.01-.663.7,0,1.425.027,2.172.058l.173.007c.641.026,1.246.051,1.737.051a4.035,4.035,0,0,0,.993-.079A52.221,52.221,0,0,1,8.3,655.329a63.709,63.709,0,0,1-4.648-11.683,85.987,85.987,0,0,1-2.612-12.634,149.288,149.288,0,0,1-.8-26.827c.436-9.074,1.38-18.059,2.292-26.747l0-.015c.5-4.8.98-9.338,1.356-13.734,3.2-20.636,6.115-42.069,8.934-62.8l0-.017c7.2-52.933,14.645-107.667,28.012-159.773,3.453-13.46,7.233-26.45,11.236-38.609,4.29-13.032,9.009-25.637,14.024-37.465,5.313-12.53,11.153-24.647,17.358-36.016A360.318,360.318,0,0,1,104.7,194.751a247.02,247.02,0,0,1,26.925-30.586,225.748,225.748,0,0,1,31.822-25.546,197.158,197.158,0,0,1,35.969-18.858,173.423,173.423,0,0,1,39.365-10.519l1.51-.206c2.608-.348,5.322-.664,7.947-.969,13.757-1.6,27.979-3.256,39.611-10.492,6.05-4.829,10.7-11.171,15.207-17.3,3.548-4.832,6.9-9.4,10.646-12.8a23.8,23.8,0,0,1,5.974-4.094,16.724,16.724,0,0,1,6.949-1.592h.085a13.278,13.278,0,0,1,6.166,2.022c2.243,1.229,4.643,2.885,7.183,4.638,2.375,1.639,4.83,3.333,7.353,4.813.343-5.927,2.3-11.227,4.187-16.353a56.552,56.552,0,0,0,3.164-10.548l.1-.681c.243-1.77.378-3.524.508-5.219.557-7.256,1.083-14.108,9.833-21.285a68.619,68.619,0,0,1,13.729-7.862,120.026,120.026,0,0,1,17.415-6.05,155.17,155.17,0,0,1,19.522-3.888A151.408,151.408,0,0,1,435.92,0a107.645,107.645,0,0,1,23.557,2.389c7.534,1.7,13.836,4.27,18.733,7.634a63.745,63.745,0,0,1,12.1,10.959,73.845,73.845,0,0,1,8.668,12.7c4.895,8.936,8.216,18.511,11.733,28.649,2.55,7.35,5.186,14.949,8.482,22.3a20.055,20.055,0,0,1,8.608-1.766,32.215,32.215,0,0,1,15.517,4.272,25.529,25.529,0,0,1,6.013,4.672,15.213,15.213,0,0,1,3.512,5.769c2.4,2.921,3.466,8.94,4.5,14.761v.006c.75,4.236,1.458,8.237,2.639,11.039,7.61,1.211,14.993,2.748,21.943,4.566a189.37,189.37,0,0,1,19.637,6.268,162.076,162.076,0,0,1,17.478,7.877,145.67,145.67,0,0,1,15.467,9.393,138.71,138.71,0,0,1,13.6,10.815A140.347,140.347,0,0,1,660,174.444a150.443,150.443,0,0,1,10.321,13.381,169.62,169.62,0,0,1,8.9,14.524,216,216,0,0,1,14.131,32.106,336.618,336.618,0,0,1,10.223,35.561c5.494,23.491,9.349,48.374,13.447,78.509,5.474,30.877,13.016,62.283,20.31,92.654v.005h0c4.732,19.7,9.624,40.076,13.923,60.173,4.823,22.546,8.365,42.322,10.828,60.458a474.943,474.943,0,0,1,4.6,60.873c.075,10.4-.266,20.708-1.014,30.633-.785,10.415-2.045,20.773-3.745,30.785a65.121,65.121,0,0,1,6.354,11.418,11.247,11.247,0,0,1,1.521,6.053,12.663,12.663,0,0,1-1.676,5.878,10.99,10.99,0,0,1-9.509,5.791h-.006c-.162,0-.328,0-.493-.012-3.249-.285-6.539-.605-9.721-.914h-.013c-8.083-.785-16.44-1.6-24.738-1.907-16.838-.585-34.969-.869-55.428-.869-11.929,0-24.891.094-40.793.3l-4.373.058c-64.888.807-130.839,1.948-194.618,3.052C333.3,714.595,234.922,716.3,138.156,716.926ZM492.333,354.663v0c-2.216,9.559,1.359,17.335,5.143,25.567a88.084,88.084,0,0,1,5.311,13.509c.9,3.279.557,8.343.254,12.81-.124,1.822-.241,3.542-.254,4.939.168,2.678,1.6,5.632,2.989,8.488,1.766,3.638,3.591,7.4,2.969,10.786-1.461,7.955-5.356,15.943-9.123,23.668-3.209,6.581-6.527,13.386-8.247,20.035a35.336,35.336,0,0,0-1.24,9.956,26.462,26.462,0,0,0,2.2,9.928c6,11.8,24.08,17.852,36.044,21.854l.06.02a52.778,52.778,0,0,0,10.5,2.749,74.265,74.265,0,0,0,11.739.894,95.721,95.721,0,0,0,34.933-6.78,70.652,70.652,0,0,0,14.864-8.024,43.021,43.021,0,0,0,10.717-10.714c4.83-7.184,10.229-21.449,14.566-32.91,2.668-7.05,4.971-13.135,6.691-16.492l1.02-14.243c1.188-16.724,2.447-35.814,2.354-50.71-.1-16.544-1.845-25.761-5.324-28.177-7.73-5.37-18.823-9.35-32.97-11.827a236.1,236.1,0,0,0-40.161-3.045c-15.058,0-28.274,1.009-36.709,1.855-9.8.984-15.988,2.029-16.515,2.375-1.2.791-2.22,1.388-3.118,1.915-2.491,1.462-3.994,2.345-5.787,5.177-2.385.317-4.818.651-7.231.994-1.6.524-2.44,1.608-2.235,2.9a3.285,3.285,0,0,0,1.328,2.04,4.764,4.764,0,0,0,2.9.914,6.57,6.57,0,0,0,2.331-.451Z" transform="translate(29 -16)" fill="#d08b5b"></path><path id="_Top" data-name="ðŸ‘• Top" d="M138.141,655.075a7.574,7.574,0,0,1-5.939-2.6,9.854,9.854,0,0,1-2-7.836c1.018-6.741,2-13.578,2.953-20.189l.023-.162c.519-3.6,1.055-7.33,1.59-10.994a249.265,249.265,0,0,1-63.394,8.715,196.278,196.278,0,0,1-27.022-1.834,174.942,174.942,0,0,1-26.584-5.819c-.416-.424-.571-.771-.462-1.031.19-.453,1.146-.663,3.01-.663.7,0,1.424.027,2.172.058l.173.007c.642.026,1.248.051,1.737.051a4.034,4.034,0,0,0,.993-.079A52.222,52.222,0,0,1,8.3,593.478a63.708,63.708,0,0,1-4.648-11.683A85.977,85.977,0,0,1,1.043,569.16a149.288,149.288,0,0,1-.8-26.827c.436-9.074,1.38-18.059,2.292-26.747.5-4.805.981-9.344,1.358-13.749,3.2-20.636,6.115-42.068,8.934-62.8l0-.017c7.2-52.933,14.645-107.667,28.012-159.773,3.453-13.46,7.233-26.45,11.236-38.609,4.29-13.032,9.008-25.637,14.024-37.465,5.313-12.53,11.153-24.647,17.358-36.016A360.316,360.316,0,0,1,104.7,132.9a247.02,247.02,0,0,1,26.925-30.586,225.749,225.749,0,0,1,31.822-25.546A197.159,197.159,0,0,1,199.418,57.91a173.423,173.423,0,0,1,39.365-10.519l1.51-.206,1.52-.2c2.121-.27,4.311-.525,6.43-.771,13.755-1.6,27.978-3.255,39.608-10.492,6.049-4.829,10.7-11.171,15.207-17.3,3.4-4.629,6.608-9,10.164-12.353a25.452,25.452,0,0,1,5.638-4.136A16.949,16.949,0,0,1,325.345,0l9.928,6.092,57.659,28.5c5.563,1.558,9.794,3.294,12.575,5.161s4.192,3.916,4.192,6.092V90.366c0,2.965,2.647,7.875,7.867,14.595s13.162,15.438,23.6,25.912l19.382-19.321-.434-2.53c-1.836-10.852-2.767-18.211-2.767-21.875,0-.986,1.2-2.684,3.555-5.047a130.319,130.319,0,0,1,10.666-9.2c9.437-7.483,23.791-17.866,42.664-30.86l16.591-15.62-1.769-5.379a30.879,30.879,0,0,1,7.686,1.387,32.562,32.562,0,0,1,7.12,3.173c4.624,2.781,7.815,6.376,8.985,10.123,2.4,2.921,3.466,8.94,4.5,14.761v.006c.75,4.236,1.458,8.237,2.639,11.039,7.61,1.211,14.993,2.748,21.943,4.566a189.368,189.368,0,0,1,19.637,6.268,162.076,162.076,0,0,1,17.478,7.877,145.67,145.67,0,0,1,15.467,9.393,138.709,138.709,0,0,1,13.6,10.815A140.344,140.344,0,0,1,660,112.593a150.444,150.444,0,0,1,10.321,13.381,169.621,169.621,0,0,1,8.9,14.524A216,216,0,0,1,693.354,172.6a336.619,336.619,0,0,1,10.223,35.561c5.494,23.491,9.349,48.374,13.447,78.509,5.474,30.877,13.016,62.283,20.31,92.654v.005h0c4.732,19.7,9.624,40.076,13.923,60.173,4.823,22.546,8.365,42.322,10.828,60.458a474.944,474.944,0,0,1,4.6,60.873c.075,10.4-.266,20.708-1.014,30.633-.785,10.415-2.045,20.772-3.745,30.785a65.114,65.114,0,0,1,6.354,11.418,11.246,11.246,0,0,1,1.521,6.053,12.664,12.664,0,0,1-1.676,5.878,10.99,10.99,0,0,1-9.509,5.791h-.006c-.161,0-.327,0-.493-.011-3.238-.285-6.52-.6-9.694-.912l-.027,0c-8.089-.786-16.45-1.6-24.751-1.908-16.843-.585-34.974-.869-55.43-.869-11.927,0-24.888.094-40.791.3l-4.373.058c-64.865.807-130.816,1.948-194.594,3.051h-.022c-95.138,1.646-193.514,3.347-290.281,3.977ZM302.573,391.284l-8.024,58.2,19.3,41.559,43.7-14.721,71.21-18.77L469.618,416.1l23.05-7.738a42.407,42.407,0,0,0-2.519,12.091,26.818,26.818,0,0,0,2.184,12.048c6,11.8,24.08,17.852,36.044,21.854l.06.02a52.789,52.789,0,0,0,10.5,2.75,74.261,74.261,0,0,0,11.739.894,95.727,95.727,0,0,0,34.933-6.78,70.655,70.655,0,0,0,14.864-8.024A43.02,43.02,0,0,0,611.188,432.5c4.83-7.184,10.229-21.449,14.566-32.91,2.668-7.05,4.971-13.135,6.691-16.492l1.319-18.5c1.17-16.8,2.227-34.273,2.037-48.186-.211-15.458-1.947-24.107-5.307-26.441-7.73-5.37-18.823-9.349-32.97-11.827a236.1,236.1,0,0,0-40.161-3.045c-15.058,0-28.274,1.009-36.709,1.855-9.8.984-15.988,2.029-16.515,2.375-1.2.791-2.22,1.388-3.118,1.915-2.491,1.462-3.994,2.345-5.787,5.177l-1.264.169,7.111-9.645-2.517-1.345c-8.943-4.742-16.426-8.348-22.242-10.719s-10.13-3.573-12.82-3.573c-2.815,0-7.164,2.216-12.928,6.586a225.622,225.622,0,0,0-21.818,19.759l-1.543.713a274.3,274.3,0,0,0-26.389,13.77c-6.978,4.244-12.251,8.219-15.674,11.815l-.246.26c-6.918,7.422-20.8,27.427-41.275,59.459l-29.786,17.616Zm199.674-61.213-10.768-20.614V293.08a7.31,7.31,0,0,0,.854-.268c-2.216,9.56,1.358,17.336,5.142,25.569a99.619,99.619,0,0,1,4.773,11.689Z" transform="translate(29 45.851)" fill="#9ddadb"></path><path id="_Ink" data-name="ðŸ– Ink" d="M145.082,687.489a7.273,7.273,0,0,1-3.363-.824l-.243-.133-.408-.234a8.148,8.148,0,0,1-3.277-3.809,6.751,6.751,0,0,1-.3-4.981,112,112,0,0,0,3.559-12.762c.88-3.719,1.789-7.562,3.025-11.239l-2.1.937-2.763,1.2a273.17,273.17,0,0,1-34.7,12.714c-13.107,3.679-24.96,5.468-36.236,5.468A94.56,94.56,0,0,1,43.6,670.64a64.759,64.759,0,0,1-20.208-9.2A47.013,47.013,0,0,1,8.572,645.092a66.293,66.293,0,0,1-6.744-21.058A166.607,166.607,0,0,1,.113,601.862a347.237,347.237,0,0,1,2.9-54.514,331.067,331.067,0,0,1,6.54-36.3,8.969,8.969,0,0,1-2.971-5.721c-1.148-9.266.276-18.878,1.652-28.174l0-.025c.312-2.109.635-4.289.918-6.409,1.572-11.773,3.194-22.619,4.961-33.156,3.844-22.936,8.256-45.3,13.113-66.469,4.421-19.271,9.661-38.845,15.575-58.177,5.782-18.9,12.358-38.067,19.548-56.966l1.251-3.27c7.435-19.331,14.581-35.875,21.845-50.576a351.226,351.226,0,0,1,27.9-47.45A214.113,214.113,0,0,1,129.432,134.2a122.612,122.612,0,0,1,19.234-17.431c12.277-8.873,26.784-16.1,44.35-22.1A240.839,240.839,0,0,1,216.873,87.9c7.819-1.8,16.027-3.283,24.4-4.423,2.482-.338,5.025-.661,7.485-.974,14.31-1.821,29.106-3.7,42.352-9.527a7.27,7.27,0,0,1-.464-5.742,8.9,8.9,0,0,1,3.5-4.737c9.694-6.4,18.757-14.488,27.522-22.306,1.283-1.144,2.609-2.327,3.922-3.49a2.89,2.89,0,0,1,1.93-.765,2.941,2.941,0,0,1,2.471,1.4,2.723,2.723,0,0,1,.015,2.77A112.925,112.925,0,0,1,318.484,58.34c-2.859,3.543-5.912,6.872-8.786,9.942,7.6,6.572,14.053,14.6,20.3,22.362l.383.476c1.944,2.416,3.885,4.887,5.763,7.277,5.916,7.529,12.033,15.313,18.87,22.241a80.886,80.886,0,0,0,14.177,11.554,79.122,79.122,0,0,0,16.423,7.948l2.4.833a95.218,95.218,0,0,1,17.667,7.91c6.19,3.756,10.691,8.088,13.76,13.244a2.474,2.474,0,0,1,0,2.548,2.745,2.745,0,0,1-2.314,1.42,2.4,2.4,0,0,1-1.28-.376c-7.456-4.617-15.9-6.925-24.071-9.157-4.66-1.273-9.478-2.59-14.089-4.323a90.765,90.765,0,0,1-17.3-8.734,102.348,102.348,0,0,1-15.182-12.076c-7.843-7.517-14.765-16.045-21.458-24.291l-.034-.042c-1.367-1.684-2.78-3.425-4.18-5.131a221.583,221.583,0,0,0-26.689-26.945A102.219,102.219,0,0,1,269.07,86.544c-8.022,2.791-16.329,4.913-25.577,7.2l-1.894.469c-10.127,2.507-18.348,4.794-25.871,7.2A219.245,219.245,0,0,0,190.662,111a204,204,0,0,0-21.1,11.06,120.954,120.954,0,0,0-19.1,14.166c-12.794,11.741-22.678,26.906-30.939,40.2a387.374,387.374,0,0,0-25.809,49.74c-6.6,15.1-13.006,31.736-20.152,52.34-6.315,18.212-12.221,36.928-17.553,55.629C50.722,352.68,45.86,371.694,41.56,390.647c-4.231,18.652-7.78,37.716-10.85,58.28-1.39,9.309-2.652,18.839-3.752,28.327-.284,2.448-.518,4.956-.745,7.382l0,.021c-.711,7.6-1.446,15.458-3.793,22.814a8.451,8.451,0,0,1-2.968,4.377,7.142,7.142,0,0,1-4.272,1.376c-.123,0-.247,0-.369-.009l-.638,7.979c-.814,10.231-1.631,21.128-1.9,31.983-.483,19.463-.144,36.9,1.039,53.3l.181,2.422a97.888,97.888,0,0,0,3.223,19.811c2.147,7.262,5.345,12.89,9.778,17.206,4.656,4.535,10.812,7.957,18.294,10.169a77.606,77.606,0,0,0,20.928,2.929c.434.005.866.008,1.285.008a113.916,113.916,0,0,0,22.227-2.312,164.53,164.53,0,0,0,21.722-6.026c14.291-4.953,28.137-11.452,41.528-17.738l3.466-1.626c14.188-6.646,28.568-13.839,42.74-21.38,13.8-7.343,27.812-15.232,41.643-23.447,13.812-8.2,27.744-16.844,41.408-25.681,6.636-4.293,13.341-8.736,19.93-13.2,1.315-.892,2.626-1.828,3.894-2.734l0,0c2.36-1.685,4.8-3.427,7.3-4.907a6.176,6.176,0,0,1-1.872-3.215,4.854,4.854,0,0,1,.725-3.705,37.876,37.876,0,0,1-7.157-8.486,53.372,53.372,0,0,1-4.949-10.306,74.565,74.565,0,0,1-4.176-22c-.376-9.675.813-19.462,1.963-28.926l.006-.05c.184-1.515.374-3.082.555-4.621.679-5.789,1.516-11.5,2.318-16.816.14-.927.262-1.852.392-2.83.177-1.334.359-2.714.586-4.073-14.842,8.156-30.2,16.03-45.647,23.406-15.24,7.277-31.016,14.283-46.891,20.823-15.707,6.472-31.848,12.43-49.344,18.214l-3.379,1.112c-9.562,3.13-16.948,5.393-23.947,7.335-8.831,2.451-16.795,4.307-24.347,5.674a.829.829,0,0,1-.148.013.99.99,0,0,1-.925-.777.658.658,0,0,1,.423-.778c10.561-4.66,21.539-8.9,32.155-13.007,5.376-2.078,10.936-4.227,16.371-6.4l2.654-1.081a5.316,5.316,0,0,1-.951-.138c-6.7-1.618-13.455-3.884-19.984-6.076l-.016-.005c-2.679-.9-5.449-1.829-8.159-2.694s-5.578-1.644-8.354-2.4c-6.138-1.667-12.486-3.39-18.015-6.241a.564.564,0,0,1-.313-.641.732.732,0,0,1,.645-.582c.908-.063,1.859-.095,2.827-.095,6.188,0,12.624,1.271,18.848,2.5,2.111.417,4.1.811,6.1,1.159l3.336.584c5.113.9,11.055,1.984,16.863,3.427a7.127,7.127,0,0,1,2.723-4.831c13.552-10.036,14.688-28.547,15.691-44.879v-.009c.206-3.346.4-6.506.693-9.532l1.293-13.344c2.193-22.526,4.642-46.478,8.332-69.889a.889.889,0,0,1,.932-.775,1.14,1.14,0,0,1,1.186,1.061c.13,19.688-.865,39.646-1.827,58.947-.442,8.87-.9,18.042-1.242,27.08l-.168,4.707-.025.742c-.591,17.47-1.2,35.533-12.2,48.965a4.527,4.527,0,0,1,2.247-.624,3.436,3.436,0,0,1,2.683,1.214,9.191,9.191,0,0,1,2.42,5.956c9.7-4.067,19.825-8.434,30.088-12.98,15.762-6.983,31.782-14.57,47.615-22.548,15.405-7.764,31.046-16.106,46.487-24.8a5.836,5.836,0,0,1,8.05,2.047l.235-.034a1.011,1.011,0,0,1,.12-.01l.233-.011h.026a9.245,9.245,0,0,1,4.507-1.1,14.165,14.165,0,0,1,9.36,3.871c.089.086.171.18.244.263l.055.063a49.622,49.622,0,0,0,13.009-8.528,104.48,104.48,0,0,0,11.283-12.118c3.169-3.944,6.339-8.341,9.691-13.441,2.745-4.178,5.432-8.546,8.031-12.771,3.943-6.409,8.02-13.035,12.437-19.238A111.4,111.4,0,0,1,390.1,344.456a89.081,89.081,0,0,1,20.067-13.869,122.326,122.326,0,0,1,22.8-8.74,1.555,1.555,0,0,1,.427-1.276,2.2,2.2,0,0,1,1.509-.862,2.148,2.148,0,0,1,.922.249.374.374,0,0,1,.167.158l1.536-2.625c1.117-1.9,1.752-2.926,2-3.237,1.775-2.236,3.624-4.48,5.5-6.672a47.4,47.4,0,0,1,10.956-9.925,20.742,20.742,0,0,1,11.175-3.09c5.6,0,11.333,1.872,16.874,3.682l.127.041c3.705,1.21,7.463,2.467,11.1,3.682l.1.033c1.91.638,3.885,1.3,5.828,1.944l.585.192c.35.112.7.223,1.094.345a30.468,30.468,0,0,1,5.825,2.27,8.871,8.871,0,0,1,4.671,9.817,191.481,191.481,0,0,1,47.109-5.607,246.192,246.192,0,0,1,39.141,3.247,285.378,285.378,0,0,1,37.779,8.832,4.746,4.746,0,0,1,3.325,3.324,286.242,286.242,0,0,1,4.678,34.905,227.7,227.7,0,0,1-.217,35.2,198.856,198.856,0,0,1-4.832,29.926,161.721,161.721,0,0,1-9.851,28.645l-.48,1.045c-5.02,10.854-10.135,19.446-15.637,26.268a62.274,62.274,0,0,1-10.9,10.747,40.018,40.018,0,0,1-13.2,6.684,56.632,56.632,0,0,1-15.52,1.841c-4.546,0-9.165-.329-13.633-.646-2.345-.167-4.77-.339-7.111-.457-2.584-.13-5.228-.237-7.785-.341h-.006c-8.861-.359-18.023-.729-26.852-2.131a42.808,42.808,0,0,1-14.1-4.713,35.748,35.748,0,0,1-11.2-9.692c-5.443-7.163-8.306-15.9-10.589-24.271-1.228.391-2.237.744-3.173,1.11a34.9,34.9,0,0,0-11.517,7.769c-3.226,3.125-6.173,6.609-9.024,9.979a112.484,112.484,0,0,1-11.094,11.9,85.169,85.169,0,0,1-22.7,14.169,148.748,148.748,0,0,1-21.613,7.238c-7.344,1.913-14.921,3.477-22.247,4.99l-.062.013c-3.153.651-6.414,1.325-9.613,2.017l-1.262.275c-5.7,1.25-13.159,2.986-20.368,5.335a95.757,95.757,0,0,0-19.17,8.412,8.19,8.19,0,0,1-2.71,5.337,6.817,6.817,0,0,1,2.071,3.688,6.122,6.122,0,0,1-.916,4.414c-4.352,6.907-11.4,11.363-18.209,15.673l-.009.006c-1.318.834-2.682,1.7-4,2.56l-.524.346c-7.878,5.223-15.937,10.415-23.951,15.43-15.7,9.827-32.055,19.374-50.015,29.184-13.945,7.618-27.842,14.9-41.305,21.64-14.188,7.1-28.36,13.842-42.122,20.028a93.579,93.579,0,0,1,1.4,13.971,114.62,114.62,0,0,0,.956,11.451l.2,1.2a8.173,8.173,0,0,1-2.345,7.785l-.228.209,0-.028-.2.185-.068.057.023-.018a7.265,7.265,0,0,1-.765.62l-.333.214A6.739,6.739,0,0,1,145.082,687.489ZM307.618,436.868c.01.693.012,1.406.015,2.035,0,1.023.008,1.989.034,2.951.115,4.367.174,9.023.174,13.838,0,3.488-.068,7.033-.134,10.461-.117,6.074-.238,12.353.019,18.522a82.571,82.571,0,0,0,1.428,12.887,43.736,43.736,0,0,0,4.236,12.207,32.871,32.871,0,0,0,5.214,7.2,49.123,49.123,0,0,0,6.552,5.649,106.471,106.471,0,0,1,18.667-8.886A180.006,180.006,0,0,1,363.8,507.76c5.337-1.3,10.806-2.476,16.1-3.615l.007,0c10.925-2.352,22.222-4.783,32.99-8.419a86.782,86.782,0,0,0,21.793-10.619c6.532-4.5,11.736-10.571,16.767-16.438l.057-.067q.655-.764,1.312-1.527l.873-1.008c5.55-6.366,11.814-12.752,19.993-16.35a61.463,61.463,0,0,1,8.642-2.78c4.807-1.293,9.775-2.63,13.523-5.549,3.112-2.426,3.424-5.874,3.754-9.525l.019-.214a18.619,18.619,0,0,1-2.656.177,48.206,48.206,0,0,1-6.617-.621l-.014,0c-.855-.12-1.738-.244-2.593-.344l-2.008-.235a81.514,81.514,0,0,1-10.851-1.847.709.709,0,0,1,0-1.356,90.322,90.322,0,0,1,12.333-2.02l.527-.062,1.027-.128c.5-.066,1.016-.137,1.514-.206l.012,0a48.79,48.79,0,0,1,6.621-.614,17.4,17.4,0,0,1,3.842.391,32.775,32.775,0,0,1,3.111-7.708c.6-1.077,1.349-2.182,2.144-3.352,1.836-2.7,3.733-5.5,4.086-8.394a6.77,6.77,0,0,0-.723-3.8l-.2-.374a3.162,3.162,0,0,0-.963-1.161.823.823,0,0,1-.365.185,5.863,5.863,0,0,1-6.97-2.773,110.375,110.375,0,0,1-11.944.591c-2.041.027-3.969.053-5.828.136l-5.563.269c-1.831.084-4.242.18-6.652.181a52.349,52.349,0,0,1-11.092-.99.982.982,0,0,1-.711-.9.847.847,0,0,1,.476-.9c5.963-2.55,12.9-3.573,19.6-4.561.974-.144,1.981-.292,2.95-.441,2.732-.42,5.523-.779,8.223-1.126l.067-.009c1.335-.172,2.715-.349,4.07-.532.878-.118,1.792-.265,2.677-.406h.008a55.3,55.3,0,0,1,5.808-.72,16.44,16.44,0,0,0,3.382-7.477,18.327,18.327,0,0,0-.362-7.957,17.863,17.863,0,0,0-3.5-6.788,15,15,0,0,0-6.154-4.452,10.925,10.925,0,0,1-4.543.9,32.5,32.5,0,0,1-3.885-.317l-.014,0c-.761-.092-1.547-.187-2.361-.257-4.385-.376-8.015-.551-11.425-.551h-.415a98.08,98.08,0,0,0-9.818.72,96.753,96.753,0,0,1-10.138.727,36.791,36.791,0,0,1-4.209-.224,2.09,2.09,0,0,1-1.676-1.417,1.326,1.326,0,0,1,.484-1.464,29.607,29.607,0,0,1,10.512-5.218,79.848,79.848,0,0,1,11.725-2.326l1.58-.211c.69-.09,1.43-.193,2.146-.293,2.053-.285,4.376-.608,6.742-.822a5.062,5.062,0,0,1,4-2.764c.528-.072,1.064-.118,1.583-.162l.174-.015-.009-.058a3.536,3.536,0,0,0,2.944-1.775c1.633-2.6,1.291-7.374.326-9.655-1.167-2.758-3.572-4.763-7.149-5.959a32.783,32.783,0,0,0-10.207-1.361c-1.5,0-3.062.058-4.9.182a146.081,146.081,0,0,0-26.421,4.222,115.68,115.68,0,0,0-24.99,9.41,77.332,77.332,0,0,0-20.541,15.908,144.57,144.57,0,0,0-15.786,20.76l-.45.7c-1.545,2.4-3.116,4.933-4.635,7.381l-.01.015c-3.923,6.322-7.979,12.859-12.575,18.842a70.269,70.269,0,0,1-15.865,15.607c-8.881,6.063-17.387,10.028-25.28,11.785A4.636,4.636,0,0,1,318.3,435.9l-.615.141a38.5,38.5,0,0,1-7.819.938A20.86,20.86,0,0,1,307.618,436.868ZM161.993,487.562a3.925,3.925,0,0,1-.276.374l-.152.176.788-.319ZM539.474,317.177c-8.869,0-17.9.239-26.389.483a14.386,14.386,0,0,1-4.914,6.907,13.517,13.517,0,0,1-7.793,3.065,22.843,22.843,0,0,1,3.586,10.956,24.137,24.137,0,0,1-1.868,11.252,30.006,30.006,0,0,1,8.725,5.3,27.9,27.9,0,0,1,6.448,8.262,28.868,28.868,0,0,1,2.5,6.885,28.153,28.153,0,0,1,.663,7.011,29.894,29.894,0,0,1-3.716,13.385,18.109,18.109,0,0,1,4.526,6.619,19.346,19.346,0,0,1,1.434,8.022c-.227,5.314-3.041,9.926-5.762,14.385-.351.575-.713,1.168-1.059,1.747-2.615,4.376-3.176,8.321-3.826,12.888-.15,1.053-.3,2.141-.49,3.272a20.638,20.638,0,0,1-5.2,10.82,28.927,28.927,0,0,1-9.861,6.706l.407,1.6a81.2,81.2,0,0,0,3.663,11.486,30.533,30.533,0,0,0,6.415,9.936c6.723,6.7,16.944,7.138,25.962,7.527.774.033,1.471.064,2.16.1l.463.022c7.158.358,14.432.773,21.467,1.174h.015l.054,0,4.814.274,6.587.368c2.066.114,4.5.23,6.9.23a43.057,43.057,0,0,0,11.056-1.216,26.337,26.337,0,0,0,10.123-5.077c6.193-5.014,11.961-11.936,17.143-20.576a143.2,143.2,0,0,0,11.421-24.382,163.788,163.788,0,0,0,7.031-25.7,193.117,193.117,0,0,0,3.078-26.443,234.181,234.181,0,0,0-.28-26.7c-.564-8.549-1.588-17.459-3.042-26.482a292.04,292.04,0,0,0-58.232-12.5A316.135,316.135,0,0,0,539.474,317.177ZM472.3,315.426a49.132,49.132,0,0,1,12,1.345,28.927,28.927,0,0,1,10.436,4.856c.013-.021.024-.043.035-.064s.034-.065.055-.1a26.315,26.315,0,0,1,3.315-3.882l.039-.041c.113-.107.226-.219.346-.344l.669-.712-1.529-.529c-2.329-.824-4.944-1.81-6.507-2.4-.63-.238-1.084-.409-1.261-.472l-.042-.014-2.132-.721-.007,0c-3.4-1.151-6.925-2.341-10.371-3.562-.615-.218-1.221-.445-1.863-.687-2.779-1.043-5.653-2.122-8.554-2.122a10.647,10.647,0,0,0-1.7.133,20.207,20.207,0,0,0-8.033,3.545,78.7,78.7,0,0,0-7.336,5.934l-.007.006c-1.281,1.124-2.491,2.185-3.689,3.156l2.825-.549C456.506,316.763,464.53,315.427,472.3,315.426Zm190.64,371.121a3.03,3.03,0,0,1-1.885-.649,2.757,2.757,0,0,1-1.024-1.917l-.449-4.33a73.363,73.363,0,0,0-3.1-16.168,89.2,89.2,0,0,1-3.945-19.123c-1.157-10.238-1.672-20.738-2.1-30.614l-.3-7.069c-.956-22.085-1.363-43.669-1.211-64.151.164-21.988.978-43.56,2.421-64.118l.219-3.047c.908-12.347,1.793-21.8,2.872-30.66,1.381-11.342,3.06-21.393,5.133-30.727,5.042-22.706,12.507-41.369,22.823-57.056a.744.744,0,0,1,.635-.352.782.782,0,0,1,.612.292.73.73,0,0,1,.125.638c-5.189,21.255-10.456,44.095-13.833,67.1-1.327,9.038-2.344,18.29-3.108,28.284-.68,8.9-1.143,18.192-1.414,28.4-.5,18.958-.252,38.253-.008,56.913l0,.182c.041,3.15.084,6.407.122,9.608l.025,2.128c.224,19.689.558,42.985,1.335,66.491.089,2.7.2,5.458.31,8.123.342,8.4.7,17.086.395,25.586a75.939,75.939,0,0,1-1.292,10.219c-.43,2.479-.874,5.042-1.119,7.614a88.741,88.741,0,0,0,.056,13.15c.045.834.1,1.779.139,2.691a2.426,2.426,0,0,1-.61,1.843A2.477,2.477,0,0,1,662.938,686.547Zm110.421-1.854a8.922,8.922,0,0,1-6.448-2.629,6.4,6.4,0,0,1-1.732-4.914c1.54-23.4,2.806-48.539,1.66-73.8-1.108-24.373-3.426-49.177-6.889-73.724-2.152-15.256-5.135-30.624-8.02-45.486-1.007-5.186-2.048-10.548-3.045-15.865l-.6-3.226c-2.995-16.22-6.128-32.7-9.158-48.632l-.006-.03-.651-3.426-4.931-25.988c-6.736-35.464-14.658-76.64-23.441-116.528l-.5-2.275c-4.982-22.24-10.243-39.948-16.558-55.729a210.919,210.919,0,0,0-12.555-26.235,159.02,159.02,0,0,0-16.5-23.75,133.512,133.512,0,0,0-10-10.573c-3.384-3.21-7.048-6.355-10.89-9.347A188.312,188.312,0,0,0,619.2,126.851c-7.5-4.2-15.932-8.391-25.786-12.806-9.037-4.05-18.352-7.886-26.57-11.271a1.291,1.291,0,0,1-.815-1.466,1.1,1.1,0,0,1,1.107-.929,1.53,1.53,0,0,1,.352.043l2.851.68c19.871,4.76,40.943,10.2,60.913,19.74a131.236,131.236,0,0,1,26.977,17.247,142.279,142.279,0,0,1,22.188,23.088c11.681,15.219,21.062,33,28.679,54.346,7.24,20.293,12.059,41.56,15.818,59.687,4.437,21.394,8.756,43.184,12.932,64.256,4.581,23.115,9.318,47.016,14.228,70.477l1.742,8.354c5.215,25.082,9.055,44.428,12.453,62.728,4.244,22.857,7.669,43.5,10.471,63.1l.435,3.065c3.573,25.491,5.585,46.45,6.332,65.96.44,11.508.424,22.66-.048,33.147a312.293,312.293,0,0,1-3.175,32.9,6.129,6.129,0,0,1-2.461,4.172A7.568,7.568,0,0,1,773.359,684.693Zm-301.29-36.7a4.755,4.755,0,0,1-4.548-3.25,55.074,55.074,0,0,1-2.147-16.167c-.025-5.577.458-11.192.926-16.621v-.015c.137-1.595.267-3.1.385-4.611l.724-9.316c.642-8.355,1.374-18.211,1.939-27.962.75-12.9,1.377-26.029,1.943-38.3.182-3.945.384-8.015.616-12.442l.337-6.218c.038-.683.071-1.385.1-2.064.218-4.658.443-9.475,2.32-13.655a1.7,1.7,0,0,1,1.623-.964,2.009,2.009,0,0,1,1.777.964c2.318,4.278,2.788,9.738,3.2,14.555l0,.024c.045.518.091,1.053.138,1.571l.051.552c.745,7.872,1.208,13.93,1.5,19.642.635,12.457.938,25.013.9,37.318-.045,14.307-.368,26.821-.986,38.257l-.186,3.416a147.928,147.928,0,0,1-1.734,17.078,52.2,52.2,0,0,1-5.21,16.033A4.071,4.071,0,0,1,472.069,647.992Zm-431.5-88.714a.526.526,0,0,1-.159-.025,4.69,4.69,0,0,1-3.071-2.421c-.688-1.511-.455-3.614.693-6.251,2.791-6.408,7.389-12.272,11.836-17.943l.077-.1q.654-.834,1.3-1.656A165.11,165.11,0,0,1,66.521,513.89l1.606-1.552c.621-.607,1.253-1.247,1.923-1.925a60.82,60.82,0,0,1,7.32-6.633c3.047-2.2,5.85-3.264,8.567-3.264.216,0,.434.007.65.021A4.382,4.382,0,0,1,90.745,506c-1.007,4.777-5.012,7.744-8.886,10.614-1.106.82-2.149,1.592-3.132,2.409-4.941,4.107-9.529,8.433-14.185,12.874-3.995,3.807-7.89,7.76-11.908,12.087l-1.441,1.561c-.244.267-.763.774-1.419,1.416l-.009.009c-3.117,3.048-9.6,9.391-8.727,11.29l.058.1a.542.542,0,0,1,.017.572A.637.637,0,0,1,40.567,559.278ZM420.514,435.6a9.026,9.026,0,0,1-6.334-2.687,14.353,14.353,0,0,1-3.677-6.437,26.619,26.619,0,0,1-.56-7.511c.056-2.954.113-6.009-.976-8.624a24.765,24.765,0,0,0-2.189-3.863,25.945,25.945,0,0,1-2.153-3.766,24.849,24.849,0,0,1-1.917-8.384,21.439,21.439,0,0,1,1.306-7.1c1.034-3.466,2.1-7.05.495-10a2.071,2.071,0,0,1,.088-1.979,1.5,1.5,0,0,1,1.311-.791h.037l.148.01a8.533,8.533,0,0,1,5.188,2.6,11.574,11.574,0,0,1,2.835,5.231,47.8,47.8,0,0,1,.979,5.61c.49,3.688.952,7.168,3.323,10.664,3.767,5.55,5.907,9.8,6.43,16.34.067.843.1,1.7.141,2.525v.012a31.415,31.415,0,0,0,.585,5.607l.442,1.876a17.576,17.576,0,0,1,.619,6.076,4.474,4.474,0,0,1-3.132,4.113A9.824,9.824,0,0,1,420.514,435.6ZM230.478,337.211a74.27,74.27,0,0,1-11.507-.8.95.95,0,0,1-.833-.928,1.3,1.3,0,0,1,.833-1.332c7.4-2.241,15.426-3.156,23.183-4.04,1.774-.2,3.607-.411,5.4-.633,8.3-1.03,19.209-2.429,30.042-4.12,10.808-1.688,20.576-3.349,29.862-5.078,4.457-.829,8.978-1.708,13.436-2.613.949-.193,1.9-.435,2.917-.691a29,29,0,0,1,6.936-1.177,9.9,9.9,0,0,1,3.678.646,3.72,3.72,0,0,1,2.31,2.62,2.993,2.993,0,0,1-.882,2.787c-2.7,2.708-6.474,3.28-10.121,3.833-.7.107-1.428.217-2.131.34l-.383.069c-5.063.937-10.255,1.847-15.431,2.705-9.861,1.633-19.67,3.056-29.153,4.229-11.22,1.389-21.067,2.426-30.106,3.172l-3.893.32C240.116,336.877,235.274,337.211,230.478,337.211Zm242.352-46.328a3.51,3.51,0,0,1-3.058-1.756c-3.93-6.527-5.931-14.058-7.865-21.342-.974-3.668-1.981-7.458-3.221-11.072-1.618-4.715-3.374-9.47-5.071-14.068l0-.007c-2.088-5.658-4.246-11.5-6.168-17.325a130.685,130.685,0,0,1-5.228-21,80.819,80.819,0,0,1-.637-21.494l-.045-.075a1.78,1.78,0,0,1-.1-.175l-1.143-2.5C437.223,173.4,434.215,167.437,428.5,162c-1.439-1.37-2.932-2.723-4.375-4.032-4.468-4.051-9.087-8.239-12.607-13.395a31.009,31.009,0,0,1-4.148-8.645A36.361,36.361,0,0,1,405.907,127c-.28-6.028.651-12.307,1.551-18.379.56-3.774,1.138-7.674,1.426-11.5l.139-1.984c.253-3.832.23-8.046-1.852-10.252-1.758-1.864-5.19-2.737-8.218-3.507-1.223-.311-2.375-.6-3.318-.938a184.559,184.559,0,0,1-24.755-10.679A157.119,157.119,0,0,1,349.169,56.2l-3.458-2.6c-5.476-4.133-11.128-8.634-14.769-14.215a.887.887,0,0,1,0-.916.915.915,0,0,1,.776-.517A.747.747,0,0,1,332,38a87.2,87.2,0,0,1,13.135,7.216l.013.008c1.388.869,2.824,1.769,4.243,2.621a6.953,6.953,0,0,1,.31-.633A72.443,72.443,0,0,0,357.2,27.125a75.376,75.376,0,0,0,1.348-21.409A5.153,5.153,0,0,1,359.792,1.7,5.746,5.746,0,0,1,364.035,0a6.762,6.762,0,0,1,4.216,1.432,5.912,5.912,0,0,1,2.2,4.284,84.518,84.518,0,0,1-10.468,47.51c-.039.07-.081.135-.122.2l-.065.1c5.835,3.037,10.693,5.376,15.287,7.358,7.132,3.078,13.768,5.594,20.288,7.69,1.762.567,3.6,1.027,5.544,1.513,4.84,1.211,9.839,2.462,13.593,5.452A17.821,17.821,0,0,1,420,83.106a28.773,28.773,0,0,1,1.8,9.467c.263,6.668-1.062,13.878-2.127,19.671-.131.714-.267,1.45-.394,2.16l-.331,1.867c-1.038,5.975-1.836,12.3.743,18.171,2.513,5.722,7.328,10.041,11.985,14.218l.053.047q.6.535,1.186,1.066l1,.9c4.68,4.264,9.444,8.941,12.595,14.245,2.595-5.366,6.05-9.9,9.709-14.694l.013-.017c.468-.613.952-1.248,1.432-1.882,2.439-3.22,1.486-4.717-.094-7.2-.37-.581-.789-1.24-1.2-1.982a21.236,21.236,0,0,1-2.252-5.8,17.005,17.005,0,0,1-.2-6.2,18.521,18.521,0,0,1,1.778-5.515,24.011,24.011,0,0,1,3.209-4.766,43.879,43.879,0,0,1,8.789-7.577,155.366,155.366,0,0,1,13.461-7.905c3.27-1.775,6.65-3.61,9.871-5.587a318.622,318.622,0,0,0,44.861-32.952.465.465,0,0,1,.313-.119.524.524,0,0,1,.454.262.4.4,0,0,1-.031.425A174.887,174.887,0,0,1,497.212,106.5c-5.438,4.209-11.234,7.886-16.84,11.442-1.058.671-2.011,1.276-2.965,1.885l-1.937,1.243c-3.112,2.016-6.152,4.27-7.3,7.079-.938,2.286.383,4.175,1.659,6,.4.571.811,1.16,1.148,1.753a18.471,18.471,0,0,1,2.173,5.819,15.905,15.905,0,0,1,.006,5.608,23.924,23.924,0,0,1-5.176,10.528l-.247.308c-5.361,6.606-9.319,12.688-11.209,20.894-1.866,8.1-1.861,16.95.015,27.05,1.687,9.083,4.652,17.974,7.6,26.23l.237.661c.788,2.2,1.6,4.424,2.389,6.58l.01.026c2.453,6.718,4.987,13.661,7.121,20.611l.776,2.541c2.568,8.5,4.636,16.837,1.782,25.491A3.813,3.813,0,0,1,472.829,290.883Zm31.978-121.16c-.784,0-1.584-.03-2.378-.088a32.037,32.037,0,0,1-13.44-3.855A29.646,29.646,0,0,1,484.25,162c-3.026-2.744-6.154-5.581-9.615-5.581a6.262,6.262,0,0,0-1.939.311.561.561,0,0,1-.173.028.717.717,0,0,1-.633-.49.548.548,0,0,1,.166-.635,8.047,8.047,0,0,1,5.211-1.9c3.461,0,7.01,2.053,10.442,4.039a34.208,34.208,0,0,0,6.424,3.176,25.026,25.026,0,0,0,27.5-8.668,279.066,279.066,0,0,0,19.108-27.891,135.257,135.257,0,0,0,7.978-14.936,50.963,50.963,0,0,0,2.823-9.086,65.919,65.919,0,0,1,1.989-7.033,6.8,6.8,0,0,1,2.813-3.462,7.8,7.8,0,0,1,4.087-1.158,6.422,6.422,0,0,1,4.685,1.86A5.923,5.923,0,0,1,566.6,95.1c-.31,5.565-2.529,10.71-4.674,15.686q-.307.712-.612,1.424l-.252.592a109.736,109.736,0,0,1-8.63,16.444,208.942,208.942,0,0,1-22.051,28.292,39.248,39.248,0,0,1-11.56,8.879A31.425,31.425,0,0,1,504.807,169.723ZM562.959,84.7a6.079,6.079,0,0,1-4.194-1.851A118.475,118.475,0,0,1,546.025,68.8a57.7,57.7,0,0,1-9.1-16.509,1.007,1.007,0,0,1,.16-.922,1.215,1.215,0,0,1,.959-.508.965.965,0,0,1,.534.159,82.467,82.467,0,0,1,8.951,7.1l0,0c1.345,1.172,2.735,2.383,4.128,3.522,4.831,3.949,9.725,7.836,14.548,11.553a6.88,6.88,0,0,1,2.524,3.5,6,6,0,0,1-.1,3.647A6.237,6.237,0,0,1,562.959,84.7ZM529.246,65.271a6.181,6.181,0,0,1-3.885-1.408,41.312,41.312,0,0,1-13.493-19.84,43.7,43.7,0,0,1-2.039-11.9,42.9,42.9,0,0,1,1.343-12.111,5.347,5.347,0,0,1,5.388-4.23,6.68,6.68,0,0,1,5.133,2.39,5.455,5.455,0,0,1,1.014,4.785l-.054.22a30.407,30.407,0,0,0,.676,17.577,32.325,32.325,0,0,0,10.1,14.411l.348.283a5.283,5.283,0,0,1,1.878,2.659,4.592,4.592,0,0,1-.114,2.789A6.909,6.909,0,0,1,529.246,65.271Z" transform="translate(24 7)"></path></g><g transform="translate(225 0)"><g><g id="head_hat-hip" data-name="head/hat-hip"><path id="_Skin" data-name="âœ‹ Skin" d="M372.581,193.192c-.4-22.4-.838-45.252-4.168-67.436-3.256-21.688-12.213-41.292-27.6-57.041-32.693-33.453-80.083-41.624-124.2-49.112L141.194,6.8c-23.009-3.9-47.556-10.147-70.8-4.609C58.936,4.92,49.208,11.26,40.317,18.761c-8.57,7.23-17.784,14.994-23.591,24.721S8.908,64.61,7.017,75.627q-3.2,18.631-4.967,37.487a469.646,469.646,0,0,0-.97,75.661c.829,12.219,2.148,24.4,3.832,36.533q1.253,9.022,2.845,17.994c.314,1.763.553,3.715.875,5.687a59.924,59.924,0,0,0-3.622,20.75c.321,20.552,17.668,33.491,35.156,40.438,10.14,4.028,20.741,6.765,30.7,11.265,10.481,4.733,17.615,12.406,24.781,21.159a241.1,241.1,0,0,0,46.7,44.216c37.338,26.541,84.63,39.094,129.934,29.566A115.756,115.756,0,0,0,303.893,405.2c10.316-5.647,18.073-13.83,24.587-23.505,12.1-17.961,20.769-38.186,27.331-58.767a340.745,340.745,0,0,0,14.035-63.917c2.582-21.82,3.126-43.862,2.735-65.817Z" transform="translate(46 90)" fill="#d08b5b"></path><path id="_Ink" data-name="ðŸ– Ink" d="M357.049,497.025h-.009a82.571,82.571,0,0,1-17.582-1.848,70.469,70.469,0,0,1-44.413-30.548l-.284-.449c-1.416-2.273-2-3.885-1.635-4.537a.577.577,0,0,1,.549-.287c.985,0,2.774,1.341,4.558,3.416a96.932,96.932,0,0,0,28.695,17.681,85.532,85.532,0,0,0,31.25,5.952,86.553,86.553,0,0,0,31.911-6.164,101.6,101.6,0,0,0,29.972-18.672c16.667-14.4,29.767-34.465,38.936-59.643a234.291,234.291,0,0,0,10.079-37.789,314.728,314.728,0,0,0,4.621-40.745,387,387,0,0,0-.236-41.935c-.807-13.737-2.318-27.652-4.492-41.358-4.225-26.644-10.916-52.206-19.348-73.92a349.306,349.306,0,0,0-37.987-2.076,345.087,345.087,0,0,0-62.3,5.647,322.525,322.525,0,0,0-59.966,17.084,290.459,290.459,0,0,0-55.011,28.736,263.533,263.533,0,0,0-47.43,40.6l4.442,26.748c.249,1.5.513,3.019.769,4.492l.013.072c.518,2.984,1.055,6.069,1.492,9.12.407,2.843.5,5.807-1.563,8.216a6.908,6.908,0,0,1-5.491,2.62c-4.288,0-9.388-3.382-14.319-6.654l-.005,0a77.339,77.339,0,0,0-7.48-4.579,41.937,41.937,0,0,0-5.809-.428c-.807,0-1.607.028-2.381.082a30.418,30.418,0,0,0-22.79,15.071,42.859,42.859,0,0,0-5.08,13.136,52.819,52.819,0,0,0-1.041,14.5c.621,9.676,3.752,18.6,8.818,25.125a27.417,27.417,0,0,0,22.269,11.148,37.523,37.523,0,0,0,11.046-1.783,8.656,8.656,0,0,1,4.5-1.5,4.713,4.713,0,0,1,2.8.872A5.975,5.975,0,0,1,179.091,375c5.2,4.76,9.558,11.1,14.607,18.451,6.3,9.166,13.44,19.553,24.243,29.784a162.482,162.482,0,0,0,20.813,18.221,34.5,34.5,0,0,0,5.409,3.969c5.424,3.515,11.571,7.5,8.46,13.125a5.476,5.476,0,0,1-5.307,3.468c-8.862,0-24.359-14.757-32.808-23.554-5.65-5.883-11.559-12.64-16.636-19.025a122.094,122.094,0,0,1-10.321-14.591,96.981,96.981,0,0,1-21.2,5.612,143.649,143.649,0,0,1-21.861,1.525c-12.2,0-24.521-1.168-36.438-2.3l-.164-.016c-1.486-.141-3.022-.286-4.523-.426-26.854-1.4-49.1-7.774-66.11-18.957a81.58,81.58,0,0,1-20.322-18.84A80.119,80.119,0,0,1,4.644,347.781a95.511,95.511,0,0,1-4.3-21.994,121.212,121.212,0,0,1,.574-23.9,155.893,155.893,0,0,1,5.264-25.251A195.99,195.99,0,0,1,15.958,250.6,254.284,254.284,0,0,1,48.3,198.444a314.6,314.6,0,0,1,48.205-48.51,334.745,334.745,0,0,1,73.4-40.626,3.228,3.228,0,0,0,1.933-3.715,2.606,2.606,0,0,0-2.429-2.3,2.946,2.946,0,0,0-1.1.229,358.858,358.858,0,0,0-49.771,24.643l-.024-5.689c-.022-9.022.1-19.4,1.791-28.31.681-4.961,1.994-12.01,4.386-17.419.709-3.981,4.049-10.107,9.164-16.806a138.767,138.767,0,0,1,22.878-23.134A168.866,168.866,0,0,1,239.911.764,85.518,85.518,0,0,1,251.513,0a106.322,106.322,0,0,1,22.738,2.54,108.94,108.94,0,0,1,22.3,7.447A85.867,85.867,0,0,1,315.889,22.08a59.068,59.068,0,0,1,13.852,16.479,401.97,401.97,0,0,1,41.434-7.53A346.052,346.052,0,0,1,414.554,28.2c28,0,53.9,3.784,76.956,11.248a185.792,185.792,0,0,1,35.458,15.618,168.983,168.983,0,0,1,16.412,10.762,165.146,165.146,0,0,1,15.32,12.9,95.809,95.809,0,0,1,13.727,18.88,80.3,80.3,0,0,1,7.621,19.534,84.623,84.623,0,0,1-.195,39.466A122.679,122.679,0,0,1,565.9,190.667,169.7,169.7,0,0,1,543.278,220.7c-4.182,4.466-8.629,8.768-13.218,12.786a175.451,175.451,0,0,1-13.775,10.91,146.855,146.855,0,0,1-13.8,8.744,107.268,107.268,0,0,1-13.281,6.288c1.031,5.012,1.271,16.714.627,30.539a472.234,472.234,0,0,1-5.6,52.878,370.447,370.447,0,0,1-14.326,59.429c-7.1,20.889-15.7,37.775-25.565,50.19a105.071,105.071,0,0,1-17.3,18.1,118.31,118.31,0,0,1-21.384,14.079,115.616,115.616,0,0,1-23.864,9.13A99.212,99.212,0,0,1,357.049,497.025ZM169.529,285.682l-.571.333a4.882,4.882,0,0,1-1.41.552c.673.287,1.343.6,1.993.925-.013-.479-.018-.863-.018-1.209l.006-.6Zm17.3,54.861c-.563,0-2.091-1.145-3.271-2.451l-.186-.211.038.058c.475.731.66,1.238.536,1.466a.3.3,0,0,1-.286.136,4.941,4.941,0,0,1-2.995-2.352l-.031-.076a8.3,8.3,0,0,1-1.279-1.349c-.072-.091-.121-.154-.157-.193l-.031-.03a37.012,37.012,0,0,0-14.083-8.745c-.7-.133-1.4-.237-2.072-.308a62.917,62.917,0,0,0-8.59-1.3,1.586,1.586,0,0,1-.981-.638c-1.816-.061-2.883-.431-2.926-1.014-.037-.505.748-1.082,1.716-1.26l.033-.005-.36-.031c-1.846-.18-3.258-.673-3.286-1.147-.017-.29.467-.55,1.4-.753l.36-.072c-.038-.058-.072-.118-.12-.207-.832-.091-1.293-.447-1.264-.975a1.38,1.38,0,0,1,1.332-1.173,1.114,1.114,0,0,1,.437.089.985.985,0,0,1,.039-.882c.161-.218.477-.319.993-.319.184,0,.375.013.555.025l.046,0c.158.011.306.022.427.022a.488.488,0,0,0,.292-.056,1.587,1.587,0,0,1,.731-.528,2.842,2.842,0,0,0,.532-.446c.059-.066.059-.066.207-.071l.069,0a3.337,3.337,0,0,1,2.419-.86,12.285,12.285,0,0,1,3.254.605l.305.088a10.162,10.162,0,0,0,2.438.517h.075a32.17,32.17,0,0,1,13.846,5.558,37.451,37.451,0,0,1,5.755,3.952l.017,0a.031.031,0,0,1-.014.008l.139.094a32.02,32.02,0,0,1,4.092,4.028c1.774,2.03,2.7,3.477,2.545,3.97-.042.131-.16.2-.35.2a3.42,3.42,0,0,1-1.248-.392c-.327-.424-.686-.868-1.131-1.4a.907.907,0,0,1-.166.182l.279.414c.983,1.478,1.413,2.355,1.278,2.606a.148.148,0,0,1-.143.073c-.82,0-4.549-3.57-5.321-4.8a.83.83,0,0,1-.142.088l-.029.016L184,332.471c.2.25.36.448.5.624l.308.3c2.606,2.562,3.857,4.992,3.605,5.606a.24.24,0,0,1-.243.155c-.632,0-2.127-1.4-4-3.741a2.229,2.229,0,0,1,.428,1l.336.428c1.076,1.387,2.312,3.138,2.088,3.6A.2.2,0,0,1,186.825,340.543Z" transform="translate(-62 17.999)"></path></g></g><g transform="translate(159 186)"><g><path d="M158.63 0.473197L157.193 0.179116C155.503 -0.15929 153.804 -0.0161244 152.311 0.591153C150.847 1.18684 149.572 2.2242 148.68 3.72083C147.495 5.71373 147.337 7.38618 147.887 9.59525C148.311 11.3022 149.242 12.5864 150.46 13.5139C151.744 14.4911 153.37 15.0612 155.06 15.2595C162.854 16.175 170.529 17.8896 177.992 20.3235C181.488 21.4643 184.788 23.0096 188.058 24.6132L190.877 26.002C193.477 27.2735 196.163 28.499 199.557 29.3885C199.824 29.4584 200.087 29.5243 200.349 29.5865C201.29 29.2909 201.449 28.9329 201.649 28.6733L201.73 28.5721C201.972 28.2679 202.271 27.8025 201.988 25.6306C194.583 10.2711 174.267 3.74181 158.63 0.473197ZM56.5878 4.83023L58.4652 4.50163C64.273 3.49719 71.4943 2.53203 75.6028 7.20123C77.7818 9.67723 78.5318 14.2792 75.6028 16.6492C71.7671 19.7539 67.6298 19.6513 63.2182 19.5419C61.7043 19.5044 60.1582 19.466 58.5808 19.5562C53.4928 19.8482 48.6028 20.6902 43.7018 22.0912C32.9498 25.1642 24.1888 30.7742 15.0058 36.9342C13.8008 37.7422 12.5708 36.2012 13.1458 35.0742C18.4468 24.6912 28.7198 16.1622 39.0098 10.9632C44.5018 8.18823 50.5118 5.88623 56.5878 4.83023ZM196.563 63.3616C196.822 63.4576 197.083 63.1656 197.007 62.9176C193.833 52.5916 181.876 48.2446 171.841 49.1056C165.631 49.6386 159.923 51.9096 155.215 56.0556C150.725 60.0106 147.228 67.4946 151.292 72.9666C155.471 78.5926 164.049 76.7736 164.538 69.3796C164.854 64.5846 173.105 61.6256 177.285 60.8876C183.776 59.7426 190.491 61.1106 196.563 63.3616ZM77.2793 76.0241C74.2413 77.7981 70.9943 76.9381 68.4063 74.8791C64.9283 72.1131 63.2743 67.6701 59.4543 65.1561C56.2223 63.0281 51.8903 62.9161 48.1743 63.5311C39.4363 64.9771 32.5683 70.6161 24.5873 73.9101C23.4683 74.3721 22.8133 72.9371 23.1893 72.0921C28.0233 61.2281 38.1163 51.5381 50.1223 49.5971C62.6773 47.5671 76.2603 55.8361 80.6433 67.7551C81.7493 70.7621 79.9123 74.4861 77.2793 76.0241ZM216.052 122.946C213.952 114.957 208.262 107.46 204.094 100.435C201.732 96.4536 199.369 92.4716 197.007 88.4906C194.97 85.0576 193.414 81.3136 189.725 79.4706C187.572 78.3956 185.091 79.7096 184.999 82.1826C184.941 83.7376 185.268 85.2916 185.824 86.8276C184.986 90.0746 184.761 93.5916 184.108 96.8296C182.998 102.333 181.683 108.056 181.552 113.691C181.302 124.456 185.702 138.238 197.553 140.884C208.91 143.42 219.156 134.754 216.052 122.946ZM135.748 119.039C143.872 107.66 132.366 96.9569 124.814 92.3669C122.836 90.9469 124.406 86.2431 128.634 86.9701C167.031 93.5671 147.136 159.708 98.1119 123.413C92.2754 118.704 99.3434 108.334 105.634 112.366C105.953 112.611 106.288 112.869 106.636 113.139C113.704 118.603 126.636 128.601 135.748 119.039ZM32.3439 92.3756C34.2569 91.3636 36.0459 92.6736 36.2939 94.6416C36.5753 96.8695 36.0347 99.1543 35.4909 101.453C35.0703 103.231 34.6477 105.017 34.6019 106.792C34.547 108.908 34.6306 111.023 34.7142 113.137C34.8026 115.372 34.8909 117.606 34.8159 119.841C34.5609 127.44 32.2909 135.069 27.9009 141.327C22.6609 148.796 8.83991 156.953 2.24391 146.141C-2.49909 138.367 1.22891 127.029 4.68091 119.528C7.38792 113.648 11.3249 108.211 15.7349 103.489C15.9286 103.281 16.1363 103.057 16.3568 102.818C19.4778 99.444 25.1518 93.3096 29.5809 93.9746C29.7629 94.0016 29.8449 94.2206 29.8099 94.3786C29.7779 94.5176 29.7249 94.6406 29.6819 94.7726C30.3679 93.7956 31.2309 92.9636 32.3439 92.3756ZM206.394 132.195C202.8 134.866 197.426 133.817 194.333 130.986C187.025 124.298 187.944 112.816 189.241 103.975C189.57 101.729 190.279 98.6866 190.753 95.5246C191.54 96.6946 192.299 97.8286 192.941 98.9106C196.486 104.884 200.055 110.839 203.679 116.765C203.903 117.132 204.154 117.529 204.42 117.95C207.053 122.123 211.169 128.647 206.394 132.195ZM16.3959 142.73C21.7579 139.587 24.9209 132.88 26.4229 127.112C27.6355 122.454 27.4572 117.746 27.2781 113.018C27.2098 111.214 27.1414 109.408 27.1499 107.6C27.1649 104.255 27.2259 99.8406 28.7329 96.4586C27.8919 97.4616 26.7489 98.2636 25.7809 99.2446C23.7219 101.331 21.6759 103.425 19.8299 105.706C16.4649 109.863 13.6869 114.508 11.4839 119.376C8.85691 125.178 4.53091 135.125 7.61591 141.576C9.26991 145.033 13.5259 144.413 16.3959 142.73ZM165.695 143.827C155.693 143.238 141.659 143.359 130.103 143.459C127.354 143.483 124.745 143.506 122.365 143.517C109.945 143.566 97.5145 143.566 85.0845 143.707C79.1745 143.776 73.2545 143.927 67.3345 144.047C67.0063 144.053 66.6739 144.057 66.339 144.061C62.2967 144.105 57.8968 144.154 56.2345 148.577C55.087 151.652 55.8041 155.724 56.3962 159.087C56.48 159.563 56.5613 160.024 56.6345 160.467C57.4045 165.147 58.7945 169.657 60.6945 174.007C64.2145 182.077 69.6145 189.327 76.7445 194.557C93.1545 206.607 117.455 205.387 135.855 198.937C155.685 191.987 173.645 174.047 171.275 151.557C171.025 149.137 169.265 144.037 165.695 143.827ZM122.815 164.044C108.135 164.714 83.2745 163.571 80.3345 162.407C77.3945 161.242 74.6615 154.534 75.7145 151.276C77.2345 151.316 78.7345 151.347 80.1645 151.316C89.6645 151.106 151.165 150.667 156.735 150.066C157.685 149.967 158.791 152.319 158.791 154.923C158.791 157.526 132.825 163.594 122.815 164.044Z" transform="translate(46.00008 52.00027)" fill-rule="evenodd" stroke="none"></path></g></g><g transform="translate(123 338)"><g><path d="M302.883 83.4527C303.036 83.7837 303.163 84.1477 303.254 84.5507C314.029 134.978 316.76 193.085 294.606 240.715C230.608 298.341 92.0503 276.209 36.5633 213.492C-6.02371 185.505 -1.73271 121.227 2.67129 75.3917C5.26029 52.4177 4.91229 27.2277 15.3663 6.25674C14.5553 1.07074 22.0143 -2.79426 24.4043 2.61074C35.7143 28.1507 47.4443 54.4707 65.5853 76.0097C82.5873 99.6767 134.37 131.387 144.554 85.8787C157.467 57.3877 206.941 52.2147 234.314 56.7307C251.322 61.0884 256.229 71.7796 260.604 81.3112C265.338 91.6252 269.449 100.582 287.593 98.6867C288.007 98.8067 288.438 98.8507 288.854 98.8187C290.96 95.9897 292.362 91.9387 293.916 88.6647C293.777 87.9337 293.557 87.1867 293.491 86.4497C295.505 83.4837 298.764 81.8957 302.883 83.4527ZM227.846 126.239C229.605 128.053 231.318 129.817 232.994 131.311C240.134 136.101 245.424 126.911 245.114 120.661C244.634 111.361 236.694 93.5407 225.914 89.1137C203.848 84.2127 165.114 92.5337 174.484 122.871C176.774 128.331 183.434 135.441 190.154 133.261C195.214 131.621 196.554 123.261 199.863 119.532C210.834 108.709 219.828 117.977 227.846 126.239Z" transform="translate(-4.999991 -27.00004)" fill-rule="evenodd" stroke="none"></path></g></g><g transform="translate(47 241)"></g></g></g></svg>