<?xml version="1.0" standalone="no"?>
<svg viewBox="-1000 -300 2600 2600" style="width: 487.5px; height: 487.5px; justify-content: center; align-self: center; transform: scale(-1, 1);" xmlns="http://www.w3.org/2000/svg" width="609" height="609"><g transform="rotate(0 375.91302490234375 951.2973232269287)"><g id="pose_sitting_mid-2" data-name="pose/sitting/mid-2" transform="translate(-169 464)"><path id="_Skin" data-name="âœ‹ Skin" d="M352.548,1482.6h-.334c-13.261,0-26.027-.331-37.943-.982a424.434,424.434,0,0,1-45.788-4.739c-16.654-2.768-30.154-6.531-40.125-11.184a52.36,52.36,0,0,1-13.718-8.849,24.468,24.468,0,0,1-7.237-11.469,58.275,58.275,0,0,1-7.5-29.908,46.732,46.732,0,0,1,2.809-15.269,34.454,34.454,0,0,1,8.158-12.75,110.683,110.683,0,0,1,3.234-47.726A116.42,116.42,0,0,1,223.329,1317a109.6,109.6,0,0,1,13.941-20.249l.05.075c8.845-13.268,14.567-22.936,18.552-31.346,4.487-9.47,6.957-17.754,7.772-26.069.823-8.394-.016-17.015-2.64-27.132-2.405-9.274-6.317-19.925-12.684-34.536-4.678-.179-9.595-.352-13.933-.5-18.508-.651-37.645-1.325-56.424-2.916-10.116-.857-19.282-1.9-28.021-3.195-9.823-1.453-18.847-3.178-27.586-5.272l1.53-9.159c-1.455-.386-9.214-2.426-10.91-2.866.045.342.126.925.23,1.663l.008.057,0,.015c.423,3.018,1.13,8.069,1.108,9.3a7.23,7.23,0,0,1-4.712,2.34,2.613,2.613,0,0,1-2.677-2.422c-15.17-64.947-29.651-130.262-43.655-193.427-9.766-44.051-19.864-89.6-30.138-134.765-1.669-7.076-3.407-14.262-5.247-21.87-6.644-27.476-14.175-58.619-19.685-90.1C1.876,688.429-.75,657.652.183,630.538c.267-7.758.836-15.327,1.693-22.494A216.522,216.522,0,0,1,5.549,586.4a177.665,177.665,0,0,1,5.9-20.57,150.689,150.689,0,0,1,8.386-19.278,134.613,134.613,0,0,1,11.119-17.765,129.208,129.208,0,0,1,14.1-16.033,135.013,135.013,0,0,1,17.334-14.08A153.344,153.344,0,0,1,83.212,486.77L80.55,475.392c-7.12,0-9.981-7.77-13.245-18.749-6.557-17.7-4.969-36.768,4.721-56.663a132.506,132.506,0,0,1,15.986-24.748A189.693,189.693,0,0,1,107.5,354.555c36.016-36.116,69.257-76.2,101.4-114.971l.382-.461c22.643-27.575,44.968-54.524,69.113-81.051,28.28-31.07,54.4-56.37,79.864-77.344a474.953,474.953,0,0,1,44-32.373c7.667-4.951,15.414-9.577,23.024-13.752,7.887-4.326,15.863-8.3,23.709-11.8,8.11-3.623,16.317-6.855,24.4-9.607a257.709,257.709,0,0,1,25.084-7.166,238.359,238.359,0,0,1,25.775-4.48,227.507,227.507,0,0,1,62.425,1.307l-.539,6.6c5.731.722,11.636,1.644,17.346,2.535l.016,0c13.271,2.072,26.99,4.215,40.485,4.215a103.422,103.422,0,0,0,18.7-1.586,240.723,240.723,0,0,1,41.04-3.5A253.533,253.533,0,0,1,811.131,35.175,240.747,240.747,0,0,1,858.01,64.126,221.665,221.665,0,0,1,896.7,103.37l1.957-13.007c.184-1.227.621-2.362,2.561-2.362l.158,0c2.419,0,3.712,1.976,4.658,3.91a157.906,157.906,0,0,1,30.448,16.173,184.8,184.8,0,0,1,26.372,21.884A237.539,237.539,0,0,1,985.6,156.372a320.5,320.5,0,0,1,19.566,29.743c10.772,18.432,21.04,39.611,31.392,64.746,9.045,21.961,17.026,44.212,24.068,63.844l.056.157c1.624,4.526,3.157,8.8,4.7,13.057a72.889,72.889,0,0,1,2.711,14.137,10.993,10.993,0,0,1-.346,4.452l-5.333,3.183c25.154,33.522,47.052,72.612,66.947,119.5,18.008,42.445,32.266,86.258,44.99,127.281a111.224,111.224,0,0,1,4.9,15.617,48.7,48.7,0,0,1,1.295,13.493,30.683,30.683,0,0,1-3.026,11.83,36.508,36.508,0,0,1-8.057,10.628,415.71,415.71,0,0,1,65.936,48.59c20.574,18.792,37.14,38.557,49.237,58.746a183.282,183.282,0,0,1,15.536,32.611,151.763,151.763,0,0,1,7.976,34.466,142.5,142.5,0,0,1-.712,36.093,151.321,151.321,0,0,1-3.966,18.585,166.484,166.484,0,0,1-6.561,18.906,224.287,224.287,0,0,1-20.98,30.988,297.163,297.163,0,0,1-26.424,28.661c-9.25,8.85-19.643,17.789-30.892,26.566-10.454,8.158-22.022,16.47-34.383,24.7-21.355,14.225-46,28.863-75.334,44.75-25.922,14.037-52.185,27.28-77.584,40.087l-.014.007c-15.555,7.844-30.247,15.252-44.581,22.691-15.122,8.207-32.418,14.994-50.73,22.178l-.01,0c-16.92,6.639-34.417,13.5-50.9,21.841a223.787,223.787,0,0,0-23.806,13.781,151.839,151.839,0,0,0-21.221,16.972,30.252,30.252,0,0,1-4.361,5.181c-1.656,1.524-3.106,2.329-4.191,2.33a2.082,2.082,0,0,1-.276-.018,4.484,4.484,0,0,1-.655.048h0c-2.873,0-6.1-2.746-9.6-8.162-3.956-6.123-8.19-15.5-12.586-27.873-3.789-10.665-7.567-23.236-10.927-36.356-6.385-24.935-9.917-46.58-8.216-50.349a112.49,112.49,0,0,1-19.569,4.874c-6.665,1.109-13.551,1.844-20.211,2.554l-.029,0c-7.293.778-14.831,1.582-22.077,2.876a26.128,26.128,0,0,0,1.9,3.222c2.265,3.471,4.832,7.4,1.445,10.788.27,12.078-1.34,26.306-4.785,42.288a55.659,55.659,0,0,1,8.727-.767c5.7,0,8.85,1.24,9.449,2.469a.927.927,0,0,1-.047.949c-.6.952-2.71,1.52-5.657,1.52a45.529,45.529,0,0,1-12.1-2.036l-.249,2.336c-.735,6.872-2.1,19.663-2.664,24.868a43.972,43.972,0,0,1,16.123-3.282c4.6,0,8.032.987,9.921,2.853-.65,2.1-2.94,3.071-7.207,3.071a75.394,75.394,0,0,1-7.759-.581h-.007l-.119-.013a73,73,0,0,0-7.456-.568,13.283,13.283,0,0,0-3.592.393c-2.527,18.776-3.984,37.675-5.392,55.953-.78,10.126-1.587,20.6-2.568,30.951a86.345,86.345,0,0,0,16.36,11.966c5.879,3.425,12.167,6.47,18.248,9.415,6.849,3.317,13.931,6.747,20.38,10.7a87.262,87.262,0,0,1,9.233,6.45,62.137,62.137,0,0,1,8.115,7.782,38.217,38.217,0,0,1,10.366,30.119,39.136,39.136,0,0,1-1.523,7.758,38.018,38.018,0,0,1-3.087,7.308,36.288,36.288,0,0,1-10.782,12.1,20.929,20.929,0,0,1,4.825,10.724,24.986,24.986,0,0,1-1.134,11.5,27.211,27.211,0,0,1-6.79,10.807,23.385,23.385,0,0,1-11.24,6.144,71.937,71.937,0,0,1-16.561,1.822c-16.033,0-32.262-4.506-47.956-8.865l-.381-.106c-1.216-.338-2.474-.687-3.7-1.025-37.094-12.237-75.938-31.311-118.751-58.313a83.819,83.819,0,0,1-35.545-46.771c-43.422-134.06-55.043-225.225-34.54-270.963,6.789-5.137,14.025-5.453,21.022-5.759,5.138-.225,9.988-.436,14.52-2.466a21.207,21.207,0,0,0,7.293-4.939c2.479-2.658,4.519-6.405,6.239-11.455-16.877-1.66-35.824-1.9-55.884-2.146-23.211-.289-47.211-.588-69.409-3.184a208.168,208.168,0,0,1-31.578-5.9,127.9,127.9,0,0,1-14.123-4.778,93.938,93.938,0,0,1-12.675-6.282l1.589-3.387c-2.958-1.892-8.531-8.17-12.6-12.754-1.724-1.942-3.209-3.616-4.224-4.659,3.3,39.775,6.106,78.314,8.338,114.546,2.456,39.859,4.306,78.331,5.5,114.347,8.207,13.83,15.293,28.351,23.045,44.534l.258.253c5.4,5.305,14.427,14.184,9,20.084l.011.025c1.9,4.461,46.65,109.862,60.543,163.766a12.657,12.657,0,0,1,8.649,4.146,28.691,28.691,0,0,1,5.831,9.7,59.744,59.744,0,0,1,3.2,12.449,68.6,68.6,0,0,1,.769,12.38c-2.041,27.525-37.123,30.584-68.075,33.283l-.525.046a620.8,620.8,0,0,1-64.687,3.393h-.329Zm552.777-472.273a6.22,6.22,0,0,0-4.434,1.835,6.367,6.367,0,0,0-1.849,4.553l6.283-.02ZM351.093,607.643l-6.855,9.589c16.771,17.6,32.35,35.475,46.305,53.141l10.6-4.875c-5.121-26.09-21.024-44.474-50.046-57.854ZM894.619,394.72l-5.877,10.615c-11.068,20-24.422,39.67-37.336,58.7-28.509,42-57.987,85.43-67.065,137.368-1.047,6.384-1.509,28.967-1.514,29.194l8.45-3.445c28.22-11.507,58.156-20.064,87.106-28.34l.072-.021c11.156-3.189,22.693-6.486,34.033-9.926,4.615-1.236,9.206-2.682,13.647-4.08l.008,0,.008,0c10.781-3.393,20.961-6.6,31.666-7.141l3.26-.167,1.632-2.828c6.7-11.614,8.593-23.855,5.793-37.422-2.525-12.237-8.593-24.211-14.773-35.326-7.608-16.6-17.392-32.2-26.854-47.289l-.012-.019c-9.812-15.641-19.958-31.814-27.374-48.748ZM329.652,366.978h0l-8.806,4.942c-11.82,6.634-21.632,11.166-30.879,14.263l-13.6,4.552,12.787,6.488a125.356,125.356,0,0,1,25.248,17.184l6.409,5.525,3.093-7.876c4.062-10.348,6.039-22.117,5.875-34.98l-.131-10.1Z" transform="translate(-111 -56)" fill="#d08b5b"></path><path id="_Shoes" data-name="ðŸ‘Ÿ Shoes" d="M138.737,492.283c-22.786,0-43.393-1.278-59.593-3.7-15.264-2.278-28.809-6.268-40.26-11.858a85.248,85.248,0,0,1-23.332-16.357C4.73,449.445,2.145,439.662,2.144,439.588c-.173-.852-.338-1.648-.5-2.417l-.02-.1c-2.894-13.987-2.894-13.987,8.2-40.717l.319-.768c1.809-4.359,2.111-9.387,2.493-15.753a133.333,133.333,0,0,1,2.272-19.67,109.721,109.721,0,0,1,9.236-26.577c9.139-18.694,39.867-71.51,40.176-72.041A81.138,81.138,0,0,0,68.7,248.933a32.837,32.837,0,0,0,.6-13.3,71.472,71.472,0,0,1,14.812-8.711,124.323,124.323,0,0,1,18.667-6.562,162.834,162.834,0,0,1,20.776-4.138,160.542,160.542,0,0,1,21.14-1.44,115,115,0,0,1,22.859,2.107,57.434,57.434,0,0,1,18.175,6.614,10.74,10.74,0,0,0,3.163,5.1,8.35,8.35,0,0,0,4.727,2.1,27.476,27.476,0,0,1,3.237,4.747c1.513,2.588,3.078,5.264,5.774,6.773,6.936,22.957,18,49.7,29.72,78.006,16.312,39.412,33.179,80.165,39.787,113.364-.152.049-.235.119-.254.215-.065.337.689.969,1.831,1.925,2.64,2.212,7.553,6.329,9.423,12.859a25.088,25.088,0,0,1,.772,7.642,46.438,46.438,0,0,1-1.006,7.979c-1.03,4.846-2.684,8.966-3.766,9.38a200.736,200.736,0,0,1-28.606,8.168c-10.485,2.275-22.25,4.241-34.967,5.844-12.173,1.534-25.053,2.715-38.282,3.512C164.368,491.889,151.4,492.283,138.737,492.283Zm412.8-81.732c-7.857,0-17.472-1.238-28.578-3.681-9.4-2.068-18.068-4.579-24.395-6.413l-.047-.014-.584-.168-1.149-.326a594.655,594.655,0,0,1-59.347-24.673,635.708,635.708,0,0,1-56.554-30.448,45.632,45.632,0,0,1-11.065-9.28,79.78,79.78,0,0,1-9.112-12.732,131.337,131.337,0,0,1-12.072-28.279c-2.618-9.329-5.377-18.907-8.044-28.17l-.006-.02c-10.787-37.455-21.941-76.184-28.79-115.02a427.71,427.71,0,0,1-6.528-58.417c-.378-9.965-.318-19.807.178-29.252a283.609,283.609,0,0,1,3.035-29.21c1.046-1.49,7.814-5.026,17.244-9.01A279.06,279.06,0,0,1,358.89,13.846c2.431-.666,4.86-3.261,7.208-5.77,2.451-2.619,4.766-5.092,7.045-5.489C383.007.871,395.142,0,409.211,0c12.666,0,24.478.681,33.1,1.178h.014c4.75.274,8.5.49,10.808.5l-.959,1.63c-1.464,2.516-5.446,12.675-8.451,25.828a148.16,148.16,0,0,0-3.36,21.622,95.225,95.225,0,0,0,.779,22.83A46.862,46.862,0,0,0,447.3,90.46,44.173,44.173,0,0,0,457.761,102.1c6.733,5.281,15.347,9.167,25.6,11.55a41.406,41.406,0,0,0,8.7,1.044,23.607,23.607,0,0,0,9.59-1.929,58.484,58.484,0,0,0,8.425-4.8,99.981,99.981,0,0,1,13.061-7.374c-.007.181.666.4,1.685.726a23.238,23.238,0,0,1,7.322,3.478,8.052,8.052,0,0,1,2.992,8.8c-2.315,9.554-5.487,29.066-8.845,49.724-2.394,14.726-4.869,29.952-7.154,42.276-.972,5.244-1.932,9.9-2.778,14.017-1.77,8.6-3.168,15.388-3.571,21.978a62.507,62.507,0,0,0,2.349,21.005c3.288,12.112,28.507,27.09,48.772,39.125,10.782,6.4,20.093,11.933,24.228,15.875,4.635,4.419,6.986,11.437,6.988,20.859,0,7.664-1.538,16.893-4.577,27.431a211.252,211.252,0,0,1-8.947,24.668,111.448,111.448,0,0,1-6.121,12.572,22.146,22.146,0,0,1-10.168,5.769A50.5,50.5,0,0,1,551.54,410.552Z" transform="translate(89.856 930.412)" fill="#fff"></path><path id="_Top" data-name="ðŸ‘• Top" d="M320.727,0c1.449.139,2.782.294,4.117.461l1.423.178-.631,1.288c-16.943,73.553-13.656,124.4,6.836,172.315C356,229.267,395.265,265.908,442.18,278.766c45.361,12.432,95.049-5.391,136.281-42.277C613.767,204.905,643.7,88.356,643.7,88.356c6.21,2.735,28.189,12.878,33.936,16.357,58.632,50.434,102.841,151.278,124,219.962.127.411.253.823.368,1.229l-1.267.093c-9.8.761-50.768,5.034-95.733,32-21.018,12.606-61,56-61,56l-7-11s30.107-55.7,21-50c-15.962,9.991-121.012,180.906-137,254-1.38,6.307.142,36.45.142,36.45.093.458-1.565,28.739-9.142,45.55-19.566,43.41-63.4,106.423-105.552,130.17-43.478,20.057-90.674-2.134-128.567-24.844l-2.308-1.391c-.147-.089-.294-.178-.436-.27,0,0-7.3-34.458-8.137-48.666-.76-12.84.3-25.2,0-35-.7-22.711-2.5-36.282-6.808-43.234C258.237,655.741,253.547,628.852,224,597c-14.023-15.117-48.685-30.309-63.374-47.285-46.754-54.037-88.166-112.224-94.579-119l-1.68-1.761.156-.559c4.493-16.272,5.4-40.561.425-57.309l4.375-2.835c21.459-13.957,67.8-46.1,103.142-81.841,10.979-11.1,11.472-31.7,4.47-24.94-.231.223-.464.443-.706.651l-.692-.63C127.055,217.48,60,193,2.351,190.168c-.787-.039-1.575.05-2.351.079l1.551-1.777c21.3-24.365,43.307-53.146,66.507-75.549C134.21,48.322,226.077,1.654,320.727,0Z" transform="translate(149 -59)" fill="#8fa7df"></path><path id="_Ink" data-name="ðŸ– Ink" d="M359.221,1494.6a629.123,629.123,0,0,1-81.626-5.358,174.9,174.9,0,0,1-20.142-2.832,102.793,102.793,0,0,1-19.417-5.89,65.122,65.122,0,0,1-16.919-10.276,52.408,52.408,0,0,1-12.645-15.99A61.671,61.671,0,0,1,202.28,1439a64.417,64.417,0,0,1-2.124-16.816,53.048,53.048,0,0,1,2.64-16.46,40.6,40.6,0,0,1,8.1-14.195,110.844,110.844,0,0,1-.585-24.141,119.69,119.69,0,0,1,4.469-23.747,124.8,124.8,0,0,1,22.256-42.68.654.654,0,0,0,.2.03,1.152,1.152,0,0,0,.971-.831c-.024.023-.038.032-.046.032a.006.006,0,0,1-.005,0c0-.007,0-.026.009-.061a8.171,8.171,0,0,0-1.129.831.374.374,0,0,1-.289-.376c.024-.331.53-.769,1.879-1a4,4,0,0,1-.285.406c-.043.055-.082.1-.124.164a3.685,3.685,0,0,1,2.07-.73,11.807,11.807,0,0,0-1.661.159c7.473-11.552,13.312-20.962,17.513-29.345a93.623,93.623,0,0,0,5.12-12.048,59.7,59.7,0,0,0,2.7-11.45c.983-7.544.4-15.351-1.849-24.569-2.075-8.519-5.619-18.561-11.493-32.558q-4.981-.184-10.192-.365c-19.392-.683-39.444-1.39-59.1-3.139-10.589-.942-20.185-2.1-29.335-3.542-10.28-1.619-19.727-3.55-28.881-5.9a11.17,11.17,0,0,1-7.034,2.557,8.784,8.784,0,0,1-5.3-1.672,9.051,9.051,0,0,1-3.329-5.346c-15.05-64.408-29.6-130.044-43.675-193.519-9.793-44.173-19.92-89.85-30.133-134.744-2.258-10.051-4.7-20.385-7.293-31.327-6.548-27.671-13.969-59.034-19.167-90.081C1.231,687.019-.986,656.861.4,630.329c.395-7.572,1.1-14.967,2.084-21.98a207.223,207.223,0,0,1,4.087-21.178A174.019,174.019,0,0,1,12.9,566.982a152.013,152.013,0,0,1,8.828-19.015,138.451,138.451,0,0,1,26.12-33.756,148.947,148.947,0,0,1,17.783-14.369A171.563,171.563,0,0,1,86.893,487.4c-5.4,0-9.623-2.517-12.917-7.7-2.852-4.487-4.567-10.253-6.079-15.34-.409-1.375-.795-2.674-1.192-3.912a70.6,70.6,0,0,1-2.833-15.037,71.483,71.483,0,0,1,.406-14.654,88.751,88.751,0,0,1,8.745-27.78c7.68-15.531,20.039-31.28,36.731-46.809,16.1-16.162,33.053-34.533,51.83-56.163,16.743-19.287,33.356-39.326,49.422-58.7,14.186-17.111,28.856-34.8,43.566-51.923,16.5-19.2,31.29-35.609,45.229-50.181,16.728-17.486,32.61-32.759,48.553-46.691,8.638-7.548,17.4-14.779,26.043-21.492,9.064-7.04,18.315-13.757,27.5-19.964a332.058,332.058,0,0,1,36.075-20.864,310.8,310.8,0,0,1,38.737-16.116A276.52,276.52,0,0,1,517.2,3.681,240.209,240.209,0,0,1,558.529,0a212.647,212.647,0,0,1,36.259,3.071,197.5,197.5,0,0,1,35.6,9.657.736.736,0,0,1,.514.841.727.727,0,0,1-.717.621.916.916,0,0,1-.2-.023,212.943,212.943,0,0,0-36.78-4.66c6.15.752,12.347,1.731,18.339,2.677,12.548,1.981,25.52,4.029,38.405,4.029a103.757,103.757,0,0,0,18.045-1.492A260.949,260.949,0,0,1,763.3,16.67,255.326,255.326,0,0,1,813.812,32.72a242.908,242.908,0,0,1,45.956,26.372,231.088,231.088,0,0,1,39.295,36.387,8.708,8.708,0,0,1,3.058-5.671,8.6,8.6,0,0,1,5.438-1.8A10.348,10.348,0,0,1,916.474,93a128.945,128.945,0,0,1,26.611,13.123,164.036,164.036,0,0,1,23.781,18.742,223.881,223.881,0,0,1,21.165,23.152,311.727,311.727,0,0,1,18.764,26.353,504.151,504.151,0,0,1,31.187,57.468c9.176,19.507,17.285,39.006,24.165,55.753.774,2.856,2.572,7.688,4.849,13.806l0,.007c3.756,10.089,8.43,22.645,11.192,33.557a62.614,62.614,0,0,1,2.273,14.4,15.517,15.517,0,0,1-.694,5.065,5.52,5.52,0,0,1-2.295,3.056c6.437,8.829,12.746,18.165,18.751,27.746,5.755,9.183,11.413,18.882,16.817,28.828,10.115,18.615,19.523,38.318,28.762,60.236,8.008,19,15.8,39.461,23.806,62.561,6.332,18.257,12.716,37.856,20.7,63.549,2.986,8.063,6.109,17.546,6.637,26.744a38.812,38.812,0,0,1-1.334,13.221,32.7,32.7,0,0,1-6.671,12.245,434.252,434.252,0,0,1,38.338,26.266,331.336,331.336,0,0,1,34.821,30.81,257.628,257.628,0,0,1,29.274,35.757A221.587,221.587,0,0,1,1299.3,765.3a206.866,206.866,0,0,1,9.774,21.247,165.383,165.383,0,0,1,9.932,31.746,141.08,141.08,0,0,1,2.8,30.355,135.16,135.16,0,0,1-3.662,28.809,144.531,144.531,0,0,1-9.454,27.108c-7.826,16.912-19.133,33.229-33.606,48.5a263.709,263.709,0,0,1-48.739,39.838c-17.63,12.78-36.171,25.42-55.105,37.568-18.288,11.733-37.48,23.352-57.041,34.534-18.826,10.761-38.562,21.441-58.66,31.742-19.258,9.871-39.433,19.694-59.963,29.2-24.5,11.323-50.627,22.67-82.229,35.71-10.239,4.162-22.218,9.27-33.422,15.6-11.9,6.723-21.441,13.969-29.168,22.149a27.416,27.416,0,0,1-6.662,7.133,11.444,11.444,0,0,1-6.533,2.236c-6.009,0-12.209-5.559-18.432-16.524-5.177-9.123-10.279-21.775-15.164-37.6-3.863-12.516-7.531-26.972-10.33-40.7-2.35-11.532-3.856-21.428-3.929-25.827-9.763,2.939-20.316,4-30.521,5.02-5.242.526-10.663,1.069-15.869,1.861a10.809,10.809,0,0,1,1.478,5.522,10.4,10.4,0,0,1-1.749,5.688,172.461,172.461,0,0,1-3.359,33.8c.977-.087,1.936-.13,2.848-.13,4.224,0,7.819.923,10.4,2.67a8.014,8.014,0,0,1,3.806,5.875,6.567,6.567,0,0,1-1.811,5.005c-2.1,2.283-5.726,3.54-10.2,3.54a31.683,31.683,0,0,1-6.851-.82c-.22,2.049-.441,4.127-.655,6.137l-.013.125q-.275,2.593-.553,5.188a26.145,26.145,0,0,1,7.579-1.008,31.8,31.8,0,0,1,10.648,1.743c3.424,1.254,5.684,3.034,6.537,5.147a5.748,5.748,0,0,1-.051,4.264,14.908,14.908,0,0,1-3.781,5.246,17.362,17.362,0,0,1-7.956,1.682,57.222,57.222,0,0,1-6.613-.522l-.041,0a57.8,57.8,0,0,0-6.741-.527c-.441,0-.878.01-1.3.031-2.126,16.744-3.432,33.791-4.7,50.276v.005c-.712,9.289-1.448,18.894-2.324,28.37a91.826,91.826,0,0,0,15.14,10.456c5.38,3.05,11.108,5.821,16.648,8.5a229.641,229.641,0,0,1,20.874,10.995,88.134,88.134,0,0,1,9.539,6.748,64.85,64.85,0,0,1,8.449,8.241,46.217,46.217,0,0,1,9.413,15.554,45.524,45.524,0,0,1,2.187,8.609,44.315,44.315,0,0,1,.452,8.791,41.938,41.938,0,0,1-14,29.406,26.042,26.042,0,0,1,3.589,12.5,29.8,29.8,0,0,1-2.418,12.441,33.528,33.528,0,0,1-8.609,11.928,31.011,31.011,0,0,1-13.132,6.952,76.356,76.356,0,0,1-17.868,2c-17.073,0-34.154-4.759-50.673-9.362q-1.616-.451-3.22-.9c-10.284-3.388-20.84-7.347-31.375-11.768-9.965-4.182-20.227-8.908-30.5-14.048-18.721-9.367-37.8-20.216-58.334-33.165a87.652,87.652,0,0,1-23.573-21.588,91.4,91.4,0,0,1-14.511-28.5c-9.927-30.65-15.573-50.49-18.957-62.747-7.583-27.469-13.563-53.109-17.774-76.207-2.49-13.658-4.414-26.714-5.718-38.8a348.341,348.341,0,0,1-2.153-36.955,203.505,203.505,0,0,1,2.5-33.366,110.371,110.371,0,0,1,8.249-28.038,19.78,19.78,0,0,1,9.007-5.8,32.515,32.515,0,0,1,9.941-1.253c1.644,0,3.268.059,4.839.115h.005l.063,0c1.61.058,3.131.113,4.654.113,5.428,0,8.005-.847,9.644-1.585a13.913,13.913,0,0,0,7.026-7.492c-13.6-1.065-29.31-1.252-45.939-1.449h-.009c-12.1-.143-24.608-.291-37.126-.787-14.173-.561-26.278-1.5-37.007-2.871a200.68,200.68,0,0,1-34-7.007,119.664,119.664,0,0,1-14.965-5.7,85.909,85.909,0,0,1-13.128-7.5c1.014,14.587,2.164,29.408,3.276,43.741,1.777,22.91,3.615,46.6,4.946,69.912,1.493,26.15,2.177,49.053,2.091,70.017-.5,3.749.415,6.877,1.3,9.9,1.054,3.6,2.049,7,.877,11.358,7.627,13.047,14.254,26.632,21.511,41.761a44.288,44.288,0,0,1,7.524,9.128,28.791,28.791,0,0,1,2.674,5.554,16.491,16.491,0,0,1,.988,5.624,10.7,10.7,0,0,1-3.936,8.224c31.787,46.585,48.844,101.642,62.541,154.2,3.483.8,6.661,2.984,9.446,6.495a41.031,41.031,0,0,1,6.236,11.961,73.13,73.13,0,0,1,3.28,13.8,60.424,60.424,0,0,1,.577,12.014,38.469,38.469,0,0,1-2.79,10.742,32.221,32.221,0,0,1-5.243,8.368,36.134,36.134,0,0,1-7.242,6.324,49.931,49.931,0,0,1-8.788,4.609c-12.546,5.148-27.951,6.6-41.543,7.875-2.912.274-5.661.532-8.324.821-16,1.683-32.353,2.76-48.61,3.2C370.4,1494.528,364.773,1494.6,359.221,1494.6Zm-146.657-90.875h0a88.84,88.84,0,0,0,.594,14.268,65.063,65.063,0,0,0,2.718,12.193,52.66,52.66,0,0,0,4.648,10.271,48.933,48.933,0,0,0,6.384,8.5,55.314,55.314,0,0,0,13.528,10.409,80.514,80.514,0,0,0,16.745,6.813c11,3.182,24.025,4.96,39.824,5.433,20.25,1.927,40.772,2.9,60.995,2.9,8.233,0,16.566-.163,24.766-.483,2.056-.121,4.154-.242,6.183-.359l.528-.03c24.441-1.4,49.714-2.856,73.8-8.5,6.056-1.244,10.552-4.341,13-8.956a18.777,18.777,0,0,0,2.074-9.164,28.1,28.1,0,0,0-2.255-10.339,8.263,8.263,0,0,1-3.322.731,6.339,6.339,0,0,1-3.669-1.122,18.535,18.535,0,0,1-5.3-5.4,256.73,256.73,0,0,1-53.292,16.893,284.31,284.31,0,0,1-56.383,5.6,289.761,289.761,0,0,1-66.974-7.81,264.577,264.577,0,0,1-62.372-23.249c-3.574-.175-6.253-1.949-8.189-5.422-1.683-3.02-2.568-6.889-3.348-10.3C213.014,1405.592,212.8,1404.638,212.564,1403.729Zm22.49,8.768h0a9.832,9.832,0,0,1-2.79,7.05c9.417,3.056,18.9,5.762,28.2,8.041s18.642,4.194,27.832,5.7c9.169,1.5,18.447,2.648,27.578,3.4,9.1.746,18.328,1.125,27.434,1.125h.007c9.548,0,19.266-.416,28.884-1.238,9.552-.816,19.3-2.056,28.982-3.688,9.6-1.617,19.421-3.669,29.2-6.1,9.68-2.4,19.623-5.254,29.553-8.471-3.347-16.813-8-34.926-14.223-55.37-5.552-18.238-11.807-36.587-17.856-54.331l0-.007c-6.235-18.292-12.683-37.207-18.358-55.991-2.7-1.511-4.261-4.187-5.773-6.774a27.486,27.486,0,0,0-3.237-4.747,8.348,8.348,0,0,1-4.727-2.1,10.743,10.743,0,0,1-3.162-5.1c-7.556-4.57-17.3-8.439-28.182-11.188a140.209,140.209,0,0,0-33.81-4.283,99.066,99.066,0,0,0-25.03,2.961,55.441,55.441,0,0,0-20.409,9.638c1.752,10.115-2.232,19.468-6.084,28.513l-.2.479c3.382-.807,13.54-2.4,25.7-3.751a390.165,390.165,0,0,1,40.99-2.6,120.267,120.267,0,0,1,22.285,1.672c6.5,1.279,10.595,3.3,12.164,6.015,1.175,2.029.952,4.483-.662,7.292a14.948,14.948,0,0,1-5.281,2.753,20.342,20.342,0,0,1-5.777.755,61.578,61.578,0,0,1-10.627-1.282c-2.443-.438-4.75-.851-7.014-1.065-9.817-.816-19.937-1.23-30.079-1.23a408.644,408.644,0,0,0-45.9,2.659c-.914,2.564-1.606,5.3-2.275,7.943a61.06,61.06,0,0,1-3.506,10.948,268.805,268.805,0,0,1,39.793-9.694,357.672,357.672,0,0,1,40.758-4.285c1.584-.084,3.287-.21,4.79-.321h.007c3.1-.229,6.3-.465,9.433-.465a35.418,35.418,0,0,1,10.73,1.386,20.143,20.143,0,0,1,9.14,5.75,9.08,9.08,0,0,1,1.831,4.306,6.627,6.627,0,0,1-.714,3.79c-1.165,2.3-3.716,4.408-7.183,5.948a25.069,25.069,0,0,1-9.768,2.192,14.775,14.775,0,0,1-1.706-.094c-8.7-.261-17.932-.393-27.433-.393-27.593,0-55.173,1.088-81.058,2.2-5.777,9.5-11.751,19.58-16.3,28.909a107.619,107.619,0,0,0-8.87,24.373,94.032,94.032,0,0,0-1.856,25.78c.483,9.095,1.988,19.621,4.737,33.128l-.06-.049a.985.985,0,0,1-.108-.092Zm314.679-395.141c-3.192,1.707-7.107,2.564-10.893,3.392a55.3,55.3,0,0,0-9.237,2.583,15.982,15.982,0,0,0-7.263,5.516,283.7,283.7,0,0,0-3.035,29.21c-.5,9.444-.556,19.286-.178,29.251a427.741,427.741,0,0,0,6.527,58.416c6.849,38.835,18,77.564,28.789,115.017,2.669,9.268,5.429,18.849,8.051,28.2,5.468,18.437,16.92,33.456,32.249,42.291,18.926,11.559,36.117,21.191,52.554,29.448,9.247,4.645,18.434,8.935,27.3,12.751,9.445,4.063,18.88,7.737,28.043,10.922,2.293.641,5.008,1.459,7.882,2.326l.048.014c6.567,1.98,14.734,4.442,23.049,6.369,9.735,2.256,17.774,3.353,24.578,3.353a41.849,41.849,0,0,0,12.057-1.553,20.489,20.489,0,0,0,9.086-5.341,11.051,11.051,0,0,0,2.14-6.794,7.633,7.633,0,0,0-3.08-5.647c-.264-.1-.538-.2-.818-.311-3.829-1.445-9.069-3.423-9.622-8.278l.139-.05a7.116,7.116,0,0,1-.17-6.438,12.406,12.406,0,0,1,3.567-4.547,13.472,13.472,0,0,1,5.015-2.636,12.392,12.392,0,0,0,8.859-3.744c1.966-2.018,3.6-4.933,5.142-9.177a34.853,34.853,0,0,0,.153-8.187A31,31,0,0,0,789,1326.4a37.844,37.844,0,0,0-7.769-12.5c-6.793-7.547-16.47-13.829-25.828-19.9l0,0c-5.52-3.583-11.227-7.289-16.221-11.185a58.123,58.123,0,0,1-12.57-12.741,7.313,7.313,0,0,1-2.814,4.6,8.074,8.074,0,0,1-4.754,1.479,8.729,8.729,0,0,1-6.188-2.475,7.439,7.439,0,0,1-2.135-5.431c-.439-22.087,3.269-44.564,6.856-66.3l.007-.04c.977-5.922,1.987-12.045,2.889-18.027-.314-.013-.649-.021-.995-.021a52.911,52.911,0,0,0-7.229.68,52.931,52.931,0,0,1-7.229.681,18.685,18.685,0,0,1-4.129-.421c-.36-2.259,2.155-4.831,7.474-7.645a113.114,113.114,0,0,1,12.973-5.508l.017-.006c.667-.248,1.244-.461,1.708-.64,1.049-4.893,2.153-9.718,3.28-14.341-3.331.2-6.365.3-9.017.3a46.153,46.153,0,0,1-10.893-.966c-2.231-.585-3.408-1.42-3.5-2.48-.15-1.738,2.734-4.023,7.913-6.268a89.961,89.961,0,0,1,19.367-5.5c.807-2.746,1.579-5.791,2.43-9.581a106.472,106.472,0,0,0,2.741-20.07c-15.147,6.942-29.514,10.461-42.7,10.462a68.8,68.8,0,0,1-14.452-1.5,51.516,51.516,0,0,1-11.766-4.3,53.625,53.625,0,0,1-10.168-6.779,58.094,58.094,0,0,1-8.412-8.8,62.733,62.733,0,0,1-6.5-10.355,65.264,65.264,0,0,1-6.784-25.762,60.393,60.393,0,0,1,.805-13.35,55.666,55.666,0,0,1,3.875-12.868,24.243,24.243,0,0,1-.777-8.536,35.985,35.985,0,0,1,1.822-8.505,83.675,83.675,0,0,1,7.675-15.719c-22.953-.08-45.678-.7-68.878-1.389a64.776,64.776,0,0,0-9.37,7.959,44.63,44.63,0,0,0-6.316,8.265,37.961,37.961,0,0,0-5.161,17.447c-.683,12.036,3.4,24.9,7.727,38.527l0,.012c1.307,4.116,2.658,8.372,3.895,12.668,9.925,34.665,18.321,70.379,26.44,104.916v.006c3.089,13.14,6.283,26.727,9.52,40.077a135.243,135.243,0,0,0,46.21,81.886,133.56,133.56,0,0,0,26.949,17.665,164.143,164.143,0,0,0,27.491,11.41,167.411,167.411,0,0,0,29.089,6.31c1.315.133,2.678.221,4,.305h.006a44.173,44.173,0,0,1,9.4,1.275,14.226,14.226,0,0,1,7.742,5.2,8.747,8.747,0,0,1,2.288,5.693,7.5,7.5,0,0,1-2.288,5.648,14.373,14.373,0,0,1-6.657,4.094,30.488,30.488,0,0,1-8.969,1.172c-9.335,0-20.332-2.787-29.167-5.027-3.008-.762-5.849-1.482-8.174-1.97a212.218,212.218,0,0,1-33.879-13.361,159.539,159.539,0,0,1-26.946-17.046,146.524,146.524,0,0,1-37.268-44.031,205.584,205.584,0,0,1-12.407-26.428c-3.418-8.743-6.574-18.228-9.647-29-5.742-20.123-10.327-41.717-15.181-64.579l0-.01-.116-.547c-2.472-13.347-5.961-27.158-9.335-40.514l0-.007c-4.778-18.915-9.719-38.474-12.109-57.777a177.833,177.833,0,0,1-1.4-28.9,136.839,136.839,0,0,1,1.3-14.376,122.327,122.327,0,0,1,2.953-14.3Zm-267.82,248.5c-1.327.176-2.679.343-3.985.505h-.007l-.111.014-1.536.191q-.064.177-.132.356l-.009.025c-.076.206-.155.419-.23.629C277.829,1267,279.8,1266.438,281.913,1265.857Zm83.351-81.439c-16.17,1.646-32.672,2.015-48.632,2.371-17.116.382-34.816.777-52.159,2.749,5.833,8.056,10.659,17.5,15.19,29.73A59.071,59.071,0,0,1,290.8,1211a64.367,64.367,0,0,1,12.386-5.428,78.844,78.844,0,0,1,13.3-2.973,102.611,102.611,0,0,1,13.892-.905,155.47,155.47,0,0,1,27.818,2.771c8.055,1.48,16.65,3.552,26.276,6.335-2.288-6.682-4.347-13.314-6.12-19.71a10.877,10.877,0,0,1-1.725.136,13.116,13.116,0,0,1-6.543-1.848,12.7,12.7,0,0,1-4.822-4.958h0Zm-238.781-16.5a2.974,2.974,0,0,1,.024.3c0,.043,0,.087.007.133.724.048,1.466.115,2.121.174l.178.016c-.49-.119-.978-.253-1.45-.382l-.037-.01C127.05,1168.07,126.764,1167.991,126.483,1167.918Zm546.7-161.673c-1.343,0-3.524,2.313-6.483,6.875-2.394,3.69-4.663,7.877-5.754,9.89-.222.41-.388.715-.5.918-2.8,5.947-4.092,13.39-5.08,19.9a62.872,62.872,0,0,0-1.129,12.457,56.542,56.542,0,0,0,1.334,11.689,49.78,49.78,0,0,0,3.6,10.519,43.124,43.124,0,0,0,5.669,8.946,36.142,36.142,0,0,0,28.465,13.386,50.048,50.048,0,0,0,18.94-4.016c-.517-.044-1.079-.066-1.717-.066-.968,0-1.95.051-2.9.1h-.007c-.953.049-1.938.1-2.893.1a10.8,10.8,0,0,1-6.883-1.895.1.1,0,0,0,.031-.03l.018-.021a2.558,2.558,0,0,1-.214-2.457c1.349-2.765,8.4-3.863,14.07-4.745a34.23,34.23,0,0,0,6.345-1.307c4.053-.847,8.177-1.692,12.166-2.51l.168-.034.019,0c11.1-2.275,22.578-4.627,33.8-7.272,2.266-.535,4.589-1.173,6.835-1.789,5.2-1.429,10.585-2.907,15.915-3.311-2.269-23.366-3.034-40.3-3.592-52.668v-.006h0c-.987-21.86-1.285-28.458-8.173-28.458-2.98,0-7.279,1.26-13.229,3a277.164,277.164,0,0,1-31.329,7.6c-7.577,1.354-15.579,2.431-23.784,3.2-9.566.9-19.751,1.413-30.271,1.53a2.182,2.182,0,0,1-.368,1.866,1.991,1.991,0,0,1-1.494.684c-.31,0-.535-.087-.572-.223-.032-.117.079-.258.313-.4C674.235,1006.734,673.794,1006.245,673.182,1006.245Zm238.486,16.087a.251.251,0,0,0-.192.078.457.457,0,0,0-.09.341c.014.2.112.418.237.418.062,0,.153-.054.242-.311.029-.083.067-.166.1-.233l0-.008c.024-.052.048-.106.069-.159A.773.773,0,0,0,911.667,1022.332ZM889.38,847.4h0a406.512,406.512,0,0,0,.862,88.918,337.938,337.938,0,0,0,21.85,86,414.331,414.331,0,0,0,2.209-47.092c-.043-16.042-.679-32.6-1.294-48.607v-.005c-.861-22.411-1.752-45.586-1.015-67.566a5.93,5.93,0,0,1,1.63-4.344,6.374,6.374,0,0,1,4.527-1.773,6.791,6.791,0,0,1,4.375,1.533,6.144,6.144,0,0,1,2.15,4.583c.085,2.664.167,5.367.246,7.982.73,24.152,1.485,49.123,5.588,73.137a199.573,199.573,0,0,0,9.083,35.136,153.9,153.9,0,0,0,7.205,16.673,138.71,138.71,0,0,0,9.4,15.872c.777-17.874.346-36.361-.071-54.24v-.016c-.494-21.179-1-43.079.467-64.336a269,269,0,0,1,3.935-31.606,193.752,193.752,0,0,1,8.379-30.842,4.669,4.669,0,0,1,1.775-2.155,4.475,4.475,0,0,1,2.43-.721A3.82,3.82,0,0,1,977,827.909c.2,10.231,2.469,31.862,6.274,51.8a212.657,212.657,0,0,0,7.142,28.389c3.029,8.83,6.25,14.663,9.574,17.339a70.669,70.669,0,0,0,3.16-18.651c.317-6.469.045-12.972-.261-19.079-.914-21.38-2.876-43.541-6-67.748-2.591-20.077-5.955-41.453-10.588-67.271a28.686,28.686,0,0,1-.291-6.9,24.521,24.521,0,0,1,1.47-6.77,15.667,15.667,0,0,1,9.169-9.574,61.45,61.45,0,0,1,11.666-8.455c4.168-2.417,8.408-4.464,12.395-6.354a185.033,185.033,0,0,1,27.177-10.545c9.436-2.931,19.315-5.465,28.87-7.915,9.008-2.31,18.322-4.7,27.257-7.418a199.394,199.394,0,0,0,25.888-9.631,112.108,112.108,0,0,0,23.126-14.049,91.76,91.76,0,0,0,10.092-9.371,90.378,90.378,0,0,0,8.879-11.3l.626-.944.129-.195c4.281-6.454,8.324-12.549,10.1-20.171-3.052-11.406-7.069-22.79-10.953-33.8l0-.011c-1.859-5.269-3.782-10.717-5.573-16.1-6.14-18.231-11.727-34.122-17.08-48.58-6.152-16.8-12.576-32.935-19.092-47.962-7.045-16.244-14.495-31.879-22.143-46.469-8.152-15.553-16.837-30.51-25.815-44.456a498.852,498.852,0,0,0-30.109-41.923,176.9,176.9,0,0,0-20,2.562,163.69,163.69,0,0,0-18.43,4.583,170.416,170.416,0,0,0-33.235,14.49,248.219,248.219,0,0,0-30.205,20.357c-8.5,6.589-17.549,14.222-29.339,24.747-3.2,2.768-6.146,5.211-9,7.47,11.772,20.646,24.38,41.261,36.573,61.2l.019.031c5.676,9.28,11.545,18.876,17.266,28.371.584.977,1.183,1.972,1.761,2.935l.1.165c5.694,9.467,11.581,19.255,15,29.941,3.614,11.44,2.059,26.787-4.753,46.919-5.9,17.45-14.831,35.807-22.706,52-4.822,9.917-9.376,19.283-12.561,27.08-6.274,11.076-12.531,21.856-18.583,32.282l0,.006c-14.175,24.424-27.564,47.493-38.861,70.292-6.043,12.2-11.016,23.356-15.2,34.118a280.088,280.088,0,0,0-11.057,34.475,215.718,215.718,0,0,0-5.681,73.155c.61,6.5,1.528,13.139,2.73,19.736,1.227,6.734,2.788,13.634,4.639,20.51a316.764,316.764,0,0,0,15.506,43.736c1.15-3.1.955-9.055.748-15.355V979.6c-.183-5.585-.373-11.359.31-15.908a14.942,14.942,0,0,1,1.789-5.653,4.973,4.973,0,0,1,3.763-2.519c-.939-9.238-1.59-18.39-1.934-27.2-.386-9.857-.391-19.375-.016-28.287C881.595,879.313,884.507,861.6,889.38,847.4Zm-221.126,158.58a7.117,7.117,0,0,0-2.512,1.837l-.009.009c-.354.345-.721.7-1.092,1,.41-.321.758-.6,1.126-.9.677-.549,1.376-1.118,2.486-1.944Zm-293.571-33.34h0c.1,1.309.2,2.62.3,3.919,1.774.361,3.54.813,5.249,1.25l.431.11a38.992,38.992,0,0,1-5.979-5.279Zm592.03-104.8h0c-2.612,18.852-2.774,38.3-2.931,57.1v.119c-.025,3-.051,6.112-.087,9.161.321-7.111.63-14.34.929-21.332l0-.057c.63-14.749,1.281-30,2.088-44.992Zm-476.526-82.77h0a6.877,6.877,0,0,1,5.171,2.309,6.743,6.743,0,0,1,1.426,5.631,244.443,244.443,0,0,1-6.7,27.331,184.2,184.2,0,0,1-10.3,26.168q-.416,2.438-.834,4.876l-.217,1.266-.012.072c-1.8,10.521-3.662,21.4-5.388,32.116a3.422,3.422,0,0,1,1.508-.346,3.875,3.875,0,0,1,.922.114,129.3,129.3,0,0,0,9.973-11.312,143.233,143.233,0,0,0,8.545-12.193,181.339,181.339,0,0,0,13.547-26.443c7.754-18.474,13.181-38.293,18.074-57.01a51.381,51.381,0,0,1-1.883-15.115c.048-5.073.613-10.265,1.159-15.285a129.34,129.34,0,0,0,1.124-19.03,78.1,78.1,0,0,0,.237-15.762,92.412,92.412,0,0,0-2.661-15.275c-2.336-9.017-5.984-18.334-11.479-29.321a92.705,92.705,0,0,0-2.986-16.06,90.46,90.46,0,0,0-5.435-14.447A108.192,108.192,0,0,0,487.2,612.4a193.817,193.817,0,0,0-22.265-21.185c-8.019-6.635-16.589-13.024-24.877-19.2-10.106-7.535-20.552-15.324-29.847-23.461A276.539,276.539,0,0,1,386.8,521.822c-7.34-9.406-14.445-19.342-21.317-28.951l-.01-.014,0,0c-6.51-9.1-13.241-18.517-20.137-27.427a286.561,286.561,0,0,0-21.817-25.379A165.119,165.119,0,0,0,298.293,418.7a134.22,134.22,0,0,0-14.429-8.545,128.241,128.241,0,0,0-15.93-6.8c-.827.053-1.674.08-2.515.08A54.72,54.72,0,0,1,247.364,400a.353.353,0,0,1-.236-.365.267.267,0,0,1,.236-.265c3.756-.613,7.575-1.433,11.268-2.225l.013,0c2.943-.632,5.987-1.285,8.989-1.832a7.2,7.2,0,0,1,3.206-4.177,9.9,9.9,0,0,1,5.143-1.311,14.633,14.633,0,0,1,6.251,1.471c7.083-3.1,14.289-6.617,21.415-10.439,6.778-3.636,13.7-7.669,20.582-11.989a459.443,459.443,0,0,0,39.031-27.636c25.194-19.722,49.031-41.723,72.083-63l1.647-1.52a300.216,300.216,0,0,0-77.347-51.476,337.9,337.9,0,0,0-43.59-16.707,355.076,355.076,0,0,0-45.442-10.687c-18.575,21.033-36.556,43.184-53.945,64.606-14.069,17.331-28.616,35.252-43.392,52.474-16.566,19.309-31.669,35.67-46.172,50.02C108.226,382,95.689,397.827,88.778,413.317a74.777,74.777,0,0,0-4.691,13.919,61.317,61.317,0,0,0-1.533,14.5,58.854,58.854,0,0,0,2.225,15.009,68.763,68.763,0,0,0,6.584,15.441,7.042,7.042,0,0,1,4.276,5.646,8.21,8.21,0,0,1-.359,3.935,7.4,7.4,0,0,1-2.338,3.33,12.243,12.243,0,0,0,1.7-.573,16.313,16.313,0,0,1,4.095-1.185c.3,0,.5.073.584.215.1.171.042.447-.171.823a113.926,113.926,0,0,0-35.331,24.04,111.51,111.51,0,0,1,15.99-9.821,107.98,107.98,0,0,1,16.663-6.688,112.619,112.619,0,0,1,17.17-3.819,124.687,124.687,0,0,1,17.511-1.215c22.188,0,46.265,5.547,71.562,16.487a287.413,287.413,0,0,1,33.4,17.238,337.307,337.307,0,0,1,29.952,20.238c13.351,9.756,26.619,20.291,39.436,31.312,12.432,10.691,24.812,22.16,36.795,34.088,8.1,1.451,16.551,5.693,23.346,9.1l.973.488c23.611,11.343,38.22,24.894,45.978,42.645,3.6,8.234,5.811,17.544,6.764,28.462.849,9.724.731,20.706-.371,34.562a230.657,230.657,0,0,0-12.956,30.378c-3.693,10.445-6.963,21.288-10.127,31.773-2.741,9.087-5.576,18.484-8.665,27.549-2.661,5.9-3.543,9.831-2.55,11.368a1.594,1.594,0,0,0,1.436.716c1.807,0,4.815-1.905,7.851-4.972,3.145-3.177,5.523-6.793,6.363-9.672,5.473-6.812,8.792-15.346,12-23.6l0-.005c1.078-2.773,2.194-5.639,3.356-8.336a8.123,8.123,0,0,1,2.265-3.145,5.368,5.368,0,0,1,3.472-1.285,5.96,5.96,0,0,1,1.643.24,6.731,6.731,0,0,1,3.968,3.485,4.719,4.719,0,0,1,.219,3.9c-1.769,4.572-3.566,9.177-5.3,13.632-9.546,24.469-19.416,49.772-27.094,75.169a87.949,87.949,0,0,0,17.194-13.553,123.618,123.618,0,0,0,13.905-16.845c8.4-12.047,15.309-25.5,21.991-38.517,1.652-3.216,3.36-6.543,5.049-9.765a5.879,5.879,0,0,1,5.25-3.371,7.366,7.366,0,0,1,6.055,3.488,6.659,6.659,0,0,1,.276,6.652c-2.856,5.836-6.659,13.51-10.759,21.111a315.8,315.8,0,0,0-12.864,32.078c-3.459,10.094-6.706,20.931-9.927,33.132,14.429-8.606,25.913-21.914,35.106-40.685a203.221,203.221,0,0,0,10.176-25.473c2.971-8.951,5.562-18.192,7.645-25.617l0-.005a6.718,6.718,0,0,1,2.076-4.733A6.165,6.165,0,0,1,490.187,785.068ZM457.643,564.3c8.647,6.323,17.588,12.862,25.88,19.948a129.825,129.825,0,0,1,28.49,33.129,125.135,125.135,0,0,1,15.629,40.792,109.908,109.908,0,0,1,16.672,64.99c-.025.685-.033,1.494-.043,2.351v.031a49.576,49.576,0,0,1-.84,10.266,12.684,12.684,0,0,1-1.791,4.4,5.866,5.866,0,0,1-3.425,2.451c1.63,15.486,2.942,28.009,4.13,39.41,7.813,4.728,14.77,8.693,21.269,12.119a241.858,241.858,0,0,0,22.719,10.628,158.8,158.8,0,0,0,23.674,7.545,108.991,108.991,0,0,0,24.131,2.87,86.675,86.675,0,0,0,17.667-1.783,81.553,81.553,0,0,0,17.452-5.766,180.73,180.73,0,0,0,38.6-29.437,221.884,221.884,0,0,0,30.481-38.183,270.5,270.5,0,0,0,22.445-43.843A301.259,301.259,0,0,0,775.274,649.8c-1.559-1.564-1.986-3.69-2.4-5.747a14.42,14.42,0,0,0-1.36-4.353.133.133,0,0,1,.041-.03,183.533,183.533,0,0,1,1-26.809A195.98,195.98,0,0,1,777.2,587.14a227.351,227.351,0,0,1,7.76-24.773c2.919-7.776,6.4-15.843,10.348-23.974a445.712,445.712,0,0,1,26.354-46.14c9.692-15.078,20.211-30.139,30.384-44.7,9.383-13.433,19.085-27.324,28.035-41.09a465.849,465.849,0,0,0,24.541-41.791c8.035-13.252,16.581-26.474,24.845-39.261,5.632-8.715,11.457-17.726,17.075-26.679a.819.819,0,0,1,.706-.394.912.912,0,0,1,.719.349.771.771,0,0,1,.113.694,396.062,396.062,0,0,1-18.163,53.869c-7.37,17.986-15.724,35.824-23.1,51.562.432-.881,3.85-1.6,5.851-1.6.911,0,1.469.141,1.572.4.057.143-.024.321-.241.529a12.446,12.446,0,0,0-2.217-.223c-1.824,0-3.069.559-3.7,1.662-.981,1.714-.4,4.725,1.555,8.052a243.812,243.812,0,0,1,28.881-32.618,227.439,227.439,0,0,1,34.657-26.96,196.117,196.117,0,0,1,39.24-19.131,167.424,167.424,0,0,1,42.633-9.131c-6.032-19.572-13.581-40.461-21.831-60.407a635.779,635.779,0,0,0-30.89-64.587c-12.474-22.538-25.562-42.332-38.9-58.831A250.13,250.13,0,0,0,941.3,117.813a169.293,169.293,0,0,0-23.74-18.985,416.493,416.493,0,0,1-12.069,48.416,323.694,323.694,0,0,1-16.129,41.213c-11.563,24.27-25.693,45.042-42,61.739-15.315,15.682-32.449,27.691-50.927,35.694a140.376,140.376,0,0,1-27.288,8.656,137.061,137.061,0,0,1-27.692,2.837h-.017a140,140,0,0,1-33.482-4.1,149.013,149.013,0,0,1-32.082-12.024,161.953,161.953,0,0,1-29.554-19.53,177.73,177.73,0,0,1-25.915-26.614,199.331,199.331,0,0,1-25.53-42.467,231.96,231.96,0,0,1-15.993-52.011,279.714,279.714,0,0,1-4.3-60.739,330.422,330.422,0,0,1,2.905-33.388c1.59-11.556,3.822-23.421,6.635-35.264a1.391,1.391,0,0,1-.23-1.229,1.1,1.1,0,0,1,.72-.731c-44.124.009-88.923,11.28-133.154,33.5A411.615,411.615,0,0,0,392.381,79.3a504.076,504.076,0,0,0-52.687,44.937c-20.376,19.666-41.622,42.19-64.951,68.86,2.007-.058,4.03-.086,6.012-.086a221.131,221.131,0,0,1,46.564,5.057,247.906,247.906,0,0,1,44.626,14.263,274.565,274.565,0,0,1,41.488,22.107,289.8,289.8,0,0,1,37.151,28.589,45.588,45.588,0,0,0,8.261-10.871,65.94,65.94,0,0,0,5.27-12.639,8.148,8.148,0,0,1,3.01-4.139,7.73,7.73,0,0,1,4.479-1.413h0a8.056,8.056,0,0,1,6.733,3.695,14.125,14.125,0,0,1,2.845,5.8,17.7,17.7,0,0,1,.129,6.737c-.742,4.672-3.106,10.1-7.025,16.127a135.3,135.3,0,0,1-14.864,18.37c-10.781,11.45-25.535,24.562-43.851,38.974-22.091,17.382-49.217,36.543-78.446,55.412a80.1,80.1,0,0,1,2.494,12.145,81.356,81.356,0,0,1,.593,12.023,97.541,97.541,0,0,1-3.708,23.832,294.3,294.3,0,0,1,21.6,25.485c6.766,8.853,13.31,18.12,19.638,27.083,8.516,12.06,17.321,24.531,26.76,36.119,5.081,6.238,9.937,11.731,14.844,16.795a188.465,188.465,0,0,0,16.609,15.289c7.034,5.734,14.481,11.181,21.684,16.448l0,0ZM354.926,619.1h0c15.645,16.353,31.162,34.118,46.119,52.8.2.263.381.511.55.76a70.072,70.072,0,0,0-6.133-18.158,63.974,63.974,0,0,0-10.149-14.548c-7.438-8.036-17.378-14.858-30.387-20.855Zm545.409-204.85c-11.143,20.508-24.977,40.754-38.356,60.333l-.008.012c-7.936,11.614-16.142,23.623-23.759,35.638A400.188,400.188,0,0,0,817.232,547a227.984,227.984,0,0,0-15.262,38.816,179.679,179.679,0,0,0-4.572,20.461,165.7,165.7,0,0,0-2.045,21.316c14.969-5.952,31.583-11.756,50.788-17.745,17.122-5.339,34.678-10.328,51.655-15.153l.014,0c14.73-4.186,29.962-8.514,44.864-13.059,1.156-.3,2.341-.618,3.595-.96l.049-.013c5.218-1.422,11.133-3.035,16.584-3.035.32,0,.64.006.951.017,6.055-10.5,7.645-21.713,4.861-34.283a86.13,86.13,0,0,0-5.724-16.618c-2.6-5.783-5.64-11.4-8.276-16.137-7.458-16.328-17.183-31.832-26.589-46.826C918.195,447.952,907.928,431.585,900.335,414.248Zm-570.21-31.09c-5.7,3.2-10.809,5.853-15.619,8.115a149.987,149.987,0,0,1-16.292,6.605,122.5,122.5,0,0,1,13.777,8.2,145.59,145.59,0,0,1,12.673,9.793c3.777-9.617,5.615-20.622,5.461-32.71ZM590.254,14.678h0c-1.376,12.136-2.331,24.025-2.836,35.336-.544,12.187-.587,24.135-.128,35.511a345.223,345.223,0,0,0,3.2,35.3,291.779,291.779,0,0,0,7.146,34.7,173.086,173.086,0,0,0,8.207,24,185.54,185.54,0,0,0,11.73,22.97,187.587,187.587,0,0,0,14.892,21.273,179.055,179.055,0,0,0,17.691,18.906,163.126,163.126,0,0,0,20.128,15.869,144.6,144.6,0,0,0,22.2,12.164,122.452,122.452,0,0,0,49.18,10.536h.007a118.113,118.113,0,0,0,20.842-1.868,130.58,130.58,0,0,0,27.558-9.035A134.319,134.319,0,0,0,814.1,256.108a154.046,154.046,0,0,0,20.7-18.562,188.127,188.127,0,0,0,17.579-22.014,259.021,259.021,0,0,0,26.612-50.888,367.028,367.028,0,0,0,16.586-54.207,225.9,225.9,0,0,0-35-35.437,236.755,236.755,0,0,0-88.242-44.87,227.62,227.62,0,0,0-49.239-7.462c-2.594-.106-5.346-.16-8.18-.16-11.036,0-22.594.811-33.772,1.6l-.27.019c-11.31.794-23,1.614-34.518,1.615a163.533,163.533,0,0,1-28.8-2.263,99.815,99.815,0,0,1-27.3-8.8Z" transform="translate(-116 -64.004)"></path></g><g transform="translate(225 0)"><g><g id="head_Dreads_1" data-name="head/Dreads 1"><path id="_Skin" data-name="âœ‹ Skin" d="M185.625,0c56.781,0,115.511,44.012,136.324,72.1C346.015,104.572,365,260.469,356.094,313.368S302.949,423.924,226.15,423.924s-123.536-9.459-125.41-23.2-50.654-90.219-50.654-90.219S.2,296.473,0,262.954,26.736,217.24,26.736,217.24s-9.6-132.279,14.58-166.718S128.844,0,185.625,0Z" transform="translate(56.417 75.26)" fill="#d08b5b"></path><path id="_Ink" data-name="ðŸ– Ink" d="M324.105.191c8.928-1.967,12.56,11.846,3.744,13.38-6.037,1.05-12.085,2.37-18.053,3.967a18.659,18.659,0,0,1,7.207.928l1.388-.484c19.237-6.66,40.109-11.686,60.334-6.566,16.584,11.958-24.134,13.787-30.7,15.368,21.908,1.326,44.666-3.633,65.953,4.272,8.168,3.255,4.922,15.824-9.616,10.024a7.545,7.545,0,0,1,.283,3.238,44.164,44.164,0,0,1,19.41,6.251c44.739-1.1,60.866,35.307,23.2,22.72a12.363,12.363,0,0,1,2.481,2.742l.59.043c9.98.8,36.342,6.547,34.939,18.485,6.913,1.509,14.449,4.053,19.676,8.182,5.851,4.621-.532,13.564-6.994,11.839a28.2,28.2,0,0,1-5.569-2.278,14.548,14.548,0,0,1-2.746,2.277c11.264,9.124,26.191,16.788,32.045,30.542a6.618,6.618,0,0,1-4.653,8.073c-11.876,2.822-21.615-6.293-29.735-14.97a52.125,52.125,0,0,1,3.222,13.51,60.994,60.994,0,0,1,19.292,17.154c8.661,4.893,19.435,12.924,19.694,22.879.189,7.239-6.868,11.225-13.369,10.035l-.218-.05h0c3.1,5.348,4.639,11.137,5.68,17.53l.634.391c6.133,3.809,12.283,8.465,12.459,16,.136,5.769-5.621,9.4-10.957,8.223a12.134,12.134,0,0,1-2.142-.693c.022.194.045.387.062.582,2.163,1.64,4.307,3.3,6.392,5.034l1.713,1.436c7.127,6.04,13.883,12.85,11.805,23.017-.71,3.48-4.246,5.289-7.477,5.609a15.561,15.561,0,0,1-2.093.054l.276.721c4.48,11.926,7.327,30.964-7.079,29.323,2.255,19.463-9.535,22.358-17.595,12.58,9.5,11.293,26.789,82.76-3.419,70.055-1.331,15.969-4.267,32.153-11.58,46.6l-.212.475c-3.73,8.1-20.158,32.106-25.468,14.534,3.81-21.794,14.681-42.475,16.435-64.809-2.134-.333-3.955-2.4-4.748-4.675A71.822,71.822,0,0,1,463.78,414.5q-1.714,4.576-3.866,9.042a128.245,128.245,0,0,1-17.17,26.39c-3.6,4.33-7.42,8.54-12.12,11.709-3.741,2.521-8.111,4.181-12.321,5.781-6.849,6.84-15.639,12.01-24.229,16.14-14.16,6.79-29.51,10.54-45.04,12.42a164.209,164.209,0,0,1-47.67-1.28c-15.05-2.6-31.181-9.25-40.45-21.92-.8-1.09.689-2.12,1.669-1.67,26.9,12.45,57.13,15.7,86.451,11.77a135.542,135.542,0,0,0,39.63-11.48c10.54-4.95,19.429-12.15,28.889-18.67a80.418,80.418,0,0,1,5.821-7.1l3.309-3.47a103.378,103.378,0,0,0,23.311-37.35c7.256-20.419,5.293-42.585,4.011-63.865l-.111-1.875q-1.713-29.539-5.291-58.9a13.7,13.7,0,0,1-4.7-2.695c-5.338-33.28-20.722-67.287-46.711-89.735a136.711,136.711,0,0,1,25.652,71.473c.311,4.554-5.93,4.5-7.386.986-14.466-37.8-21.829-78.576-66.071-93.357-17.56,23.707-25.238,52.49-40.022,77.586-3.743,5.845-11.891,3.044-12.5-3.335-1.72-17.989,5.523-35.845,14.512-51.582l-7.316,8.752c-56.345,67.538-60.951,77.624-54.9,181.086-.551,5.176-7.23,7.636-10.287,2.744-17.168-32.776-9.8-73.04-4.9-108.067-1.763,3.469-3.443,6.948-5.077,10.48-1.108-3.585-3.059.4-2.6,5.712-2.98,6.714-5.793,13.623-8.33,20.667.16,22.425,7.625,43.865,7.64,66.255.5,6.252-7.962,7.22-10.994,2.934a124.626,124.626,0,0,1-7.088-10.911c.3,9.353,4.074,17.656,6.67,26.411,1.774,3.122,2.587,6.37,1.431,9.889l-.118.341c-1.9,5.772-8.867,7-13.253,3.051a32.385,32.385,0,0,1-1.341,10.776,99.1,99.1,0,0,1,12.175,19.154c1.83,4.295-.643,7.874-4.23,9.61,3,7.477,4.233,15.213,1.621,22.614-.78,2.23-4.04,3.03-5.311.69-4.17-7.7-6.5-16.18-10.46-23.97q-1.1-2.155-2.288-4.254a69.811,69.811,0,0,1-11.485-13.175c-12.273,14.424-23.88-16.489-26.077-25.9l-.98-.907h0c2.379,22.31,15.687,42.716,15.9,65.115-.478,4.667-5.595,8.964-10.31,5.829-16.349-12.215-19.832-34.308-24.362-52.847a7.715,7.715,0,0,1-2.286.694c-.862,12.543,28.4,53.1,4.694,53.159-26.244-13.237-23.272-51.408-26.8-76.155-1.6,7.369-.188,19.475-5.563,24.819,22.8,55.378-15.561,37.715-25.024-3.728a19.8,19.8,0,0,1-4.216,4.5c-3.447,2.667-8.006,2.581-10.537-1.337-5.208-8.065-3.363-17.634-1.176-26.522C43.978,388.284,35.3,368.053,33.756,346.6a24.61,24.61,0,0,1-1.7,2.242c-2.424,2.815-7.31,1.812-9.041-1.148-5.063-8.653-2.6-19.668,1.65-28.986a7.666,7.666,0,0,1-3.352-2.573c-6.929-11.373-9.067-24.219-8.349-37.265a22.473,22.473,0,0,1-3.087,2.58c-3.423,2.356-7.774-.208-8.945-3.586-3.792-10.93,4.754-21.978,11.955-29.382a53.88,53.88,0,0,1,8.562-7.194c1.5-4.109,3.11-8.1,4.76-11.928a44.481,44.481,0,0,1-4.342-15.419,24.673,24.673,0,0,1-8.289,8.511c-3.431,2.079-7.368-.666-7.589-4.29-.666-10.936,8.036-20.561,14.542-28.672l.653-.838c1.15-1.5,2.955-3.908,5.011-6.158q.495-1.479,1.028-2.941c-5.049,2.7-12.836.724-12.395-6.271,1.011-22.678,25.106-33.672,32.093-53.715-35.413,31.395-31.635-8.937-6.726-24.623,1.994-1.651,4.052-3.2,6.139-4.706a5.552,5.552,0,0,1-1.1-8.6c7.275-7.962,18.34-9.608,28.71-10.478A67.514,67.514,0,0,1,84.917,71.1l1,.086.283-.08a72.165,72.165,0,0,1,7.7-7.64c-19.606-3.7-1.019-32.067,43.783-21.741,2.45-1.238,4.977-2.343,7.533-3.349a131.6,131.6,0,0,1-19.967-2.263c-5.9-1.2-6.886-10-1.683-12.681,20.8-10.279,44.8-7.741,67.089-2.574a7.117,7.117,0,0,1-.811-3.315c-7.384-.708-8.038-11.954.462-12.6a85.047,85.047,0,0,1,40.5,7.115q2.419-.281,4.868-.359c2.376-24.793,35.182-4.231,42.4,7.7C292.366,10.523,307.6,3.758,324.105.191Z" transform="translate(-49 7.999)"></path></g></g><g transform="translate(159 186)"><g><path d="M158.318 0.693899C152.624 -0.294101 146.406 -0.326101 140.801 1.2469C136.392 2.4829 129.461 5.2939 127.556 9.7969C127.172 10.7059 127.178 12.1069 128.286 12.5789C129.782 13.0739 132.392 13.3339 132.12 12.7759C133.404 12.6387 134.699 12.3881 136.002 12.1362C138.05 11.74 140.115 11.3407 142.172 11.3749C146.542 11.4479 150.621 12.2129 154.693 13.8459C158.359 15.3159 161.795 17.4139 164.72 20.0749C168.265 23.2989 170.235 28.1409 174.422 30.5579C179.558 33.5219 185.507 29.6969 185.778 24.0419C186.103 17.2698 180.049 11.7076 174.976 7.88481L174.436 7.4819C169.789 4.0409 164.01 1.6819 158.318 0.693899ZM11.2575 13.4754C20.3265 5.4474 36.8055 -2.3056 49.0345 1.6454C56.0655 3.9164 59.1305 15.2454 51.2815 18.8364C42.1925 22.9944 31.7135 21.3024 22.4625 25.6124C18.5775 27.4234 14.9235 29.6864 12.2185 33.0054C10.0875 35.6214 7.91949 39.0634 4.83749 40.5714C4.02749 40.9684 2.93049 40.9784 2.28149 40.2424C-4.47451 32.6004 5.35849 18.6964 11.2575 13.4754ZM183.351 63.4506C187.073 48.5286 170.526 33.8726 156.389 35.0376C149.225 35.6286 142.842 39.7526 138.922 45.7026C136.183 49.8606 133.59 58.1526 137.91 62.1356C138.52 62.6976 139.347 62.6636 139.965 62.1356C142.475 59.9866 143.924 56.4336 146.347 54.0056C149.03 51.3166 152.561 49.4036 156.389 49.1456C159.862 48.9116 163.093 50.4356 165.367 53.0596C168.122 56.2376 168.018 59.6236 169.057 63.4506C170.945 70.4056 181.566 70.6106 183.351 63.4506ZM38.1784 39.9406C45.5584 38.6316 53.1184 40.4666 59.2254 44.7846L59.6882 45.1175C65.5717 49.4203 72.1545 56.9758 68.7784 64.3926C67.4234 67.3706 63.3654 67.8376 60.7904 66.4876C56.5034 64.2396 55.7264 58.7086 51.9014 55.6476C48.7644 53.1386 44.5404 51.6166 40.5004 51.9836C31.0094 52.8456 25.1714 62.2066 22.2234 70.2736C21.8464 71.3056 20.3314 71.7066 19.7394 70.5986C12.7884 57.6066 25.0924 42.2626 38.1784 39.9406ZM129.748 109.04C137.871 97.6606 126.365 86.9575 118.814 82.3675C116.836 80.9475 118.406 76.2437 122.633 76.9707C161.03 83.5677 141.135 149.708 92.1117 113.413C86.2751 108.705 93.3431 98.3342 99.6339 102.366C99.9529 102.611 100.287 102.87 100.636 103.139C107.704 108.604 120.635 118.602 129.748 109.04ZM74.1496 134.293C79.7437 125.091 91.6675 147.632 92.9344 151.508C94.0565 154.942 94.7972 158.459 95.1736 162.017C99.5106 162.989 104.014 162.991 108.458 162.139C115.063 160.872 119.1 157.322 124.84 154.273C128.805 152.166 133.802 154.636 135.864 158.13C138.289 162.243 136.744 166.511 133.554 169.577C127.505 175.391 115.603 176.727 107.707 175.183C103.183 174.299 99.0371 172.602 95.3756 170.136C95.3514 170.597 95.3352 171.057 95.2989 171.516L95.229 172.313C94.6223 178.761 92.85 186.869 87.8417 191.065C79.6274 197.947 69.4898 184.711 77.4715 177.836L77.7189 177.63C82.6801 173.621 83.7624 162.866 83.4952 156.943C83.3201 153.076 82.6158 149.16 81.395 145.478L81.144 144.745C80.7765 143.704 76.7699 133.837 75.3221 135.094L75.253 135.165C74.6559 135.877 73.6911 135.047 74.1496 134.293Z" transform="translate(52.00031 61.9997)" fill-rule="evenodd" stroke="none"></path></g></g><g transform="translate(123 338)"><g><path d="M741.333 8.49482C725.335 23.0878 735.613 59.6458 741.851 49.7628C742.781 40.6108 745.639 23.0748 754.915 19.5268C823.145 16.6168 809.055 185.322 681.957 164.558C600.977 159.094 515.446 41.8178 439.294 113.186C356.554 45.7888 263.127 146.829 177.924 160.667C108.649 183.07 5.12546 141.932 23.7685 56.5308C28.4255 31.4708 63.0815 2.80382 84.3065 28.2358C90.5765 34.2768 82.6115 56.4018 89.2035 51.8278C99.4655 40.4908 96.7915 22.3858 87.3075 11.0948C71.5995 -7.60318 43.5995 0.576821 27.3115 13.7818C-46.1715 86.0728 42.3345 195.196 130.912 187.987C227.978 199.859 359.98 64.9628 426.701 130.495C433.505 137.177 446.29 137.18 452.205 130.5C508.929 66.4458 618.404 197.358 697.481 188.009C781.582 195.669 848.891 94.1638 800.349 22.3948C788.255 4.14882 759.191 -9.60318 741.333 8.49482Z" transform="translate(-221 -67.00052)" stroke="none"></path></g></g><g transform="translate(47 241)"><g><path d="M314.024 93.4625C333.15 107.282 369.087 94.5517 378.267 83.0828C386.399 72.922 391.327 59.0269 390.695 41.7577C390.616 38.7724 391.502 36.6176 392.907 34.8843C394.48 32.9455 398.905 29.4027 401.506 28.0201C404.775 26.2828 400.579 0.816439 400.301 0.786495C367.066 -2.79457 334.253 6.30769 303.477 18.8718C286.742 25.1834 247.226 16.4545 235.621 13.8907C234.318 13.6029 233.366 13.3928 232.839 13.2904C196.359 7.0863 157.13 3.16601 123.036 17.9269C122.764 18.0449 118.906 18.993 117.774 18.8718C95.2701 16.4619 56.425 17.1006 30.2932 28.0201C9.16148 36.8503 -0.130007 55.4079 0.00420779 63.6069C0.16202 65.3484 9.07173 59.7484 14.2199 56.5126C15.2594 55.8592 16.1455 55.3023 16.7753 54.9216C44.4742 34.6206 83.8064 38.2989 114.906 44.0692C116.631 44.3894 132.384 46.3174 135.238 48.4816C138.249 50.7646 141.687 61.6144 141.687 61.6144C145.066 86.0741 159.927 103.848 178.713 112.159C188.519 116.497 221.713 115.097 240.062 105.261C250.421 98.1247 256.035 87.5178 261.736 76.9756C266.79 67.6283 271.892 58.3049 279.773 50.9847C281.18 49.6774 284.51 50.9021 284.782 52.7434C287.339 70.0118 294.897 79.6428 314.024 93.4625ZM377.122 45.7609C376.456 55.7782 372.083 65.8885 365.507 73.6601C359.234 81.0725 350.979 86.3271 342.101 87.5358C334.263 88.6029 325.889 86.58 317.868 79.9721C311.83 74.9808 306.878 68.4389 303.991 61.2326C301.333 54.5986 300.421 47.4073 301.958 40.3207L301.965 39.4865C302.931 37.1465 304.04 36.0556 305.234 35.4291C310.307 29.9706 325.522 21.5188 340.23 17.7369C351.605 14.812 362.418 14.8991 368.537 20.1513C375.287 27.6141 377.728 36.6444 377.122 45.7609ZM251.728 67.6737C255.63 62.0286 256.862 49.3476 255.228 40.0964C254.4 35.4123 252.794 31.6838 250.778 29.8278C249.438 28.5941 247.91 28.0133 246.242 28.0995C245.328 28.1468 244.338 28.4068 243.29 28.9721C229.096 21.2945 211.902 18.5302 195.603 19.3252C182.629 19.3228 173.371 22.3853 167.094 27.1525C159.54 32.8887 156.137 41.1349 155.94 50.0778C155.706 60.6894 160.065 72.2986 167.216 81.4845C174.061 90.2767 183.423 96.7948 193.581 98.2987C205.111 100.588 216.862 98.3732 227.078 92.9563C237.556 87.4007 246.407 78.4781 251.728 67.6737Z" transform="translate(-7.999279 10.99843)" fill="#FFFFFF" fill-rule="evenodd" stroke="none"></path><path d="M403.623 0.802188C369.897 -2.83181 336.584 6.33919 305.419 19.0632C287.397 25.8602 269.822 21.4413 252.221 17.0159C246.936 15.6871 241.649 14.3577 236.346 13.3312C199.28 7.02819 160.279 4.95419 125.661 19.9422C125.135 18.9992 123.574 18.9052 122.843 19.6622C84.5652 15.5632 -0.904759 18.9992 0.00724127 66.7622C0.397241 71.5532 3.94324 78.4762 9.69924 77.3582C14.9532 73.3192 15.2452 64.0232 21.4632 60.4072C50.0518 39.3764 91.3849 44.8718 122.424 50.9872L124.311 51.3622C136.258 51.3103 139.154 53.9214 141.576 64.4521L141.733 65.1502C148.949 116.75 205.131 139.715 244.764 110.73C264.411 97.1952 267.924 71.8702 284.602 56.3072L284.815 56.1812C296.407 134.479 399.502 121.38 396.694 44.6772C396.564 39.7211 399.997 37.8963 403.857 35.8443C410.652 32.2323 418.771 27.9164 411.11 4.57919C409.874 0.635188 406.412 -0.258812 403.623 0.802188ZM400.52 9.62019C381.819 8.68519 364.521 9.70819 346.165 14.2032C336.491 16.5372 329.067 19.4882 319.807 23.0372C292.474 35.1468 276.584 31.3393 253.706 25.8574C228.241 19.7554 194.118 11.579 125.919 20.9712C127.594 28.1452 127.902 35.2482 127.992 41.9882C146.097 41.2586 148.883 52.8689 152.022 65.9542C153.467 71.9747 154.986 78.3074 158.107 83.8943L158.412 84.4292C172.846 110.297 206.906 122.363 234.381 105.205C257.303 91.8452 259.539 57.9602 282.361 44.5122C294.295 44.0429 296.154 53.5723 298.115 63.6171C299.404 70.2241 300.737 77.054 305.008 81.4082C320.162 101.629 352.373 104.456 371.375 85.4362C380.29 76.2842 385.028 64.6642 385.29 52.1802C385.39 50.5796 385.415 48.9737 385.439 47.3839C385.536 41.0516 385.629 34.9734 390.449 30.4892C394.676 26.1952 402.186 27.6282 403.048 21.1372C403.596 17.2992 402 13.1362 400.52 9.62019ZM374.329 19.94C358.586 6.30099 313.421 27.555 304.559 38.048C303.559 38.454 302.711 39.244 302.24 40.481C301.974 40.791 301.928 40.7343 301.92 40.983L301.914 41.669C298.254 58.034 306.617 74.934 319.329 85.541C357.495 117.274 403.062 52.141 374.329 19.94ZM251.464 31.4965C235.513 22.3855 215.857 19.1595 197.28 20.0745C128.44 20.0055 155.952 97.7685 195.438 103.49C220.749 108.534 247.036 93.3455 258.327 70.2435C266.164 59.4425 263.271 22.1005 251.464 31.4965ZM101.641 24.192C111.382 23.6992 118.918 23.3178 122.171 22.2162C121.221 26.718 120.698 31.3064 120.203 36.2112L119.741 40.8352C97.3982 36.3662 74.8612 33.9072 52.2002 38.1542C35.5402 41.2762 17.0082 47.0292 8.06024 61.5262C14.5494 28.5988 69.8428 25.801 101.641 24.192ZM373.928 57.565C383.104 7.79689 347.276 23.0718 315.206 36.7443C313.409 37.5105 311.624 38.2716 309.859 39.016C311.644 40.647 311.636 42.874 311.123 44.704C307.615 83.7 355.012 105.798 373.928 57.565ZM250.33 34.0005L249.319 33.8528C247.008 33.5002 244.159 32.9745 240.915 32.3759C220.142 28.5431 183.185 21.7238 167.641 38.2375C150.2 69.9065 194.447 123.1 240.492 80.7305C253.307 67.6835 258.274 51.8625 250.33 34.0005Z" transform="translate(-10.99964 8.000212)" fill-rule="evenodd" stroke="none"></path></g></g></g></g></svg>